ISO-10303-21;
HEADER;
FILE_DESCRIPTION (( 'STEP AP214' ),
    '1' );
FILE_NAME ('专用定位片-7070-尺寸精调.STEP',
    '2025-11-07T06:46:15',
    ( '' ),
    ( '' ),
    'SwSTEP 2.0',
    'SolidWorks 2021',
    '' );
FILE_SCHEMA (( 'AUTOMOTIVE_DESIGN' ));
ENDSEC;

DATA;
#1 = EDGE_CURVE ( 'NONE', #155, #58, #154, .T. ) ;
#2 = AXIS2_PLACEMENT_3D ( 'NONE', #309, #228, #388 ) ;
#3 = CYLINDRICAL_SURFACE ( 'NONE', #330, 8.000000000000000000 ) ;
#4 = DIRECTION ( 'NONE',  ( -0.000000000000000000, -0.000000000000000000, -1.000000000000000000 ) ) ;
#5 = SURFACE_STYLE_FILL_AREA ( #344 ) ;
#6 = DIRECTION ( 'NONE',  ( 0.000000000000000000, 0.000000000000000000, -1.000000000000000000 ) ) ;
#7 = VECTOR ( 'NONE', #96, 1000.000000000000000 ) ;
#8 = DIRECTION ( 'NONE',  ( 0.000000000000000000, 0.000000000000000000, 1.000000000000000000 ) ) ;
#9 = FACE_OUTER_BOUND ( 'NONE', #22, .T. ) ;
#10 = EDGE_LOOP ( 'NONE', ( #240, #239, #451, #124 ) ) ;
#11 = CARTESIAN_POINT ( 'NONE',  ( 0.000000000000000000, 0.000000000000000000, 0.6500000000000000222 ) ) ;
#12 = FACE_OUTER_BOUND ( 'NONE', #355, .T. ) ;
#13 = VERTEX_POINT ( 'NONE', #188 ) ;
#14 = ADVANCED_FACE ( 'NONE', ( #12 ), #313, .T. ) ;
#15 = ORIENTED_EDGE ( 'NONE', *, *, #457, .F. ) ;
#16 = CARTESIAN_POINT ( 'NONE',  ( 0.000000000000000000, 0.000000000000000000, 1.500000000000000000 ) ) ;
#17 = CARTESIAN_POINT ( 'NONE',  ( 0.000000000000000000, 0.000000000000000000, 0.6500000000000000222 ) ) ;
#18 = ORIENTED_EDGE ( 'NONE', *, *, #351, .T. ) ;
#19 = CIRCLE ( 'NONE', #77, 6.019999999999999574 ) ;
#20 = FACE_OUTER_BOUND ( 'NONE', #367, .T. ) ;
#21 = CARTESIAN_POINT ( 'NONE',  ( 0.000000000000000000, 0.000000000000000000, 1.199999999999999289 ) ) ;
#22 = EDGE_LOOP ( 'NONE', ( #151, #476 ) ) ;
#23 = ORIENTED_EDGE ( 'NONE', *, *, #26, .F. ) ;
#24 = DIRECTION ( 'NONE',  ( -0.000000000000000000, -0.000000000000000000, -1.000000000000000000 ) ) ;
#25 = DIRECTION ( 'NONE',  ( 0.000000000000000000, 0.000000000000000000, 1.000000000000000000 ) ) ;
#26 = EDGE_CURVE ( 'NONE', #323, #311, #391, .T. ) ;
#27 = ORIENTED_EDGE ( 'NONE', *, *, #1, .F. ) ;
#28 = CARTESIAN_POINT ( 'NONE',  ( 0.000000000000000000, 0.000000000000000000, 0.000000000000000000 ) ) ;
#29 = CARTESIAN_POINT ( 'NONE',  ( 0.000000000000000000, 0.000000000000000000, 1.500000000000000000 ) ) ;
#30 = AXIS2_PLACEMENT_3D ( 'NONE', #407, #253, #438 ) ;
#31 = PLANE ( 'NONE',  #247 ) ;
#32 = DIRECTION ( 'NONE',  ( -0.000000000000000000, -0.000000000000000000, -1.000000000000000000 ) ) ;
#33 = PLANE ( 'NONE',  #360 ) ;
#34 = EDGE_CURVE ( 'NONE', #219, #44, #19, .T. ) ;
#35 = EDGE_CURVE ( 'NONE', #323, #44, #225, .T. ) ;
#36 = APPLICATION_PROTOCOL_DEFINITION ( 'draft international standard', 'automotive_design', 1998, #257 ) ;
#37 = ORIENTED_EDGE ( 'NONE', *, *, #138, .T. ) ;
#38 = CARTESIAN_POINT ( 'NONE',  ( 5.099999999999999645, 6.245698675651500839E-16, 1.500000000000000000 ) ) ;
#39 = VECTOR ( 'NONE', #103, 1000.000000000000114 ) ;
#40 = EDGE_CURVE ( 'NONE', #58, #370, #162, .T. ) ;
#41 =( NAMED_UNIT ( * ) SI_UNIT ( $, .STERADIAN. ) SOLID_ANGLE_UNIT ( ) );
#42 = AXIS2_PLACEMENT_3D ( 'NONE', #230, #147, #274 ) ;
#43 = AXIS2_PLACEMENT_3D ( 'NONE', #197, #131, #6 ) ;
#44 = VERTEX_POINT ( 'NONE', #50 ) ;
#45 = LINE ( 'NONE', #266, #126 ) ;
#46 = CARTESIAN_POINT ( 'NONE',  ( 3.570000000000000284, 3.569999999999999396, 0.6399999999999999023 ) ) ;
#47 = DIRECTION ( 'NONE',  ( 1.000000000000000000, 0.000000000000000000, 0.000000000000000000 ) ) ;
#48 = VECTOR ( 'NONE', #326, 1000.000000000000000 ) ;
#49 = CARTESIAN_POINT ( 'NONE',  ( 3.570000000000000284, -3.570000000000000284, 0.000000000000000000 ) ) ;
#50 = CARTESIAN_POINT ( 'NONE',  ( -6.019999999999999574, 0.000000000000000000, 0.6500000000000000222 ) ) ;
#51 = EDGE_LOOP ( 'NONE', ( #122, #486, #94, #435 ) ) ;
#52 = FACE_OUTER_BOUND ( 'NONE', #51, .T. ) ;
#53 = EDGE_LOOP ( 'NONE', ( #172, #319, #398, #450 ) ) ;
#54 = VERTEX_POINT ( 'NONE', #227 ) ;
#55 = EDGE_LOOP ( 'NONE', ( #133, #402, #15, #192 ) ) ;
#56 = DIRECTION ( 'NONE',  ( -1.000000000000000000, 0.000000000000000000, 0.000000000000000000 ) ) ;
#57 = ORIENTED_EDGE ( 'NONE', *, *, #119, .T. ) ;
#58 = VERTEX_POINT ( 'NONE', #385 ) ;
#59 = ADVANCED_FACE ( 'NONE', ( #9, #267 ), #429, .F. ) ;
#60 = DIRECTION ( 'NONE',  ( 1.000000000000000000, 0.000000000000000000, 0.000000000000000000 ) ) ;
#61 = DIRECTION ( 'NONE',  ( 1.000000000000000000, 0.000000000000000000, -0.000000000000000000 ) ) ;
#62 = ORIENTED_EDGE ( 'NONE', *, *, #35, .F. ) ;
#63 = DIRECTION ( 'NONE',  ( 1.000000000000000000, 0.000000000000000000, -0.000000000000000000 ) ) ;
#64 = LINE ( 'NONE', #478, #285 ) ;
#65 = CARTESIAN_POINT ( 'NONE',  ( -3.569999999999999396, -3.570000000000000284, 0.000000000000000000 ) ) ;
#66 = DIRECTION ( 'NONE',  ( -0.000000000000000000, -1.000000000000000000, -0.000000000000000000 ) ) ;
#67 = AXIS2_PLACEMENT_3D ( 'NONE', #171, #286, #209 ) ;
#68 = CARTESIAN_POINT ( 'NONE',  ( 0.000000000000000000, 0.000000000000000000, 0.6399999999999999023 ) ) ;
#69 = ADVANCED_FACE ( 'NONE', ( #89 ), #423, .T. ) ;
#70 = ORIENTED_EDGE ( 'NONE', *, *, #34, .T. ) ;
#71 = ORIENTED_EDGE ( 'NONE', *, *, #187, .T. ) ;
#72 = AXIS2_PLACEMENT_3D ( 'NONE', #410, #475, #483 ) ;
#73 = ADVANCED_FACE ( 'NONE', ( #185, #465 ), #238, .T. ) ;
#74 = AXIS2_PLACEMENT_3D ( 'NONE', #245, #173, #376 ) ;
#75 = MANIFOLD_SOLID_BREP ( '倒角1', #468 ) ;
#76 =( GEOMETRIC_REPRESENTATION_CONTEXT ( 3 ) GLOBAL_UNCERTAINTY_ASSIGNED_CONTEXT ( ( #336 ) ) GLOBAL_UNIT_ASSIGNED_CONTEXT ( ( #262, #382, #143 ) ) REPRESENTATION_CONTEXT ( 'NONE', 'WORKASPACE' ) );
#77 = AXIS2_PLACEMENT_3D ( 'NONE', #17, #233, #307 ) ;
#78 = ADVANCED_FACE ( 'NONE', ( #174, #322 ), #129, .T. ) ;
#79 = DIRECTION ( 'NONE',  ( -0.000000000000000000, -0.000000000000000000, -1.000000000000000000 ) ) ;
#80 = CARTESIAN_POINT ( 'NONE',  ( -3.569999999999999396, -3.570000000000000284, 10.73748483534389919 ) ) ;
#81 =( LENGTH_UNIT ( ) NAMED_UNIT ( * ) SI_UNIT ( .MILLI., .METRE. ) );
#82 = CARTESIAN_POINT ( 'NONE',  ( -6.019999999999999574, 0.000000000000000000, 1.500000000000000000 ) ) ;
#83 = CARTESIAN_POINT ( 'NONE',  ( 0.000000000000000000, 0.000000000000000000, 0.6500000000000000222 ) ) ;
#84 = FACE_OUTER_BOUND ( 'NONE', #377, .T. ) ;
#85 = DIRECTION ( 'NONE',  ( 1.000000000000000000, 0.000000000000000000, 0.000000000000000000 ) ) ;
#86 = CIRCLE ( 'NONE', #67, 8.000000000000000000 ) ;
#87 = ORIENTED_EDGE ( 'NONE', *, *, #218, .T. ) ;
#88 = LINE ( 'NONE', #241, #453 ) ;
#89 = FACE_OUTER_BOUND ( 'NONE', #297, .T. ) ;
#90 = ORIENTED_EDGE ( 'NONE', *, *, #479, .F. ) ;
#91 = ORIENTED_EDGE ( 'NONE', *, *, #119, .F. ) ;
#92 = DIRECTION ( 'NONE',  ( -0.000000000000000000, -0.000000000000000000, -1.000000000000000000 ) ) ;
#93 = CARTESIAN_POINT ( 'NONE',  ( -3.569999999999999840, 3.569999999999999396, 0.6399999999999999023 ) ) ;
#94 = ORIENTED_EDGE ( 'NONE', *, *, #106, .F. ) ;
#95 = VERTEX_POINT ( 'NONE', #366 ) ;
#96 = DIRECTION ( 'NONE',  ( -1.000000000000000000, -0.000000000000000000, -0.000000000000000000 ) ) ;
#97 = CARTESIAN_POINT ( 'NONE',  ( 3.570000000000000284, -3.570000000000000284, 10.73748483534389919 ) ) ;
#98 = MECHANICAL_DESIGN_GEOMETRIC_PRESENTATION_REPRESENTATION (  '', ( #417 ), #76 ) ;
#99 = ORIENTED_EDGE ( 'NONE', *, *, #403, .T. ) ;
#100 = CIRCLE ( 'NONE', #108, 8.000000000000000000 ) ;
#101 = LINE ( 'NONE', #477, #180 ) ;
#102 = DIRECTION ( 'NONE',  ( 1.000000000000000000, 0.000000000000000000, 0.000000000000000000 ) ) ;
#103 = DIRECTION ( 'NONE',  ( -0.7071067811865536790, 8.659560562355009279E-17, 0.7071067811865413555 ) ) ;
#104 = LINE ( 'NONE', #369, #348 ) ;
#105 = EDGE_CURVE ( 'NONE', #13, #436, #145, .T. ) ;
#106 = EDGE_CURVE ( 'NONE', #95, #121, #104, .T. ) ;
#107 = LINE ( 'NONE', #413, #287 ) ;
#108 = AXIS2_PLACEMENT_3D ( 'NONE', #201, #321, #47 ) ;
#109 = SHAPE_DEFINITION_REPRESENTATION ( #229, #485 ) ;
#110 = ORIENTED_EDGE ( 'NONE', *, *, #235, .T. ) ;
#111 = EDGE_CURVE ( 'NONE', #310, #279, #300, .T. ) ;
#112 = PRODUCT_CONTEXT ( 'NONE', #257, 'mechanical' ) ;
#113 = AXIS2_PLACEMENT_3D ( 'NONE', #464, #160, #149 ) ;
#114 = ADVANCED_FACE ( 'NONE', ( #412 ), #316, .F. ) ;
#115 = AXIS2_PLACEMENT_3D ( 'NONE', #393, #422, #56 ) ;
#116 = SURFACE_STYLE_USAGE ( .BOTH. , #303 ) ;
#117 = CARTESIAN_POINT ( 'NONE',  ( -3.569999999999999840, -3.570000000000000284, 0.6399999999999999023 ) ) ;
#118 = DIRECTION ( 'NONE',  ( 0.000000000000000000, 1.000000000000000000, 0.000000000000000000 ) ) ;
#119 = EDGE_CURVE ( 'NONE', #155, #320, #168, .T. ) ;
#120 = DIRECTION ( 'NONE',  ( -0.000000000000000000, -1.000000000000000000, 0.000000000000000000 ) ) ;
#121 = VERTEX_POINT ( 'NONE', #401 ) ;
#122 = ORIENTED_EDGE ( 'NONE', *, *, #290, .T. ) ;
#123 = DIRECTION ( 'NONE',  ( -1.000000000000000000, 0.000000000000000000, 0.000000000000000000 ) ) ;
#124 = ORIENTED_EDGE ( 'NONE', *, *, #199, .F. ) ;
#125 = EDGE_LOOP ( 'NONE', ( #99, #283, #408, #200 ) ) ;
#126 = VECTOR ( 'NONE', #120, 1000.000000000000000 ) ;
#127 = ORIENTED_EDGE ( 'NONE', *, *, #343, .T. ) ;
#128 = CARTESIAN_POINT ( 'NONE',  ( 8.000000000000000000, 9.797174393178825657E-16, 0.6500000000000000222 ) ) ;
#129 = PLANE ( 'NONE',  #341 ) ;
#130 = ORIENTED_EDGE ( 'NONE', *, *, #146, .T. ) ;
#131 = DIRECTION ( 'NONE',  ( 1.000000000000000000, -0.000000000000000000, 0.000000000000000000 ) ) ;
#132 =( NAMED_UNIT ( * ) SI_UNIT ( $, .STERADIAN. ) SOLID_ANGLE_UNIT ( ) );
#133 = ORIENTED_EDGE ( 'NONE', *, *, #166, .T. ) ;
#134 = FACE_BOUND ( 'NONE', #205, .T. ) ;
#135 = AXIS2_PLACEMENT_3D ( 'NONE', #68, #215, #60 ) ;
#136 = DIRECTION ( 'NONE',  ( 0.000000000000000000, 0.000000000000000000, 1.000000000000000000 ) ) ;
#137 = LINE ( 'NONE', #202, #214 ) ;
#138 = EDGE_CURVE ( 'NONE', #279, #310, #86, .T. ) ;
#139 = DIRECTION ( 'NONE',  ( -0.000000000000000000, 1.000000000000000000, -0.000000000000000000 ) ) ;
#140 = VECTOR ( 'NONE', #394, 1000.000000000000000 ) ;
#141 = DIRECTION ( 'NONE',  ( -1.000000000000000000, 0.000000000000000000, 0.000000000000000000 ) ) ;
#142 = EDGE_CURVE ( 'NONE', #436, #363, #64, .T. ) ;
#143 =( NAMED_UNIT ( * ) SI_UNIT ( $, .STERADIAN. ) SOLID_ANGLE_UNIT ( ) );
#144 = SURFACE_STYLE_USAGE ( .BOTH. , #381 ) ;
#145 = CIRCLE ( 'NONE', #72, 5.099999999999999645 ) ;
#146 = EDGE_CURVE ( 'NONE', #216, #395, #337, .T. ) ;
#147 = DIRECTION ( 'NONE',  ( -1.000000000000000000, 0.000000000000000000, -0.000000000000000000 ) ) ;
#148 = AXIS2_PLACEMENT_3D ( 'NONE', #83, #79, #157 ) ;
#149 = DIRECTION ( 'NONE',  ( -1.000000000000000000, 0.000000000000000000, 0.000000000000000000 ) ) ;
#150 = VECTOR ( 'NONE', #212, 1000.000000000000000 ) ;
#151 = ORIENTED_EDGE ( 'NONE', *, *, #187, .F. ) ;
#152 = EDGE_CURVE ( 'NONE', #58, #175, #137, .T. ) ;
#153 = PLANE ( 'NONE',  #43 ) ;
#154 = LINE ( 'NONE', #46, #184 ) ;
#155 = VERTEX_POINT ( 'NONE', #213 ) ;
#156 = DIRECTION ( 'NONE',  ( -0.000000000000000000, 1.000000000000000000, 0.000000000000000000 ) ) ;
#157 = DIRECTION ( 'NONE',  ( -1.000000000000000000, 0.000000000000000000, 0.000000000000000000 ) ) ;
#158 = ORIENTED_EDGE ( 'NONE', *, *, #457, .T. ) ;
#159 = ORIENTED_EDGE ( 'NONE', *, *, #111, .F. ) ;
#160 = DIRECTION ( 'NONE',  ( -0.000000000000000000, -0.000000000000000000, -1.000000000000000000 ) ) ;
#161 = AXIS2_PLACEMENT_3D ( 'NONE', #182, #296, #217 ) ;
#162 = LINE ( 'NONE', #354, #456 ) ;
#163 = ORIENTED_EDGE ( 'NONE', *, *, #263, .T. ) ;
#164 = AXIS2_PLACEMENT_3D ( 'NONE', #21, #25, #102 ) ;
#165 = ORIENTED_EDGE ( 'NONE', *, *, #152, .T. ) ;
#166 = EDGE_CURVE ( 'NONE', #436, #13, #224, .T. ) ;
#167 = DIRECTION ( 'NONE',  ( 0.7071067811865536790, 0.000000000000000000, 0.7071067811865413555 ) ) ;
#168 = LINE ( 'NONE', #97, #48 ) ;
#169 = ORIENTED_EDGE ( 'NONE', *, *, #445, .T. ) ;
#170 = CARTESIAN_POINT ( 'NONE',  ( -5.400000000000005684, 6.613092715395713383E-16, 1.500000000000000000 ) ) ;
#171 = CARTESIAN_POINT ( 'NONE',  ( 0.000000000000000000, 0.000000000000000000, 0.6500000000000000222 ) ) ;
#172 = ORIENTED_EDGE ( 'NONE', *, *, #383, .F. ) ;
#173 = DIRECTION ( 'NONE',  ( -0.000000000000000000, -0.000000000000000000, -1.000000000000000000 ) ) ;
#174 = FACE_BOUND ( 'NONE', #404, .T. ) ;
#175 = VERTEX_POINT ( 'NONE', #93 ) ;
#176 =( GEOMETRIC_REPRESENTATION_CONTEXT ( 3 ) GLOBAL_UNCERTAINTY_ASSIGNED_CONTEXT ( ( #259 ) ) GLOBAL_UNIT_ASSIGNED_CONTEXT ( ( #181, #220, #41 ) ) REPRESENTATION_CONTEXT ( 'NONE', 'WORKASPACE' ) );
#177 = LINE ( 'NONE', #335, #441 ) ;
#178 = CARTESIAN_POINT ( 'NONE',  ( 0.000000000000000000, 0.000000000000000000, 1.199999999999999289 ) ) ;
#179 = DIRECTION ( 'NONE',  ( -0.000000000000000000, -0.000000000000000000, -1.000000000000000000 ) ) ;
#180 = VECTOR ( 'NONE', #327, 1000.000000000000000 ) ;
#181 =( LENGTH_UNIT ( ) NAMED_UNIT ( * ) SI_UNIT ( .MILLI., .METRE. ) );
#182 = CARTESIAN_POINT ( 'NONE',  ( 0.000000000000000000, 0.000000000000000000, 0.000000000000000000 ) ) ;
#183 = ADVANCED_FACE ( 'NONE', ( #242 ), #362, .F. ) ;
#184 = VECTOR ( 'NONE', #118, 1000.000000000000000 ) ;
#185 = FACE_BOUND ( 'NONE', #207, .T. ) ;
#186 = CYLINDRICAL_SURFACE ( 'NONE', #113, 6.019999999999999574 ) ;
#187 = EDGE_CURVE ( 'NONE', #473, #54, #100, .T. ) ;
#188 = CARTESIAN_POINT ( 'NONE',  ( 5.099999999999999645, 6.245698675651500839E-16, 1.199999999999999289 ) ) ;
#189 = CIRCLE ( 'NONE', #384, 6.019999999999999574 ) ;
#190 = FACE_OUTER_BOUND ( 'NONE', #53, .T. ) ;
#191 = VECTOR ( 'NONE', #452, 1000.000000000000000 ) ;
#192 = ORIENTED_EDGE ( 'NONE', *, *, #142, .F. ) ;
#193 = LINE ( 'NONE', #80, #414 ) ;
#194 = CARTESIAN_POINT ( 'NONE',  ( 0.000000000000000000, 0.000000000000000000, 0.000000000000000000 ) ) ;
#195 = EDGE_LOOP ( 'NONE', ( #430, #169, #70, #62 ) ) ;
#196 = ORIENTED_EDGE ( 'NONE', *, *, #40, .T. ) ;
#197 = CARTESIAN_POINT ( 'NONE',  ( -3.569999999999999840, -4.371989072956050390E-16, 10.73748483534389919 ) ) ;
#198 = ORIENTED_EDGE ( 'NONE', *, *, #418, .T. ) ;
#199 = EDGE_CURVE ( 'NONE', #13, #216, #232, .T. ) ;
#200 = ORIENTED_EDGE ( 'NONE', *, *, #106, .T. ) ;
#201 = CARTESIAN_POINT ( 'NONE',  ( 0.000000000000000000, 0.000000000000000000, 0.000000000000000000 ) ) ;
#202 = CARTESIAN_POINT ( 'NONE',  ( -3.569999999999999840, 3.569999999999999396, 0.6399999999999999023 ) ) ;
#203 = ORIENTED_EDGE ( 'NONE', *, *, #34, .F. ) ;
#204 = CONICAL_SURFACE ( 'NONE', #231, 5.099999999999999645, 0.7853981633974570498 ) ;
#205 = EDGE_LOOP ( 'NONE', ( #275, #203 ) ) ;
#206 = CARTESIAN_POINT ( 'NONE',  ( 3.570000000000000284, 3.569999999999999396, 0.000000000000000000 ) ) ;
#207 = EDGE_LOOP ( 'NONE', ( #130, #431 ) ) ;
#208 = DIRECTION ( 'NONE',  ( 0.000000000000000000, -1.000000000000000000, 0.000000000000000000 ) ) ;
#209 = DIRECTION ( 'NONE',  ( 1.000000000000000000, 0.000000000000000000, 0.000000000000000000 ) ) ;
#210 = ADVANCED_FACE ( 'NONE', ( #281 ), #459, .T. ) ;
#211 = ORIENTED_EDGE ( 'NONE', *, *, #271, .T. ) ;
#212 = DIRECTION ( 'NONE',  ( 1.000000000000000000, 0.000000000000000000, 0.000000000000000000 ) ) ;
#213 = CARTESIAN_POINT ( 'NONE',  ( 3.570000000000000284, -3.570000000000000284, 0.6399999999999999023 ) ) ;
#214 = VECTOR ( 'NONE', #291, 1000.000000000000000 ) ;
#215 = DIRECTION ( 'NONE',  ( 0.000000000000000000, 0.000000000000000000, 1.000000000000000000 ) ) ;
#216 = VERTEX_POINT ( 'NONE', #312 ) ;
#217 = DIRECTION ( 'NONE',  ( 1.000000000000000000, 0.000000000000000000, 0.000000000000000000 ) ) ;
#218 = EDGE_CURVE ( 'NONE', #279, #473, #88, .T. ) ;
#219 = VERTEX_POINT ( 'NONE', #268 ) ;
#220 =( NAMED_UNIT ( * ) PLANE_ANGLE_UNIT ( ) SI_UNIT ( $, .RADIAN. ) );
#221 = VECTOR ( 'NONE', #139, 1000.000000000000000 ) ;
#222 = FILL_AREA_STYLE ('',( #416 ) ) ;
#223 = CARTESIAN_POINT ( 'NONE',  ( 0.000000000000000000, 0.000000000000000000, 0.6500000000000000222 ) ) ;
#224 = CIRCLE ( 'NONE', #373, 5.099999999999999645 ) ;
#225 = LINE ( 'NONE', #420, #140 ) ;
#226 = DIRECTION ( 'NONE',  ( -0.000000000000000000, -0.000000000000000000, -1.000000000000000000 ) ) ;
#227 = CARTESIAN_POINT ( 'NONE',  ( 8.000000000000000000, 9.797174393178825657E-16, 0.000000000000000000 ) ) ;
#228 = DIRECTION ( 'NONE',  ( 0.000000000000000000, 0.000000000000000000, 1.000000000000000000 ) ) ;
#229 = PRODUCT_DEFINITION_SHAPE ( 'NONE', 'NONE',  #342 ) ;
#230 = CARTESIAN_POINT ( 'NONE',  ( 3.570000000000000284, 3.569999999999999396, 10.73748483534389919 ) ) ;
#231 = AXIS2_PLACEMENT_3D ( 'NONE', #386, #8, #400 ) ;
#232 = LINE ( 'NONE', #474, #427 ) ;
#233 = DIRECTION ( 'NONE',  ( 0.000000000000000000, 0.000000000000000000, 1.000000000000000000 ) ) ;
#234 = ORIENTED_EDGE ( 'NONE', *, *, #35, .T. ) ;
#235 = EDGE_CURVE ( 'NONE', #44, #219, #189, .T. ) ;
#236 = EDGE_CURVE ( 'NONE', #314, #121, #193, .T. ) ;
#237 = DIRECTION ( 'NONE',  ( 1.000000000000000000, 0.000000000000000000, 0.000000000000000000 ) ) ;
#238 = PLANE ( 'NONE',  #379 ) ;
#239 = ORIENTED_EDGE ( 'NONE', *, *, #383, .T. ) ;
#240 = ORIENTED_EDGE ( 'NONE', *, *, #166, .F. ) ;
#241 = CARTESIAN_POINT ( 'NONE',  ( -8.000000000000000000, 0.000000000000000000, 0.6500000000000000222 ) ) ;
#242 = FACE_OUTER_BOUND ( 'NONE', #55, .T. ) ;
#243 = EDGE_LOOP ( 'NONE', ( #158, #163 ) ) ;
#244 = EDGE_LOOP ( 'NONE', ( #288, #387, #87, #71 ) ) ;
#245 = CARTESIAN_POINT ( 'NONE',  ( 0.000000000000000000, 0.000000000000000000, 1.500000000000000000 ) ) ;
#246 = AXIS2_PLACEMENT_3D ( 'NONE', #194, #472, #460 ) ;
#247 = AXIS2_PLACEMENT_3D ( 'NONE', #437, #208, #254 ) ;
#248 = ORIENTED_EDGE ( 'NONE', *, *, #142, .T. ) ;
#249 = ADVANCED_FACE ( 'NONE', ( #190 ), #204, .F. ) ;
#250 = CARTESIAN_POINT ( 'NONE',  ( -5.099999999999999645, 0.000000000000000000, 0.6399999999999999023 ) ) ;
#251 = ORIENTED_EDGE ( 'NONE', *, *, #152, .F. ) ;
#252 = DIRECTION ( 'NONE',  ( 0.000000000000000000, 0.000000000000000000, -1.000000000000000000 ) ) ;
#253 = DIRECTION ( 'NONE',  ( 0.000000000000000000, 0.000000000000000000, 1.000000000000000000 ) ) ;
#254 = DIRECTION ( 'NONE',  ( 0.000000000000000000, -0.000000000000000000, -1.000000000000000000 ) ) ;
#255 = AXIS2_PLACEMENT_3D ( 'NONE', #455, #425, #85 ) ;
#256 = CIRCLE ( 'NONE', #74, 5.400000000000005684 ) ;
#257 = APPLICATION_CONTEXT ( 'automotive_design' ) ;
#258 = ADVANCED_FACE ( 'NONE', ( #52 ), #153, .T. ) ;
#259 = UNCERTAINTY_MEASURE_WITH_UNIT (LENGTH_MEASURE( 1.000000000000000082E-05 ), #181, 'distance_accuracy_value', 'NONE');
#260 = CARTESIAN_POINT ( 'NONE',  ( -8.000000000000000000, 0.000000000000000000, 0.000000000000000000 ) ) ;
#261 = PRESENTATION_LAYER_ASSIGNMENT (  '', '', ( #470 ) ) ;
#262 =( LENGTH_UNIT ( ) NAMED_UNIT ( * ) SI_UNIT ( .MILLI., .METRE. ) );
#263 = EDGE_CURVE ( 'NONE', #364, #363, #480, .T. ) ;
#264 = AXIS2_PLACEMENT_3D ( 'NONE', #273, #156, #396 ) ;
#265 = PRESENTATION_STYLE_ASSIGNMENT (( #116 ) ) ;
#266 = CARTESIAN_POINT ( 'NONE',  ( -3.569999999999999840, -4.371989072956050390E-16, 0.6399999999999999023 ) ) ;
#267 = FACE_BOUND ( 'NONE', #125, .T. ) ;
#268 = CARTESIAN_POINT ( 'NONE',  ( 6.019999999999999574, 7.372373730867065267E-16, 0.6500000000000000222 ) ) ;
#269 = FACE_OUTER_BOUND ( 'NONE', #244, .T. ) ;
#270 = ORIENTED_EDGE ( 'NONE', *, *, #236, .F. ) ;
#271 = EDGE_CURVE ( 'NONE', #311, #323, #295, .T. ) ;
#272 =( GEOMETRIC_REPRESENTATION_CONTEXT ( 3 ) GLOBAL_UNCERTAINTY_ASSIGNED_CONTEXT ( ( #375 ) ) GLOBAL_UNIT_ASSIGNED_CONTEXT ( ( #81, #374, #132 ) ) REPRESENTATION_CONTEXT ( 'NONE', 'WORKASPACE' ) );
#273 = CARTESIAN_POINT ( 'NONE',  ( -3.569999999999999396, -3.570000000000000284, 10.73748483534389919 ) ) ;
#274 = DIRECTION ( 'NONE',  ( -0.000000000000000000, 0.000000000000000000, 1.000000000000000000 ) ) ;
#275 = ORIENTED_EDGE ( 'NONE', *, *, #235, .F. ) ;
#276 = ORIENTED_EDGE ( 'NONE', *, *, #389, .T. ) ;
#277 = CARTESIAN_POINT ( 'NONE',  ( 6.019999999999999574, 7.372373730867065267E-16, 1.500000000000000000 ) ) ;
#278 = FILL_AREA_STYLE_COLOUR ( '', #440 ) ;
#279 = VERTEX_POINT ( 'NONE', #356 ) ;
#280 = EDGE_LOOP ( 'NONE', ( #127, #57, #358, #270 ) ) ;
#281 = FACE_OUTER_BOUND ( 'NONE', #280, .T. ) ;
#282 = CARTESIAN_POINT ( 'NONE',  ( 0.000000000000000000, 0.000000000000000000, 0.6399999999999999023 ) ) ;
#283 = ORIENTED_EDGE ( 'NONE', *, *, #421, .T. ) ;
#284 = CARTESIAN_POINT ( 'NONE',  ( 0.000000000000000000, 0.000000000000000000, 0.6500000000000000222 ) ) ;
#285 = VECTOR ( 'NONE', #443, 1000.000000000000000 ) ;
#286 = DIRECTION ( 'NONE',  ( 0.000000000000000000, 0.000000000000000000, 1.000000000000000000 ) ) ;
#287 = VECTOR ( 'NONE', #24, 1000.000000000000000 ) ;
#288 = ORIENTED_EDGE ( 'NONE', *, *, #418, .F. ) ;
#289 = DIRECTION ( 'NONE',  ( 1.000000000000000000, 0.000000000000000000, 0.000000000000000000 ) ) ;
#290 = EDGE_CURVE ( 'NONE', #175, #314, #45, .T. ) ;
#291 = DIRECTION ( 'NONE',  ( -1.000000000000000000, 0.000000000000000000, 0.000000000000000000 ) ) ;
#292 = LINE ( 'NONE', #411, #39 ) ;
#293 = ORIENTED_EDGE ( 'NONE', *, *, #263, .F. ) ;
#294 = ADVANCED_FACE ( 'NONE', ( #20 ), #424, .T. ) ;
#295 = CIRCLE ( 'NONE', #392, 6.019999999999999574 ) ;
#296 = DIRECTION ( 'NONE',  ( 0.000000000000000000, 0.000000000000000000, 1.000000000000000000 ) ) ;
#297 = EDGE_LOOP ( 'NONE', ( #159, #198, #276, #357 ) ) ;
#298 = LINE ( 'NONE', #38, #191 ) ;
#299 = ADVANCED_FACE ( 'NONE', ( #353 ), #186, .T. ) ;
#300 = CIRCLE ( 'NONE', #30, 8.000000000000000000 ) ;
#301 = SURFACE_STYLE_FILL_AREA ( #222 ) ;
#302 = ADVANCED_FACE ( 'NONE', ( #84 ), #317, .F. ) ;
#303 = SURFACE_SIDE_STYLE ('',( #5 ) ) ;
#304 = PRODUCT_DEFINITION_FORMATION_WITH_SPECIFIED_SOURCE ( '任何', '', #308, .NOT_KNOWN. ) ;
#305 = CIRCLE ( 'NONE', #380, 8.000000000000000000 ) ;
#306 = DIRECTION ( 'NONE',  ( -1.000000000000000000, 0.000000000000000000, 0.000000000000000000 ) ) ;
#307 = DIRECTION ( 'NONE',  ( 1.000000000000000000, 0.000000000000000000, 0.000000000000000000 ) ) ;
#308 = PRODUCT ( '专用定位片-7070-尺寸精调', '专用定位片-7070-尺寸精调', '', ( #112 ) ) ;
#309 = CARTESIAN_POINT ( 'NONE',  ( 0.000000000000000000, 0.000000000000000000, 0.6399999999999999023 ) ) ;
#310 = VERTEX_POINT ( 'NONE', #128 ) ;
#311 = VERTEX_POINT ( 'NONE', #277 ) ;
#312 = CARTESIAN_POINT ( 'NONE',  ( 5.400000000000005684, 0.000000000000000000, 1.500000000000000000 ) ) ;
#313 = PLANE ( 'NONE',  #42 ) ;
#314 = VERTEX_POINT ( 'NONE', #117 ) ;
#315 = ORIENTED_EDGE ( 'NONE', *, *, #290, .F. ) ;
#316 = CONICAL_SURFACE ( 'NONE', #164, 5.099999999999999645, 0.7853981633974570498 ) ;
#317 = CYLINDRICAL_SURFACE ( 'NONE', #405, 5.099999999999999645 ) ;
#318 = DIRECTION ( 'NONE',  ( 0.000000000000000000, 0.000000000000000000, -1.000000000000000000 ) ) ;
#319 = ORIENTED_EDGE ( 'NONE', *, *, #105, .F. ) ;
#320 = VERTEX_POINT ( 'NONE', #49 ) ;
#321 = DIRECTION ( 'NONE',  ( 0.000000000000000000, 0.000000000000000000, 1.000000000000000000 ) ) ;
#322 = FACE_OUTER_BOUND ( 'NONE', #243, .T. ) ;
#323 = VERTEX_POINT ( 'NONE', #82 ) ;
#324 = APPLICATION_PROTOCOL_DEFINITION ( 'draft international standard', 'automotive_design', 1998, #415 ) ;
#325 = CARTESIAN_POINT ( 'NONE',  ( -3.569999999999999840, 3.569999999999999396, 10.73748483534389919 ) ) ;
#326 = DIRECTION ( 'NONE',  ( 0.000000000000000000, 0.000000000000000000, -1.000000000000000000 ) ) ;
#327 = DIRECTION ( 'NONE',  ( 1.000000000000000000, 0.000000000000000000, -0.000000000000000000 ) ) ;
#328 = MECHANICAL_DESIGN_GEOMETRIC_PRESENTATION_REPRESENTATION (  '', ( #470 ), #272 ) ;
#329 = DIRECTION ( 'NONE',  ( 0.000000000000000000, 0.000000000000000000, 1.000000000000000000 ) ) ;
#330 = AXIS2_PLACEMENT_3D ( 'NONE', #223, #4, #141 ) ;
#331 = EDGE_LOOP ( 'NONE', ( #165, #18, #463, #444 ) ) ;
#332 = LINE ( 'NONE', #484, #221 ) ;
#333 = DIRECTION ( 'NONE',  ( 0.000000000000000000, 0.000000000000000000, 1.000000000000000000 ) ) ;
#334 = EDGE_CURVE ( 'NONE', #395, #216, #256, .T. ) ;
#335 = CARTESIAN_POINT ( 'NONE',  ( 8.000000000000000000, 9.797174393178825657E-16, 0.6500000000000000222 ) ) ;
#336 = UNCERTAINTY_MEASURE_WITH_UNIT (LENGTH_MEASURE( 1.000000000000000082E-05 ), #262, 'distance_accuracy_value', 'NONE');
#337 = CIRCLE ( 'NONE', #449, 5.400000000000005684 ) ;
#338 = ORIENTED_EDGE ( 'NONE', *, *, #1, .T. ) ;
#339 = ADVANCED_FACE ( 'NONE', ( #134, #368 ), #33, .T. ) ;
#340 = PRESENTATION_STYLE_ASSIGNMENT (( #144 ) ) ;
#341 = AXIS2_PLACEMENT_3D ( 'NONE', #282, #329, #61 ) ;
#342 = PRODUCT_DEFINITION ( '未知', '', #304, #345 ) ;
#343 = EDGE_CURVE ( 'NONE', #314, #155, #101, .T. ) ;
#344 = FILL_AREA_STYLE ('',( #278 ) ) ;
#345 = PRODUCT_DEFINITION_CONTEXT ( 'detailed design', #415, 'design' ) ;
#346 = DIRECTION ( 'NONE',  ( -0.000000000000000000, -0.000000000000000000, -1.000000000000000000 ) ) ;
#347 = CARTESIAN_POINT ( 'NONE',  ( 0.000000000000000000, 0.000000000000000000, 1.500000000000000000 ) ) ;
#348 = VECTOR ( 'NONE', #66, 1000.000000000000000 ) ;
#349 = COLOUR_RGB ( '',1.000000000000000000, 1.000000000000000000, 1.000000000000000000 ) ;
#350 = DIRECTION ( 'NONE',  ( 0.000000000000000000, 0.000000000000000000, 1.000000000000000000 ) ) ;
#351 = EDGE_CURVE ( 'NONE', #175, #95, #371, .T. ) ;
#352 = ORIENTED_EDGE ( 'NONE', *, *, #343, .F. ) ;
#353 = FACE_OUTER_BOUND ( 'NONE', #195, .T. ) ;
#354 = CARTESIAN_POINT ( 'NONE',  ( 3.570000000000000284, 3.569999999999999396, 10.73748483534389919 ) ) ;
#355 = EDGE_LOOP ( 'NONE', ( #338, #196, #426, #91 ) ) ;
#356 = CARTESIAN_POINT ( 'NONE',  ( -8.000000000000000000, 0.000000000000000000, 0.6500000000000000222 ) ) ;
#357 = ORIENTED_EDGE ( 'NONE', *, *, #218, .F. ) ;
#358 = ORIENTED_EDGE ( 'NONE', *, *, #403, .F. ) ;
#359 = ORIENTED_EDGE ( 'NONE', *, *, #111, .T. ) ;
#360 = AXIS2_PLACEMENT_3D ( 'NONE', #284, #442, #63 ) ;
#361 = DIRECTION ( 'NONE',  ( 0.000000000000000000, 0.000000000000000000, 1.000000000000000000 ) ) ;
#362 = CYLINDRICAL_SURFACE ( 'NONE', #419, 5.099999999999999645 ) ;
#363 = VERTEX_POINT ( 'NONE', #250 ) ;
#364 = VERTEX_POINT ( 'NONE', #482 ) ;
#365 = CARTESIAN_POINT ( 'NONE',  ( -5.099999999999999645, 0.000000000000000000, 1.199999999999999289 ) ) ;
#366 = CARTESIAN_POINT ( 'NONE',  ( -3.569999999999999840, 3.569999999999999396, 0.000000000000000000 ) ) ;
#367 = EDGE_LOOP ( 'NONE', ( #439, #23, #234, #110 ) ) ;
#368 = FACE_OUTER_BOUND ( 'NONE', #462, .T. ) ;
#369 = CARTESIAN_POINT ( 'NONE',  ( -3.569999999999999840, -4.371989072956050390E-16, 0.000000000000000000 ) ) ;
#370 = VERTEX_POINT ( 'NONE', #206 ) ;
#371 = LINE ( 'NONE', #325, #458 ) ;
#372 = PRODUCT_RELATED_PRODUCT_CATEGORY ( 'part', '', ( #308 ) ) ;
#373 = AXIS2_PLACEMENT_3D ( 'NONE', #178, #333, #434 ) ;
#374 =( NAMED_UNIT ( * ) PLANE_ANGLE_UNIT ( ) SI_UNIT ( $, .RADIAN. ) );
#375 = UNCERTAINTY_MEASURE_WITH_UNIT (LENGTH_MEASURE( 1.000000000000000082E-05 ), #81, 'distance_accuracy_value', 'NONE');
#376 = DIRECTION ( 'NONE',  ( 1.000000000000000000, 0.000000000000000000, 0.000000000000000000 ) ) ;
#377 = EDGE_LOOP ( 'NONE', ( #90, #466, #248, #293 ) ) ;
#378 = ADVANCED_FACE ( 'NONE', ( #409 ), #31, .T. ) ;
#379 = AXIS2_PLACEMENT_3D ( 'NONE', #347, #397, #390 ) ;
#380 = AXIS2_PLACEMENT_3D ( 'NONE', #28, #136, #289 ) ;
#381 = SURFACE_SIDE_STYLE ('',( #301 ) ) ;
#382 =( NAMED_UNIT ( * ) PLANE_ANGLE_UNIT ( ) SI_UNIT ( $, .RADIAN. ) );
#383 = EDGE_CURVE ( 'NONE', #436, #395, #292, .T. ) ;
#384 = AXIS2_PLACEMENT_3D ( 'NONE', #11, #350, #237 ) ;
#385 = CARTESIAN_POINT ( 'NONE',  ( 3.570000000000000284, 3.569999999999999396, 0.6399999999999999023 ) ) ;
#386 = CARTESIAN_POINT ( 'NONE',  ( 0.000000000000000000, 0.000000000000000000, 1.199999999999999289 ) ) ;
#387 = ORIENTED_EDGE ( 'NONE', *, *, #138, .F. ) ;
#388 = DIRECTION ( 'NONE',  ( 1.000000000000000000, 0.000000000000000000, 0.000000000000000000 ) ) ;
#389 = EDGE_CURVE ( 'NONE', #54, #473, #305, .T. ) ;
#390 = DIRECTION ( 'NONE',  ( 1.000000000000000000, 0.000000000000000000, -0.000000000000000000 ) ) ;
#391 = CIRCLE ( 'NONE', #255, 6.019999999999999574 ) ;
#392 = AXIS2_PLACEMENT_3D ( 'NONE', #433, #361, #461 ) ;
#393 = CARTESIAN_POINT ( 'NONE',  ( 0.000000000000000000, 0.000000000000000000, 1.500000000000000000 ) ) ;
#394 = DIRECTION ( 'NONE',  ( -0.000000000000000000, -0.000000000000000000, -1.000000000000000000 ) ) ;
#395 = VERTEX_POINT ( 'NONE', #170 ) ;
#396 = DIRECTION ( 'NONE',  ( 0.000000000000000000, -0.000000000000000000, 1.000000000000000000 ) ) ;
#397 = DIRECTION ( 'NONE',  ( 0.000000000000000000, 0.000000000000000000, 1.000000000000000000 ) ) ;
#398 = ORIENTED_EDGE ( 'NONE', *, *, #199, .T. ) ;
#399 = EDGE_LOOP ( 'NONE', ( #467, #211 ) ) ;
#400 = DIRECTION ( 'NONE',  ( 1.000000000000000000, 0.000000000000000000, 0.000000000000000000 ) ) ;
#401 = CARTESIAN_POINT ( 'NONE',  ( -3.569999999999999840, -3.570000000000000284, 0.000000000000000000 ) ) ;
#402 = ORIENTED_EDGE ( 'NONE', *, *, #479, .T. ) ;
#403 = EDGE_CURVE ( 'NONE', #121, #320, #446, .T. ) ;
#404 = EDGE_LOOP ( 'NONE', ( #315, #251, #27, #352 ) ) ;
#405 = AXIS2_PLACEMENT_3D ( 'NONE', #471, #92, #306 ) ;
#406 = CARTESIAN_POINT ( 'NONE',  ( -3.569999999999999840, 3.569999999999999396, 0.000000000000000000 ) ) ;
#407 = CARTESIAN_POINT ( 'NONE',  ( 0.000000000000000000, 0.000000000000000000, 0.6500000000000000222 ) ) ;
#408 = ORIENTED_EDGE ( 'NONE', *, *, #432, .T. ) ;
#409 = FACE_OUTER_BOUND ( 'NONE', #331, .T. ) ;
#410 = CARTESIAN_POINT ( 'NONE',  ( 0.000000000000000000, 0.000000000000000000, 1.199999999999999289 ) ) ;
#411 = CARTESIAN_POINT ( 'NONE',  ( -5.099999999999999645, 6.245698675651499853E-16, 1.199999999999999289 ) ) ;
#412 = FACE_OUTER_BOUND ( 'NONE', #10, .T. ) ;
#413 = CARTESIAN_POINT ( 'NONE',  ( 6.019999999999999574, 7.372373730867065267E-16, 1.500000000000000000 ) ) ;
#414 = VECTOR ( 'NONE', #428, 1000.000000000000000 ) ;
#415 = APPLICATION_CONTEXT ( 'automotive_design' ) ;
#416 = FILL_AREA_STYLE_COLOUR ( '', #349 ) ;
#417 = STYLED_ITEM ( 'NONE', ( #340 ), #485 ) ;
#418 = EDGE_CURVE ( 'NONE', #310, #54, #177, .T. ) ;
#419 = AXIS2_PLACEMENT_3D ( 'NONE', #16, #346, #123 ) ;
#420 = CARTESIAN_POINT ( 'NONE',  ( -6.019999999999999574, 0.000000000000000000, 1.500000000000000000 ) ) ;
#421 = EDGE_CURVE ( 'NONE', #320, #370, #332, .T. ) ;
#422 = DIRECTION ( 'NONE',  ( -0.000000000000000000, -0.000000000000000000, -1.000000000000000000 ) ) ;
#423 = CYLINDRICAL_SURFACE ( 'NONE', #148, 8.000000000000000000 ) ;
#424 = CYLINDRICAL_SURFACE ( 'NONE', #115, 6.019999999999999574 ) ;
#425 = DIRECTION ( 'NONE',  ( 0.000000000000000000, 0.000000000000000000, 1.000000000000000000 ) ) ;
#426 = ORIENTED_EDGE ( 'NONE', *, *, #421, .F. ) ;
#427 = VECTOR ( 'NONE', #167, 1000.000000000000114 ) ;
#428 = DIRECTION ( 'NONE',  ( 0.000000000000000000, 0.000000000000000000, -1.000000000000000000 ) ) ;
#429 = PLANE ( 'NONE',  #246 ) ;
#430 = ORIENTED_EDGE ( 'NONE', *, *, #271, .F. ) ;
#431 = ORIENTED_EDGE ( 'NONE', *, *, #334, .T. ) ;
#432 = EDGE_CURVE ( 'NONE', #370, #95, #448, .T. ) ;
#433 = CARTESIAN_POINT ( 'NONE',  ( 0.000000000000000000, 0.000000000000000000, 1.500000000000000000 ) ) ;
#434 = DIRECTION ( 'NONE',  ( 1.000000000000000000, 0.000000000000000000, 0.000000000000000000 ) ) ;
#435 = ORIENTED_EDGE ( 'NONE', *, *, #351, .F. ) ;
#436 = VERTEX_POINT ( 'NONE', #365 ) ;
#437 = CARTESIAN_POINT ( 'NONE',  ( -3.569999999999999840, 3.569999999999999396, 10.73748483534389919 ) ) ;
#438 = DIRECTION ( 'NONE',  ( 1.000000000000000000, 0.000000000000000000, 0.000000000000000000 ) ) ;
#439 = ORIENTED_EDGE ( 'NONE', *, *, #445, .F. ) ;
#440 = COLOUR_RGB ( '',1.000000000000000000, 1.000000000000000000, 1.000000000000000000 ) ;
#441 = VECTOR ( 'NONE', #179, 1000.000000000000000 ) ;
#442 = DIRECTION ( 'NONE',  ( 0.000000000000000000, 0.000000000000000000, 1.000000000000000000 ) ) ;
#443 = DIRECTION ( 'NONE',  ( -0.000000000000000000, -0.000000000000000000, -1.000000000000000000 ) ) ;
#444 = ORIENTED_EDGE ( 'NONE', *, *, #40, .F. ) ;
#445 = EDGE_CURVE ( 'NONE', #311, #219, #107, .T. ) ;
#446 = LINE ( 'NONE', #65, #150 ) ;
#447 = DIRECTION ( 'NONE',  ( 1.000000000000000000, 0.000000000000000000, 0.000000000000000000 ) ) ;
#448 = LINE ( 'NONE', #406, #7 ) ;
#449 = AXIS2_PLACEMENT_3D ( 'NONE', #29, #32, #447 ) ;
#450 = ORIENTED_EDGE ( 'NONE', *, *, #334, .F. ) ;
#451 = ORIENTED_EDGE ( 'NONE', *, *, #146, .F. ) ;
#452 = DIRECTION ( 'NONE',  ( -0.000000000000000000, -0.000000000000000000, -1.000000000000000000 ) ) ;
#453 = VECTOR ( 'NONE', #226, 1000.000000000000000 ) ;
#454 = PRESENTATION_LAYER_ASSIGNMENT (  '', '', ( #417 ) ) ;
#455 = CARTESIAN_POINT ( 'NONE',  ( 0.000000000000000000, 0.000000000000000000, 1.500000000000000000 ) ) ;
#456 = VECTOR ( 'NONE', #318, 1000.000000000000000 ) ;
#457 = EDGE_CURVE ( 'NONE', #363, #364, #481, .T. ) ;
#458 = VECTOR ( 'NONE', #252, 1000.000000000000000 ) ;
#459 = PLANE ( 'NONE',  #264 ) ;
#460 = DIRECTION ( 'NONE',  ( 1.000000000000000000, 0.000000000000000000, -0.000000000000000000 ) ) ;
#461 = DIRECTION ( 'NONE',  ( 1.000000000000000000, 0.000000000000000000, 0.000000000000000000 ) ) ;
#462 = EDGE_LOOP ( 'NONE', ( #37, #359 ) ) ;
#463 = ORIENTED_EDGE ( 'NONE', *, *, #432, .F. ) ;
#464 = CARTESIAN_POINT ( 'NONE',  ( 0.000000000000000000, 0.000000000000000000, 1.500000000000000000 ) ) ;
#465 = FACE_OUTER_BOUND ( 'NONE', #399, .T. ) ;
#466 = ORIENTED_EDGE ( 'NONE', *, *, #105, .T. ) ;
#467 = ORIENTED_EDGE ( 'NONE', *, *, #26, .T. ) ;
#468 = CLOSED_SHELL ( 'NONE', ( #114, #183, #299, #69, #59, #469, #339, #73, #294, #302, #78, #210, #14, #378, #258, #249 ) ) ;
#469 = ADVANCED_FACE ( 'NONE', ( #269 ), #3, .T. ) ;
#470 = STYLED_ITEM ( 'NONE', ( #265 ), #75 ) ;
#471 = CARTESIAN_POINT ( 'NONE',  ( 0.000000000000000000, 0.000000000000000000, 1.500000000000000000 ) ) ;
#472 = DIRECTION ( 'NONE',  ( 0.000000000000000000, 0.000000000000000000, 1.000000000000000000 ) ) ;
#473 = VERTEX_POINT ( 'NONE', #260 ) ;
#474 = CARTESIAN_POINT ( 'NONE',  ( 5.099999999999999645, 0.000000000000000000, 1.199999999999999289 ) ) ;
#475 = DIRECTION ( 'NONE',  ( 0.000000000000000000, 0.000000000000000000, 1.000000000000000000 ) ) ;
#476 = ORIENTED_EDGE ( 'NONE', *, *, #389, .F. ) ;
#477 = CARTESIAN_POINT ( 'NONE',  ( -3.569999999999999396, -3.570000000000000284, 0.6399999999999999023 ) ) ;
#478 = CARTESIAN_POINT ( 'NONE',  ( -5.099999999999999645, 0.000000000000000000, 1.500000000000000000 ) ) ;
#479 = EDGE_CURVE ( 'NONE', #13, #364, #298, .T. ) ;
#480 = CIRCLE ( 'NONE', #2, 5.099999999999999645 ) ;
#481 = CIRCLE ( 'NONE', #135, 5.099999999999999645 ) ;
#482 = CARTESIAN_POINT ( 'NONE',  ( 5.099999999999999645, 6.245698675651500839E-16, 0.6399999999999999023 ) ) ;
#483 = DIRECTION ( 'NONE',  ( 1.000000000000000000, 0.000000000000000000, 0.000000000000000000 ) ) ;
#484 = CARTESIAN_POINT ( 'NONE',  ( 3.570000000000000284, 3.569999999999999396, 0.000000000000000000 ) ) ;
#485 = ADVANCED_BREP_SHAPE_REPRESENTATION ( '专用定位片-7070-尺寸精调', ( #75, #161 ), #176 ) ;
#486 = ORIENTED_EDGE ( 'NONE', *, *, #236, .T. ) ;
ENDSEC;
END-ISO-10303-21;
