ISO-10303-21;
HEADER;
FILE_DESCRIPTION (( 'STEP AP214' ),
    '1' );
FILE_NAME ('电池正极铜垫片.STEP',
    '2025-06-09T07:28:04',
    ( '' ),
    ( '' ),
    'SwSTEP 2.0',
    'SolidWorks 2021',
    '' );
FILE_SCHEMA (( 'AUTOMOTIVE_DESIGN' ));
ENDSEC;

DATA;
#1 = AXIS2_PLACEMENT_3D ( 'NONE', #70, #50, #212 ) ;
#2 = PLANE ( 'NONE',  #67 ) ;
#3 = DIRECTION ( 'NONE',  ( 1.000000000000000000, 0.000000000000000000, 0.000000000000000000 ) ) ;
#4 = CARTESIAN_POINT ( 'NONE',  ( 0.000000000000000000, 0.000000000000000000, 1.800000000000002931 ) ) ;
#5 = AXIS2_PLACEMENT_3D ( 'NONE', #183, #346, #314 ) ;
#6 = DIRECTION ( 'NONE',  ( 1.000000000000000000, 0.000000000000000000, 0.000000000000000000 ) ) ;
#7 = DIRECTION ( 'NONE',  ( 1.000000000000000000, 0.000000000000000000, 0.000000000000000000 ) ) ;
#8 = CARTESIAN_POINT ( 'NONE',  ( 0.000000000000000000, 0.000000000000000000, 5.400000000000000355 ) ) ;
#9 = SURFACE_STYLE_USAGE ( .BOTH. , #112 ) ;
#10 = ORIENTED_EDGE ( 'NONE', *, *, #199, .F. ) ;
#11 = PRODUCT ( '电池正极铜垫片', '电池正极铜垫片', '', ( #53 ) ) ;
#12 = LINE ( 'NONE', #104, #235 ) ;
#13 = CYLINDRICAL_SURFACE ( 'NONE', #5, 17.80000000000000071 ) ;
#14 = CIRCLE ( 'NONE', #381, 2.549999999999999822 ) ;
#15 = FACE_OUTER_BOUND ( 'NONE', #77, .T. ) ;
#16 = EDGE_CURVE ( 'NONE', #177, #162, #26, .T. ) ;
#17 = DIRECTION ( 'NONE',  ( 1.000000000000000000, 0.000000000000000000, 0.000000000000000000 ) ) ;
#18 = ORIENTED_EDGE ( 'NONE', *, *, #348, .T. ) ;
#19 = DIRECTION ( 'NONE',  ( 0.000000000000000000, 0.000000000000000000, 1.000000000000000000 ) ) ;
#20 = DIRECTION ( 'NONE',  ( 0.000000000000000000, 0.000000000000000000, 1.000000000000000000 ) ) ;
#21 = VECTOR ( 'NONE', #84, 1000.000000000000114 ) ;
#22 = CIRCLE ( 'NONE', #205, 6.099999999999999645 ) ;
#23 = EDGE_CURVE ( 'NONE', #292, #404, #14, .T. ) ;
#24 = CARTESIAN_POINT ( 'NONE',  ( 6.099999999999999645, 7.470345474798854293E-16, 5.400000000000000355 ) ) ;
#25 = ORIENTED_EDGE ( 'NONE', *, *, #215, .F. ) ;
#26 = CIRCLE ( 'NONE', #119, 14.80000000000000071 ) ;
#27 = ORIENTED_EDGE ( 'NONE', *, *, #135, .F. ) ;
#28 = CARTESIAN_POINT ( 'NONE',  ( -14.80000000000000071, 0.000000000000000000, 5.400000000000000355 ) ) ;
#29 = ORIENTED_EDGE ( 'NONE', *, *, #60, .T. ) ;
#30 = CYLINDRICAL_SURFACE ( 'NONE', #332, 6.099999999999999645 ) ;
#31 = EDGE_LOOP ( 'NONE', ( #232, #164, #160, #218 ) ) ;
#32 = AXIS2_PLACEMENT_3D ( 'NONE', #174, #272, #401 ) ;
#33 = EDGE_CURVE ( 'NONE', #162, #177, #243, .T. ) ;
#34 = LINE ( 'NONE', #62, #116 ) ;
#35 = ADVANCED_FACE ( 'NONE', ( #210 ), #13, .T. ) ;
#36 = ORIENTED_EDGE ( 'NONE', *, *, #42, .F. ) ;
#37 = CARTESIAN_POINT ( 'NONE',  ( -17.80000000000000071, 0.000000000000000000, 0.000000000000000000 ) ) ;
#38 = DIRECTION ( 'NONE',  ( 0.000000000000000000, 0.000000000000000000, 1.000000000000000000 ) ) ;
#39 = DIRECTION ( 'NONE',  ( -0.000000000000000000, -0.000000000000000000, -1.000000000000000000 ) ) ;
#40 = ADVANCED_BREP_SHAPE_REPRESENTATION ( '电池正极铜垫片', ( #87, #390 ), #256 ) ;
#41 = ORIENTED_EDGE ( 'NONE', *, *, #215, .T. ) ;
#42 = EDGE_CURVE ( 'NONE', #404, #292, #89, .T. ) ;
#43 = DIRECTION ( 'NONE',  ( -0.000000000000000000, -0.000000000000000000, -1.000000000000000000 ) ) ;
#44 = DIRECTION ( 'NONE',  ( -0.7071067811865490160, 8.659560562354952580E-17, 0.7071067811865460184 ) ) ;
#45 = LINE ( 'NONE', #71, #386 ) ;
#46 = CARTESIAN_POINT ( 'NONE',  ( 0.000000000000000000, 0.000000000000000000, 0.000000000000000000 ) ) ;
#47 = CARTESIAN_POINT ( 'NONE',  ( -2.549999999999999822, 3.122849337825750419E-16, 1.800000000000002931 ) ) ;
#48 = AXIS2_PLACEMENT_3D ( 'NONE', #146, #209, #7 ) ;
#49 = AXIS2_PLACEMENT_3D ( 'NONE', #347, #282, #184 ) ;
#50 = DIRECTION ( 'NONE',  ( 0.000000000000000000, 0.000000000000000000, 1.000000000000000000 ) ) ;
#51 = SHAPE_DEFINITION_REPRESENTATION ( #377, #40 ) ;
#52 = EDGE_CURVE ( 'NONE', #63, #198, #270, .T. ) ;
#53 = PRODUCT_CONTEXT ( 'NONE', #311, 'mechanical' ) ;
#54 = AXIS2_PLACEMENT_3D ( 'NONE', #260, #169, #421 ) ;
#55 =( NAMED_UNIT ( * ) SI_UNIT ( $, .STERADIAN. ) SOLID_ANGLE_UNIT ( ) );
#56 = ADVANCED_FACE ( 'NONE', ( #274 ), #150, .F. ) ;
#57 = FILL_AREA_STYLE ('',( #224 ) ) ;
#58 = CARTESIAN_POINT ( 'NONE',  ( -17.80000000000000071, 0.000000000000000000, 2.100000000000000089 ) ) ;
#59 = ORIENTED_EDGE ( 'NONE', *, *, #357, .T. ) ;
#60 = EDGE_CURVE ( 'NONE', #395, #92, #251, .T. ) ;
#61 = ORIENTED_EDGE ( 'NONE', *, *, #369, .T. ) ;
#62 = CARTESIAN_POINT ( 'NONE',  ( 6.099999999999999645, 7.470345474798854293E-16, 5.400000000000000355 ) ) ;
#63 = VERTEX_POINT ( 'NONE', #374 ) ;
#64 = CARTESIAN_POINT ( 'NONE',  ( 0.000000000000000000, 0.000000000000000000, 5.400000000000000355 ) ) ;
#65 = ORIENTED_EDGE ( 'NONE', *, *, #293, .F. ) ;
#66 = FACE_OUTER_BOUND ( 'NONE', #123, .T. ) ;
#67 = AXIS2_PLACEMENT_3D ( 'NONE', #134, #96, #394 ) ;
#68 = ORIENTED_EDGE ( 'NONE', *, *, #113, .T. ) ;
#69 = CARTESIAN_POINT ( 'NONE',  ( 0.000000000000000000, 0.000000000000000000, 2.100000000000000089 ) ) ;
#70 = CARTESIAN_POINT ( 'NONE',  ( 0.000000000000000000, 0.000000000000000000, 5.400000000000000355 ) ) ;
#71 = CARTESIAN_POINT ( 'NONE',  ( 17.80000000000000071, 2.179871302482288714E-15, 2.100000000000000089 ) ) ;
#72 = VERTEX_POINT ( 'NONE', #220 ) ;
#73 = DIRECTION ( 'NONE',  ( 0.000000000000000000, 0.000000000000000000, -1.000000000000000000 ) ) ;
#74 = PRODUCT_DEFINITION_FORMATION_WITH_SPECIFIED_SOURCE ( '任何', '', #11, .NOT_KNOWN. ) ;
#75 = COLOUR_RGB ( '',0.4980392156862745168, 0.4980392156862745168, 0.4980392156862745168 ) ;
#76 = AXIS2_PLACEMENT_3D ( 'NONE', #316, #73, #219 ) ;
#77 = EDGE_LOOP ( 'NONE', ( #269, #326, #237, #265 ) ) ;
#78 = DIRECTION ( 'NONE',  ( 1.000000000000000000, 0.000000000000000000, 0.000000000000000000 ) ) ;
#79 = UNCERTAINTY_MEASURE_WITH_UNIT (LENGTH_MEASURE( 1.000000000000000082E-05 ), #382, 'distance_accuracy_value', 'NONE');
#80 = ORIENTED_EDGE ( 'NONE', *, *, #42, .T. ) ;
#81 = CYLINDRICAL_SURFACE ( 'NONE', #76, 2.549999999999999822 ) ;
#82 = CARTESIAN_POINT ( 'NONE',  ( 0.000000000000000000, 0.000000000000000000, 5.400000000000000355 ) ) ;
#83 = EDGE_CURVE ( 'NONE', #72, #63, #45, .T. ) ;
#84 = DIRECTION ( 'NONE',  ( 0.7071067811865490160, 0.000000000000000000, 0.7071067811865460184 ) ) ;
#85 = DIRECTION ( 'NONE',  ( -0.000000000000000000, -0.000000000000000000, -1.000000000000000000 ) ) ;
#86 =( GEOMETRIC_REPRESENTATION_CONTEXT ( 3 ) GLOBAL_UNCERTAINTY_ASSIGNED_CONTEXT ( ( #245 ) ) GLOBAL_UNIT_ASSIGNED_CONTEXT ( ( #400, #181, #372 ) ) REPRESENTATION_CONTEXT ( 'NONE', 'WORKASPACE' ) );
#87 = MANIFOLD_SOLID_BREP ( '倒角1', #397 ) ;
#88 =( LENGTH_UNIT ( ) NAMED_UNIT ( * ) SI_UNIT ( .MILLI., .METRE. ) );
#89 = CIRCLE ( 'NONE', #94, 2.549999999999999822 ) ;
#90 = AXIS2_PLACEMENT_3D ( 'NONE', #249, #342, #380 ) ;
#91 = EDGE_LOOP ( 'NONE', ( #154, #367 ) ) ;
#92 = VERTEX_POINT ( 'NONE', #417 ) ;
#93 = CARTESIAN_POINT ( 'NONE',  ( -14.80000000000000071, 0.000000000000000000, 2.100000000000000089 ) ) ;
#94 = AXIS2_PLACEMENT_3D ( 'NONE', #46, #148, #344 ) ;
#95 = EDGE_LOOP ( 'NONE', ( #139, #263 ) ) ;
#96 = DIRECTION ( 'NONE',  ( 0.000000000000000000, 0.000000000000000000, 1.000000000000000000 ) ) ;
#97 = VERTEX_POINT ( 'NONE', #58 ) ;
#98 = DIRECTION ( 'NONE',  ( 1.000000000000000000, 0.000000000000000000, 0.000000000000000000 ) ) ;
#99 = ORIENTED_EDGE ( 'NONE', *, *, #285, .T. ) ;
#100 = FACE_OUTER_BOUND ( 'NONE', #419, .T. ) ;
#101 = AXIS2_PLACEMENT_3D ( 'NONE', #167, #368, #327 ) ;
#102 =( GEOMETRIC_REPRESENTATION_CONTEXT ( 3 ) GLOBAL_UNCERTAINTY_ASSIGNED_CONTEXT ( ( #182 ) ) GLOBAL_UNIT_ASSIGNED_CONTEXT ( ( #88, #152, #55 ) ) REPRESENTATION_CONTEXT ( 'NONE', 'WORKASPACE' ) );
#103 = VERTEX_POINT ( 'NONE', #153 ) ;
#104 = CARTESIAN_POINT ( 'NONE',  ( 14.80000000000000071, 1.812477262738082480E-15, 5.400000000000000355 ) ) ;
#105 = FACE_OUTER_BOUND ( 'NONE', #422, .T. ) ;
#106 = DIRECTION ( 'NONE',  ( 0.000000000000000000, 0.000000000000000000, -1.000000000000000000 ) ) ;
#107 = DIRECTION ( 'NONE',  ( 1.000000000000000000, 0.000000000000000000, 0.000000000000000000 ) ) ;
#108 = DIRECTION ( 'NONE',  ( 1.000000000000000000, 0.000000000000000000, 0.000000000000000000 ) ) ;
#109 = VECTOR ( 'NONE', #175, 1000.000000000000000 ) ;
#110 = ORIENTED_EDGE ( 'NONE', *, *, #16, .F. ) ;
#111 = CARTESIAN_POINT ( 'NONE',  ( -2.549999999999999822, 0.000000000000000000, 5.401000000000000689 ) ) ;
#112 = SURFACE_SIDE_STYLE ('',( #173 ) ) ;
#113 = EDGE_CURVE ( 'NONE', #398, #288, #176, .T. ) ;
#114 = CYLINDRICAL_SURFACE ( 'NONE', #90, 14.80000000000000071 ) ;
#115 = DIRECTION ( 'NONE',  ( 1.000000000000000000, 0.000000000000000000, 0.000000000000000000 ) ) ;
#116 = VECTOR ( 'NONE', #396, 1000.000000000000000 ) ;
#117 = ADVANCED_FACE ( 'NONE', ( #118 ), #305, .F. ) ;
#118 = FACE_OUTER_BOUND ( 'NONE', #334, .T. ) ;
#119 = AXIS2_PLACEMENT_3D ( 'NONE', #208, #308, #6 ) ;
#120 = ORIENTED_EDGE ( 'NONE', *, *, #83, .F. ) ;
#121 = PRESENTATION_LAYER_ASSIGNMENT (  '', '', ( #317 ) ) ;
#122 = PRESENTATION_STYLE_ASSIGNMENT (( #416 ) ) ;
#123 = EDGE_LOOP ( 'NONE', ( #145, #267 ) ) ;
#124 = DIRECTION ( 'NONE',  ( 0.000000000000000000, 0.000000000000000000, 1.000000000000000000 ) ) ;
#125 = EDGE_CURVE ( 'NONE', #398, #336, #34, .T. ) ;
#126 = ORIENTED_EDGE ( 'NONE', *, *, #378, .T. ) ;
#127 = AXIS2_PLACEMENT_3D ( 'NONE', #4, #307, #303 ) ;
#128 = APPLICATION_CONTEXT ( 'automotive_design' ) ;
#129 = FACE_OUTER_BOUND ( 'NONE', #141, .T. ) ;
#130 = ADVANCED_FACE ( 'NONE', ( #337 ), #227, .T. ) ;
#131 = ORIENTED_EDGE ( 'NONE', *, *, #250, .F. ) ;
#132 = CARTESIAN_POINT ( 'NONE',  ( 2.549999999999999822, 0.000000000000000000, 1.800000000000002931 ) ) ;
#133 = ORIENTED_EDGE ( 'NONE', *, *, #199, .T. ) ;
#134 = CARTESIAN_POINT ( 'NONE',  ( 0.000000000000000000, 0.000000000000000000, 2.100000000000000089 ) ) ;
#135 = EDGE_CURVE ( 'NONE', #370, #278, #360, .T. ) ;
#136 = DIRECTION ( 'NONE',  ( 0.000000000000000000, 0.000000000000000000, 1.000000000000000000 ) ) ;
#137 = CARTESIAN_POINT ( 'NONE',  ( 0.000000000000000000, 0.000000000000000000, 5.401000000000000689 ) ) ;
#138 = AXIS2_PLACEMENT_3D ( 'NONE', #69, #206, #163 ) ;
#139 = ORIENTED_EDGE ( 'NONE', *, *, #348, .F. ) ;
#140 = FACE_OUTER_BOUND ( 'NONE', #258, .T. ) ;
#141 = EDGE_LOOP ( 'NONE', ( #420, #59 ) ) ;
#142 = CARTESIAN_POINT ( 'NONE',  ( 0.000000000000000000, 0.000000000000000000, 2.100000000000000089 ) ) ;
#143 = FILL_AREA_STYLE_COLOUR ( '', #75 ) ;
#144 = ADVANCED_FACE ( 'NONE', ( #264, #100 ), #2, .T. ) ;
#145 = ORIENTED_EDGE ( 'NONE', *, *, #322, .F. ) ;
#146 = CARTESIAN_POINT ( 'NONE',  ( 0.000000000000000000, 0.000000000000000000, 0.000000000000000000 ) ) ;
#147 = CIRCLE ( 'NONE', #1, 6.099999999999999645 ) ;
#148 = DIRECTION ( 'NONE',  ( 0.000000000000000000, 0.000000000000000000, 1.000000000000000000 ) ) ;
#149 = CARTESIAN_POINT ( 'NONE',  ( 0.000000000000000000, 0.000000000000000000, 2.100000000000000089 ) ) ;
#150 = CYLINDRICAL_SURFACE ( 'NONE', #191, 2.549999999999999822 ) ;
#151 = VERTEX_POINT ( 'NONE', #268 ) ;
#152 =( NAMED_UNIT ( * ) PLANE_ANGLE_UNIT ( ) SI_UNIT ( $, .RADIAN. ) );
#153 = CARTESIAN_POINT ( 'NONE',  ( 14.80000000000000071, 1.812477262738082480E-15, 5.400000000000000355 ) ) ;
#154 = ORIENTED_EDGE ( 'NONE', *, *, #299, .T. ) ;
#155 =( NAMED_UNIT ( * ) SI_UNIT ( $, .STERADIAN. ) SOLID_ANGLE_UNIT ( ) );
#156 = ADVANCED_FACE ( 'NONE', ( #301, #329 ), #364, .F. ) ;
#157 = AXIS2_PLACEMENT_3D ( 'NONE', #231, #124, #298 ) ;
#158 = CIRCLE ( 'NONE', #341, 2.549999999999999822 ) ;
#159 = ORIENTED_EDGE ( 'NONE', *, *, #242, .T. ) ;
#160 = ORIENTED_EDGE ( 'NONE', *, *, #52, .T. ) ;
#161 = FACE_BOUND ( 'NONE', #95, .T. ) ;
#162 = VERTEX_POINT ( 'NONE', #93 ) ;
#163 = DIRECTION ( 'NONE',  ( 1.000000000000000000, 0.000000000000000000, 0.000000000000000000 ) ) ;
#164 = ORIENTED_EDGE ( 'NONE', *, *, #83, .T. ) ;
#165 = AXIS2_PLACEMENT_3D ( 'NONE', #82, #287, #190 ) ;
#166 = CIRCLE ( 'NONE', #333, 14.80000000000000071 ) ;
#167 = CARTESIAN_POINT ( 'NONE',  ( 0.000000000000000000, 0.000000000000000000, 2.100000000000000089 ) ) ;
#168 = ORIENTED_EDGE ( 'NONE', *, *, #125, .F. ) ;
#169 = DIRECTION ( 'NONE',  ( -0.000000000000000000, -0.000000000000000000, -1.000000000000000000 ) ) ;
#170 = ORIENTED_EDGE ( 'NONE', *, *, #33, .F. ) ;
#171 = ADVANCED_FACE ( 'NONE', ( #389 ), #30, .F. ) ;
#172 = DIRECTION ( 'NONE',  ( 1.000000000000000000, 0.000000000000000000, -0.000000000000000000 ) ) ;
#173 = SURFACE_STYLE_FILL_AREA ( #217 ) ;
#174 = CARTESIAN_POINT ( 'NONE',  ( 0.000000000000000000, 0.000000000000000000, 2.100000000000000089 ) ) ;
#175 = DIRECTION ( 'NONE',  ( -0.000000000000000000, -0.000000000000000000, -1.000000000000000000 ) ) ;
#176 = CIRCLE ( 'NONE', #165, 6.099999999999999645 ) ;
#177 = VERTEX_POINT ( 'NONE', #236 ) ;
#178 = CARTESIAN_POINT ( 'NONE',  ( -6.099999999999999645, 0.000000000000000000, 5.400000000000000355 ) ) ;
#179 = ADVANCED_FACE ( 'NONE', ( #233, #66 ), #259, .T. ) ;
#180 = CARTESIAN_POINT ( 'NONE',  ( -6.099999999999999645, 0.000000000000000000, 5.400000000000000355 ) ) ;
#181 =( NAMED_UNIT ( * ) PLANE_ANGLE_UNIT ( ) SI_UNIT ( $, .RADIAN. ) );
#182 = UNCERTAINTY_MEASURE_WITH_UNIT (LENGTH_MEASURE( 1.000000000000000082E-05 ), #88, 'distance_accuracy_value', 'NONE');
#183 = CARTESIAN_POINT ( 'NONE',  ( 0.000000000000000000, 0.000000000000000000, 2.100000000000000089 ) ) ;
#184 = DIRECTION ( 'NONE',  ( 1.000000000000000000, 0.000000000000000000, 0.000000000000000000 ) ) ;
#185 = VECTOR ( 'NONE', #402, 1000.000000000000000 ) ;
#186 = MECHANICAL_DESIGN_GEOMETRIC_PRESENTATION_REPRESENTATION (  '', ( #317 ), #102 ) ;
#187 = DIRECTION ( 'NONE',  ( 0.000000000000000000, 0.000000000000000000, 1.000000000000000000 ) ) ;
#188 = EDGE_CURVE ( 'NONE', #336, #151, #408, .T. ) ;
#189 =( NAMED_UNIT ( * ) PLANE_ANGLE_UNIT ( ) SI_UNIT ( $, .RADIAN. ) );
#190 = DIRECTION ( 'NONE',  ( 1.000000000000000000, 0.000000000000000000, 0.000000000000000000 ) ) ;
#191 = AXIS2_PLACEMENT_3D ( 'NONE', #137, #106, #248 ) ;
#192 = CIRCLE ( 'NONE', #281, 2.849999999999998312 ) ;
#193 = EDGE_CURVE ( 'NONE', #353, #162, #207, .T. ) ;
#194 = CARTESIAN_POINT ( 'NONE',  ( 0.000000000000000000, 0.000000000000000000, 1.800000000000002931 ) ) ;
#195 = DIRECTION ( 'NONE',  ( 0.000000000000000000, 0.000000000000000000, 1.000000000000000000 ) ) ;
#196 = EDGE_LOOP ( 'NONE', ( #168, #68, #358, #230 ) ) ;
#197 = DIRECTION ( 'NONE',  ( -0.000000000000000000, -0.000000000000000000, -1.000000000000000000 ) ) ;
#198 = VERTEX_POINT ( 'NONE', #37 ) ;
#199 = EDGE_CURVE ( 'NONE', #92, #395, #158, .T. ) ;
#200 = CARTESIAN_POINT ( 'NONE',  ( 0.000000000000000000, 0.000000000000000000, 2.100000000000000089 ) ) ;
#201 = ORIENTED_EDGE ( 'NONE', *, *, #60, .F. ) ;
#202 = DIRECTION ( 'NONE',  ( -1.000000000000000000, 0.000000000000000000, 0.000000000000000000 ) ) ;
#203 = ORIENTED_EDGE ( 'NONE', *, *, #378, .F. ) ;
#204 = VECTOR ( 'NONE', #229, 1000.000000000000000 ) ;
#205 = AXIS2_PLACEMENT_3D ( 'NONE', #142, #43, #405 ) ;
#206 = DIRECTION ( 'NONE',  ( -0.000000000000000000, -0.000000000000000000, -1.000000000000000000 ) ) ;
#207 = LINE ( 'NONE', #28, #204 ) ;
#208 = CARTESIAN_POINT ( 'NONE',  ( 0.000000000000000000, 0.000000000000000000, 2.100000000000000089 ) ) ;
#209 = DIRECTION ( 'NONE',  ( 0.000000000000000000, 0.000000000000000000, 1.000000000000000000 ) ) ;
#210 = FACE_OUTER_BOUND ( 'NONE', #31, .T. ) ;
#211 = ADVANCED_FACE ( 'NONE', ( #129, #161 ), #295, .T. ) ;
#212 = DIRECTION ( 'NONE',  ( 1.000000000000000000, 0.000000000000000000, 0.000000000000000000 ) ) ;
#213 = PRESENTATION_STYLE_ASSIGNMENT (( #9 ) ) ;
#214 = ORIENTED_EDGE ( 'NONE', *, *, #299, .F. ) ;
#215 = EDGE_CURVE ( 'NONE', #92, #278, #392, .T. ) ;
#216 = DIRECTION ( 'NONE',  ( -1.000000000000000000, 0.000000000000000000, 0.000000000000000000 ) ) ;
#217 = FILL_AREA_STYLE ('',( #143 ) ) ;
#218 = ORIENTED_EDGE ( 'NONE', *, *, #369, .F. ) ;
#219 = DIRECTION ( 'NONE',  ( -1.000000000000000000, 0.000000000000000000, 0.000000000000000000 ) ) ;
#220 = CARTESIAN_POINT ( 'NONE',  ( 17.80000000000000071, 2.179871302482288714E-15, 2.100000000000000089 ) ) ;
#221 = CARTESIAN_POINT ( 'NONE',  ( -14.80000000000000071, 0.000000000000000000, 5.400000000000000355 ) ) ;
#222 = CIRCLE ( 'NONE', #48, 17.80000000000000071 ) ;
#223 = ADVANCED_FACE ( 'NONE', ( #238 ), #239, .T. ) ;
#224 = FILL_AREA_STYLE_COLOUR ( '', #375 ) ;
#225 = AXIS2_PLACEMENT_3D ( 'NONE', #403, #240, #115 ) ;
#226 = ORIENTED_EDGE ( 'NONE', *, *, #339, .T. ) ;
#227 = CYLINDRICAL_SURFACE ( 'NONE', #54, 14.80000000000000071 ) ;
#228 = EDGE_CURVE ( 'NONE', #72, #97, #261, .T. ) ;
#229 = DIRECTION ( 'NONE',  ( -0.000000000000000000, -0.000000000000000000, -1.000000000000000000 ) ) ;
#230 = ORIENTED_EDGE ( 'NONE', *, *, #322, .T. ) ;
#231 = CARTESIAN_POINT ( 'NONE',  ( 0.000000000000000000, 0.000000000000000000, 5.400000000000000355 ) ) ;
#232 = ORIENTED_EDGE ( 'NONE', *, *, #228, .F. ) ;
#233 = FACE_BOUND ( 'NONE', #91, .T. ) ;
#234 = ORIENTED_EDGE ( 'NONE', *, *, #188, .T. ) ;
#235 = VECTOR ( 'NONE', #350, 1000.000000000000000 ) ;
#236 = CARTESIAN_POINT ( 'NONE',  ( 14.80000000000000071, 1.812477262738082480E-15, 2.100000000000000089 ) ) ;
#237 = ORIENTED_EDGE ( 'NONE', *, *, #193, .T. ) ;
#238 = FACE_OUTER_BOUND ( 'NONE', #391, .T. ) ;
#239 = CYLINDRICAL_SURFACE ( 'NONE', #315, 17.80000000000000071 ) ;
#240 = DIRECTION ( 'NONE',  ( 0.000000000000000000, 0.000000000000000000, 1.000000000000000000 ) ) ;
#241 = ORIENTED_EDGE ( 'NONE', *, *, #23, .F. ) ;
#242 = EDGE_CURVE ( 'NONE', #395, #370, #373, .T. ) ;
#243 = CIRCLE ( 'NONE', #32, 14.80000000000000071 ) ;
#244 = CARTESIAN_POINT ( 'NONE',  ( 6.099999999999999645, 7.470345474798854293E-16, 2.100000000000000089 ) ) ;
#245 = UNCERTAINTY_MEASURE_WITH_UNIT (LENGTH_MEASURE( 1.000000000000000082E-05 ), #400, 'distance_accuracy_value', 'NONE');
#246 = ORIENTED_EDGE ( 'NONE', *, *, #357, .F. ) ;
#247 = DIRECTION ( 'NONE',  ( -1.000000000000000000, 0.000000000000000000, 0.000000000000000000 ) ) ;
#248 = DIRECTION ( 'NONE',  ( -1.000000000000000000, 0.000000000000000000, 0.000000000000000000 ) ) ;
#249 = CARTESIAN_POINT ( 'NONE',  ( 0.000000000000000000, 0.000000000000000000, 5.400000000000000355 ) ) ;
#250 = EDGE_CURVE ( 'NONE', #395, #292, #271, .T. ) ;
#251 = CIRCLE ( 'NONE', #127, 2.549999999999999822 ) ;
#252 = DIRECTION ( 'NONE',  ( 0.000000000000000000, 0.000000000000000000, -1.000000000000000000 ) ) ;
#253 = DIRECTION ( 'NONE',  ( 1.000000000000000000, 0.000000000000000000, 0.000000000000000000 ) ) ;
#254 = DIRECTION ( 'NONE',  ( 0.000000000000000000, 0.000000000000000000, 1.000000000000000000 ) ) ;
#255 = STYLED_ITEM ( 'NONE', ( #213 ), #87 ) ;
#256 =( GEOMETRIC_REPRESENTATION_CONTEXT ( 3 ) GLOBAL_UNCERTAINTY_ASSIGNED_CONTEXT ( ( #79 ) ) GLOBAL_UNIT_ASSIGNED_CONTEXT ( ( #382, #189, #155 ) ) REPRESENTATION_CONTEXT ( 'NONE', 'WORKASPACE' ) );
#257 = ORIENTED_EDGE ( 'NONE', *, *, #193, .F. ) ;
#258 = EDGE_LOOP ( 'NONE', ( #29, #126, #241, #131 ) ) ;
#259 = PLANE ( 'NONE',  #101 ) ;
#260 = CARTESIAN_POINT ( 'NONE',  ( 0.000000000000000000, 0.000000000000000000, 5.400000000000000355 ) ) ;
#261 = CIRCLE ( 'NONE', #323, 17.80000000000000071 ) ;
#262 = CIRCLE ( 'NONE', #366, 14.80000000000000071 ) ;
#263 = ORIENTED_EDGE ( 'NONE', *, *, #113, .F. ) ;
#264 = FACE_BOUND ( 'NONE', #321, .T. ) ;
#265 = ORIENTED_EDGE ( 'NONE', *, *, #33, .T. ) ;
#266 = CARTESIAN_POINT ( 'NONE',  ( 0.000000000000000000, 0.000000000000000000, 0.000000000000000000 ) ) ;
#267 = ORIENTED_EDGE ( 'NONE', *, *, #188, .F. ) ;
#268 = CARTESIAN_POINT ( 'NONE',  ( -6.099999999999999645, 0.000000000000000000, 2.100000000000000089 ) ) ;
#269 = ORIENTED_EDGE ( 'NONE', *, *, #285, .F. ) ;
#270 = CIRCLE ( 'NONE', #225, 17.80000000000000071 ) ;
#271 = LINE ( 'NONE', #111, #185 ) ;
#272 = DIRECTION ( 'NONE',  ( 0.000000000000000000, 0.000000000000000000, 1.000000000000000000 ) ) ;
#273 = CARTESIAN_POINT ( 'NONE',  ( -2.549999999999999822, 0.000000000000000000, 0.000000000000000000 ) ) ;
#274 = FACE_OUTER_BOUND ( 'NONE', #300, .T. ) ;
#275 = EDGE_CURVE ( 'NONE', #288, #151, #379, .T. ) ;
#276 = ORIENTED_EDGE ( 'NONE', *, *, #339, .F. ) ;
#277 = DIRECTION ( 'NONE',  ( -0.000000000000000000, -0.000000000000000000, -1.000000000000000000 ) ) ;
#278 = VERTEX_POINT ( 'NONE', #343 ) ;
#279 = PRESENTATION_LAYER_ASSIGNMENT (  '', '', ( #255 ) ) ;
#280 = CARTESIAN_POINT ( 'NONE',  ( -17.80000000000000071, 0.000000000000000000, 2.100000000000000089 ) ) ;
#281 = AXIS2_PLACEMENT_3D ( 'NONE', #410, #39, #78 ) ;
#282 = DIRECTION ( 'NONE',  ( 0.000000000000000000, 0.000000000000000000, 1.000000000000000000 ) ) ;
#283 = CARTESIAN_POINT ( 'NONE',  ( 2.549999999999999822, 3.122849337825750419E-16, 5.401000000000000689 ) ) ;
#284 = AXIS2_PLACEMENT_3D ( 'NONE', #266, #359, #172 ) ;
#285 = EDGE_CURVE ( 'NONE', #103, #177, #12, .T. ) ;
#286 = CARTESIAN_POINT ( 'NONE',  ( 2.549999999999999822, 3.122849337825750419E-16, 0.000000000000000000 ) ) ;
#287 = DIRECTION ( 'NONE',  ( 0.000000000000000000, 0.000000000000000000, 1.000000000000000000 ) ) ;
#288 = VERTEX_POINT ( 'NONE', #178 ) ;
#289 = DIRECTION ( 'NONE',  ( 1.000000000000000000, 0.000000000000000000, 0.000000000000000000 ) ) ;
#290 = AXIS2_PLACEMENT_3D ( 'NONE', #320, #20, #253 ) ;
#291 = CONICAL_SURFACE ( 'NONE', #324, 2.549999999999999822, 0.7853981633974504994 ) ;
#292 = VERTEX_POINT ( 'NONE', #273 ) ;
#293 = EDGE_CURVE ( 'NONE', #198, #63, #222, .T. ) ;
#294 = ORIENTED_EDGE ( 'NONE', *, *, #228, .T. ) ;
#295 = PLANE ( 'NONE',  #157 ) ;
#296 = AXIS2_PLACEMENT_3D ( 'NONE', #8, #277, #216 ) ;
#297 = ORIENTED_EDGE ( 'NONE', *, *, #275, .F. ) ;
#298 = DIRECTION ( 'NONE',  ( 1.000000000000000000, 0.000000000000000000, -0.000000000000000000 ) ) ;
#299 = EDGE_CURVE ( 'NONE', #278, #370, #192, .T. ) ;
#300 = EDGE_LOOP ( 'NONE', ( #203, #133, #328, #36 ) ) ;
#301 = FACE_BOUND ( 'NONE', #415, .T. ) ;
#302 = DIRECTION ( 'NONE',  ( 0.000000000000000000, 0.000000000000000000, 1.000000000000000000 ) ) ;
#303 = DIRECTION ( 'NONE',  ( 1.000000000000000000, 0.000000000000000000, 0.000000000000000000 ) ) ;
#304 = EDGE_LOOP ( 'NONE', ( #201, #159, #214, #25 ) ) ;
#305 = CONICAL_SURFACE ( 'NONE', #290, 2.549999999999999822, 0.7853981633974504994 ) ;
#306 = LINE ( 'NONE', #283, #409 ) ;
#307 = DIRECTION ( 'NONE',  ( 0.000000000000000000, 0.000000000000000000, 1.000000000000000000 ) ) ;
#308 = DIRECTION ( 'NONE',  ( 0.000000000000000000, 0.000000000000000000, 1.000000000000000000 ) ) ;
#309 = CARTESIAN_POINT ( 'NONE',  ( 0.000000000000000000, 0.000000000000000000, 5.400000000000000355 ) ) ;
#310 = EDGE_LOOP ( 'NONE', ( #246, #99, #388, #257 ) ) ;
#311 = APPLICATION_CONTEXT ( 'automotive_design' ) ;
#312 = CARTESIAN_POINT ( 'NONE',  ( -2.849999999999998312, 3.490243377569954582E-16, 2.100000000000000089 ) ) ;
#313 = ADVANCED_FACE ( 'NONE', ( #140 ), #81, .F. ) ;
#314 = DIRECTION ( 'NONE',  ( -1.000000000000000000, 0.000000000000000000, 0.000000000000000000 ) ) ;
#315 = AXIS2_PLACEMENT_3D ( 'NONE', #149, #411, #247 ) ;
#316 = CARTESIAN_POINT ( 'NONE',  ( 0.000000000000000000, 0.000000000000000000, 5.401000000000000689 ) ) ;
#317 = STYLED_ITEM ( 'NONE', ( #122 ), #40 ) ;
#318 = DIRECTION ( 'NONE',  ( 1.000000000000000000, 0.000000000000000000, 0.000000000000000000 ) ) ;
#319 = CARTESIAN_POINT ( 'NONE',  ( -2.549999999999999822, 0.000000000000000000, 1.800000000000002931 ) ) ;
#320 = CARTESIAN_POINT ( 'NONE',  ( 0.000000000000000000, 0.000000000000000000, 1.800000000000002931 ) ) ;
#321 = EDGE_LOOP ( 'NONE', ( #170, #110 ) ) ;
#322 = EDGE_CURVE ( 'NONE', #151, #336, #22, .T. ) ;
#323 = AXIS2_PLACEMENT_3D ( 'NONE', #376, #136, #108 ) ;
#324 = AXIS2_PLACEMENT_3D ( 'NONE', #194, #254, #17 ) ;
#325 = SURFACE_STYLE_FILL_AREA ( #57 ) ;
#326 = ORIENTED_EDGE ( 'NONE', *, *, #385, .F. ) ;
#327 = DIRECTION ( 'NONE',  ( 1.000000000000000000, 0.000000000000000000, -0.000000000000000000 ) ) ;
#328 = ORIENTED_EDGE ( 'NONE', *, *, #250, .T. ) ;
#329 = FACE_OUTER_BOUND ( 'NONE', #365, .T. ) ;
#330 = ORIENTED_EDGE ( 'NONE', *, *, #293, .T. ) ;
#331 = PRODUCT_DEFINITION ( '未知', '', #74, #345 ) ;
#332 = AXIS2_PLACEMENT_3D ( 'NONE', #64, #197, #202 ) ;
#333 = AXIS2_PLACEMENT_3D ( 'NONE', #412, #19, #289 ) ;
#334 = EDGE_LOOP ( 'NONE', ( #361, #10, #41, #27 ) ) ;
#335 = DIRECTION ( 'NONE',  ( -0.000000000000000000, -0.000000000000000000, -1.000000000000000000 ) ) ;
#336 = VERTEX_POINT ( 'NONE', #244 ) ;
#337 = FACE_OUTER_BOUND ( 'NONE', #310, .T. ) ;
#338 = CARTESIAN_POINT ( 'NONE',  ( 0.000000000000000000, 0.000000000000000000, 0.000000000000000000 ) ) ;
#339 = EDGE_CURVE ( 'NONE', #97, #72, #356, .T. ) ;
#340 = LINE ( 'NONE', #280, #109 ) ;
#341 = AXIS2_PLACEMENT_3D ( 'NONE', #423, #302, #3 ) ;
#342 = DIRECTION ( 'NONE',  ( -0.000000000000000000, -0.000000000000000000, -1.000000000000000000 ) ) ;
#343 = CARTESIAN_POINT ( 'NONE',  ( 2.849999999999998312, 0.000000000000000000, 2.100000000000000089 ) ) ;
#344 = DIRECTION ( 'NONE',  ( 1.000000000000000000, 0.000000000000000000, 0.000000000000000000 ) ) ;
#345 = PRODUCT_DEFINITION_CONTEXT ( 'detailed design', #128, 'design' ) ;
#346 = DIRECTION ( 'NONE',  ( -0.000000000000000000, -0.000000000000000000, -1.000000000000000000 ) ) ;
#347 = CARTESIAN_POINT ( 'NONE',  ( 0.000000000000000000, 0.000000000000000000, 2.100000000000000089 ) ) ;
#348 = EDGE_CURVE ( 'NONE', #288, #398, #147, .T. ) ;
#349 = MECHANICAL_DESIGN_GEOMETRIC_PRESENTATION_REPRESENTATION (  '', ( #255 ), #86 ) ;
#350 = DIRECTION ( 'NONE',  ( -0.000000000000000000, -0.000000000000000000, -1.000000000000000000 ) ) ;
#351 = APPLICATION_PROTOCOL_DEFINITION ( 'draft international standard', 'automotive_design', 1998, #128 ) ;
#352 = ADVANCED_FACE ( 'NONE', ( #15 ), #114, .T. ) ;
#353 = VERTEX_POINT ( 'NONE', #221 ) ;
#354 = CARTESIAN_POINT ( 'NONE',  ( 0.000000000000000000, 0.000000000000000000, 0.000000000000000000 ) ) ;
#355 = DIRECTION ( 'NONE',  ( 1.000000000000000000, 0.000000000000000000, 0.000000000000000000 ) ) ;
#356 = CIRCLE ( 'NONE', #49, 17.80000000000000071 ) ;
#357 = EDGE_CURVE ( 'NONE', #103, #353, #262, .T. ) ;
#358 = ORIENTED_EDGE ( 'NONE', *, *, #275, .T. ) ;
#359 = DIRECTION ( 'NONE',  ( 0.000000000000000000, 0.000000000000000000, 1.000000000000000000 ) ) ;
#360 = CIRCLE ( 'NONE', #413, 2.849999999999998312 ) ;
#361 = ORIENTED_EDGE ( 'NONE', *, *, #242, .F. ) ;
#362 = ADVANCED_FACE ( 'NONE', ( #105 ), #399, .F. ) ;
#363 = ORIENTED_EDGE ( 'NONE', *, *, #23, .T. ) ;
#364 = PLANE ( 'NONE',  #284 ) ;
#365 = EDGE_LOOP ( 'NONE', ( #65, #393 ) ) ;
#366 = AXIS2_PLACEMENT_3D ( 'NONE', #309, #187, #318 ) ;
#367 = ORIENTED_EDGE ( 'NONE', *, *, #135, .T. ) ;
#368 = DIRECTION ( 'NONE',  ( 0.000000000000000000, 0.000000000000000000, 1.000000000000000000 ) ) ;
#369 = EDGE_CURVE ( 'NONE', #97, #198, #340, .T. ) ;
#370 = VERTEX_POINT ( 'NONE', #312 ) ;
#371 = DIRECTION ( 'NONE',  ( -0.000000000000000000, -0.000000000000000000, -1.000000000000000000 ) ) ;
#372 =( NAMED_UNIT ( * ) SI_UNIT ( $, .STERADIAN. ) SOLID_ANGLE_UNIT ( ) );
#373 = LINE ( 'NONE', #47, #424 ) ;
#374 = CARTESIAN_POINT ( 'NONE',  ( 17.80000000000000071, 2.179871302482288714E-15, 0.000000000000000000 ) ) ;
#375 = COLOUR_RGB ( '',0.4980392156862745168, 0.4980392156862745168, 0.4980392156862745168 ) ;
#376 = CARTESIAN_POINT ( 'NONE',  ( 0.000000000000000000, 0.000000000000000000, 2.100000000000000089 ) ) ;
#377 = PRODUCT_DEFINITION_SHAPE ( 'NONE', 'NONE',  #331 ) ;
#378 = EDGE_CURVE ( 'NONE', #92, #404, #306, .T. ) ;
#379 = LINE ( 'NONE', #180, #418 ) ;
#380 = DIRECTION ( 'NONE',  ( -1.000000000000000000, 0.000000000000000000, 0.000000000000000000 ) ) ;
#381 = AXIS2_PLACEMENT_3D ( 'NONE', #338, #38, #107 ) ;
#382 =( LENGTH_UNIT ( ) NAMED_UNIT ( * ) SI_UNIT ( .MILLI., .METRE. ) );
#383 = SURFACE_SIDE_STYLE ('',( #325 ) ) ;
#384 = APPLICATION_PROTOCOL_DEFINITION ( 'draft international standard', 'automotive_design', 1998, #311 ) ;
#385 = EDGE_CURVE ( 'NONE', #353, #103, #166, .T. ) ;
#386 = VECTOR ( 'NONE', #85, 1000.000000000000000 ) ;
#387 = PRODUCT_RELATED_PRODUCT_CATEGORY ( 'part', '', ( #11 ) ) ;
#388 = ORIENTED_EDGE ( 'NONE', *, *, #16, .T. ) ;
#389 = FACE_OUTER_BOUND ( 'NONE', #196, .T. ) ;
#390 = AXIS2_PLACEMENT_3D ( 'NONE', #354, #195, #355 ) ;
#391 = EDGE_LOOP ( 'NONE', ( #120, #276, #61, #330 ) ) ;
#392 = LINE ( 'NONE', #132, #21 ) ;
#393 = ORIENTED_EDGE ( 'NONE', *, *, #52, .F. ) ;
#394 = DIRECTION ( 'NONE',  ( 1.000000000000000000, 0.000000000000000000, -0.000000000000000000 ) ) ;
#395 = VERTEX_POINT ( 'NONE', #319 ) ;
#396 = DIRECTION ( 'NONE',  ( -0.000000000000000000, -0.000000000000000000, -1.000000000000000000 ) ) ;
#397 = CLOSED_SHELL ( 'NONE', ( #407, #313, #362, #130, #35, #223, #144, #156, #211, #352, #171, #179, #56, #117 ) ) ;
#398 = VERTEX_POINT ( 'NONE', #24 ) ;
#399 = CYLINDRICAL_SURFACE ( 'NONE', #296, 6.099999999999999645 ) ;
#400 =( LENGTH_UNIT ( ) NAMED_UNIT ( * ) SI_UNIT ( .MILLI., .METRE. ) );
#401 = DIRECTION ( 'NONE',  ( 1.000000000000000000, 0.000000000000000000, 0.000000000000000000 ) ) ;
#402 = DIRECTION ( 'NONE',  ( 0.000000000000000000, 0.000000000000000000, -1.000000000000000000 ) ) ;
#403 = CARTESIAN_POINT ( 'NONE',  ( 0.000000000000000000, 0.000000000000000000, 0.000000000000000000 ) ) ;
#404 = VERTEX_POINT ( 'NONE', #286 ) ;
#405 = DIRECTION ( 'NONE',  ( 1.000000000000000000, 0.000000000000000000, 0.000000000000000000 ) ) ;
#406 = ORIENTED_EDGE ( 'NONE', *, *, #125, .T. ) ;
#407 = ADVANCED_FACE ( 'NONE', ( #414 ), #291, .F. ) ;
#408 = CIRCLE ( 'NONE', #138, 6.099999999999999645 ) ;
#409 = VECTOR ( 'NONE', #252, 1000.000000000000000 ) ;
#410 = CARTESIAN_POINT ( 'NONE',  ( 0.000000000000000000, 0.000000000000000000, 2.100000000000000089 ) ) ;
#411 = DIRECTION ( 'NONE',  ( -0.000000000000000000, -0.000000000000000000, -1.000000000000000000 ) ) ;
#412 = CARTESIAN_POINT ( 'NONE',  ( 0.000000000000000000, 0.000000000000000000, 5.400000000000000355 ) ) ;
#413 = AXIS2_PLACEMENT_3D ( 'NONE', #200, #335, #98 ) ;
#414 = FACE_OUTER_BOUND ( 'NONE', #304, .T. ) ;
#415 = EDGE_LOOP ( 'NONE', ( #363, #80 ) ) ;
#416 = SURFACE_STYLE_USAGE ( .BOTH. , #383 ) ;
#417 = CARTESIAN_POINT ( 'NONE',  ( 2.549999999999999822, 3.122849337825750419E-16, 1.800000000000002931 ) ) ;
#418 = VECTOR ( 'NONE', #371, 1000.000000000000000 ) ;
#419 = EDGE_LOOP ( 'NONE', ( #226, #294 ) ) ;
#420 = ORIENTED_EDGE ( 'NONE', *, *, #385, .T. ) ;
#421 = DIRECTION ( 'NONE',  ( -1.000000000000000000, 0.000000000000000000, 0.000000000000000000 ) ) ;
#422 = EDGE_LOOP ( 'NONE', ( #18, #406, #234, #297 ) ) ;
#423 = CARTESIAN_POINT ( 'NONE',  ( 0.000000000000000000, 0.000000000000000000, 1.800000000000002931 ) ) ;
#424 = VECTOR ( 'NONE', #44, 1000.000000000000114 ) ;
ENDSEC;
END-ISO-10303-21;
