ISO-10303-21;
HEADER;
FILE_DESCRIPTION (( 'STEP AP214' ),
    '1' );
FILE_NAME ('电池架正极垫圈.STEP',
    '2026-01-03T04:33:38',
    ( '' ),
    ( '' ),
    'SwSTEP 2.0',
    'SolidWorks 2021',
    '' );
FILE_SCHEMA (( 'AUTOMOTIVE_DESIGN' ));
ENDSEC;

DATA;
#1 = ADVANCED_FACE ( 'NONE', ( #159 ), #133, .T. ) ;
#2 = EDGE_LOOP ( 'NONE', ( #135, #109, #290, #163 ) ) ;
#3 = CARTESIAN_POINT ( 'NONE',  ( -10.75000000000000000, 0.000000000000000000, 3.850000000000000089 ) ) ;
#4 = CONICAL_SURFACE ( 'NONE', #292, 10.45000000000001705, 0.7853981633974511656 ) ;
#5 = CIRCLE ( 'NONE', #184, 10.75000000000000000 ) ;
#6 = DIRECTION ( 'NONE',  ( 1.000000000000000000, 0.000000000000000000, -0.000000000000000000 ) ) ;
#7 = CARTESIAN_POINT ( 'NONE',  ( 0.000000000000000000, 0.000000000000000000, 0.000000000000000000 ) ) ;
#8 = LINE ( 'NONE', #114, #15 ) ;
#9 =( NAMED_UNIT ( * ) PLANE_ANGLE_UNIT ( ) SI_UNIT ( $, .RADIAN. ) );
#10 = UNCERTAINTY_MEASURE_WITH_UNIT (LENGTH_MEASURE( 1.000000000000000082E-05 ), #122, 'distance_accuracy_value', 'NONE');
#11 = DIRECTION ( 'NONE',  ( -1.000000000000000000, 0.000000000000000000, 0.000000000000000000 ) ) ;
#12 = CONICAL_SURFACE ( 'NONE', #223, 4.339999999999989200, 0.7853981633974453924 ) ;
#13 = PRODUCT_DEFINITION_CONTEXT ( 'detailed design', #180, 'design' ) ;
#14 = ORIENTED_EDGE ( 'NONE', *, *, #58, .T. ) ;
#15 = VECTOR ( 'NONE', #100, 1000.000000000000000 ) ;
#16 = AXIS2_PLACEMENT_3D ( 'NONE', #93, #236, #188 ) ;
#17 = VERTEX_POINT ( 'NONE', #279 ) ;
#18 = ORIENTED_EDGE ( 'NONE', *, *, #164, .T. ) ;
#19 = EDGE_CURVE ( 'NONE', #283, #134, #77, .T. ) ;
#20 = ORIENTED_EDGE ( 'NONE', *, *, #218, .F. ) ;
#21 = ORIENTED_EDGE ( 'NONE', *, *, #253, .F. ) ;
#22 = ORIENTED_EDGE ( 'NONE', *, *, #58, .F. ) ;
#23 = MANIFOLD_SOLID_BREP ( '倒角2', #80 ) ;
#24 = LINE ( 'NONE', #3, #147 ) ;
#25 = FACE_BOUND ( 'NONE', #287, .T. ) ;
#26 = DIRECTION ( 'NONE',  ( -0.000000000000000000, -0.000000000000000000, -1.000000000000000000 ) ) ;
#27 = FACE_OUTER_BOUND ( 'NONE', #234, .T. ) ;
#28 = ADVANCED_FACE ( 'NONE', ( #176 ), #12, .F. ) ;
#29 = CIRCLE ( 'NONE', #207, 10.75000000000000000 ) ;
#30 = EDGE_CURVE ( 'NONE', #134, #283, #5, .T. ) ;
#31 = LINE ( 'NONE', #204, #189 ) ;
#32 = CARTESIAN_POINT ( 'NONE',  ( -10.75000000000000000, 0.000000000000000000, 0.000000000000000000 ) ) ;
#33 = DIRECTION ( 'NONE',  ( -0.000000000000000000, -0.000000000000000000, -1.000000000000000000 ) ) ;
#34 = DIRECTION ( 'NONE',  ( 0.000000000000000000, 0.000000000000000000, 1.000000000000000000 ) ) ;
#35 = SURFACE_SIDE_STYLE ('',( #252 ) ) ;
#36 = DIRECTION ( 'NONE',  ( 1.000000000000000000, 0.000000000000000000, 0.000000000000000000 ) ) ;
#37 = DIRECTION ( 'NONE',  ( 1.000000000000000000, 0.000000000000000000, 0.000000000000000000 ) ) ;
#38 = AXIS2_PLACEMENT_3D ( 'NONE', #206, #153, #37 ) ;
#39 = VECTOR ( 'NONE', #273, 1000.000000000000000 ) ;
#40 =( LENGTH_UNIT ( ) NAMED_UNIT ( * ) SI_UNIT ( .MILLI., .METRE. ) );
#41 = ORIENTED_EDGE ( 'NONE', *, *, #19, .T. ) ;
#42 = EDGE_LOOP ( 'NONE', ( #21, #139, #314, #265 ) ) ;
#43 = ADVANCED_BREP_SHAPE_REPRESENTATION ( '电池架正极垫圈', ( #23, #285 ), #301 ) ;
#44 = VERTEX_POINT ( 'NONE', #57 ) ;
#45 = ORIENTED_EDGE ( 'NONE', *, *, #289, .F. ) ;
#46 = FACE_OUTER_BOUND ( 'NONE', #182, .T. ) ;
#47 = DIRECTION ( 'NONE',  ( 0.000000000000000000, 0.000000000000000000, -1.000000000000000000 ) ) ;
#48 = DIRECTION ( 'NONE',  ( 0.000000000000000000, 0.000000000000000000, 1.000000000000000000 ) ) ;
#49 = CARTESIAN_POINT ( 'NONE',  ( 4.040000000000000036, 4.947573068555306849E-16, 3.850000000000000089 ) ) ;
#50 = EDGE_CURVE ( 'NONE', #294, #91, #179, .T. ) ;
#51 = CONICAL_SURFACE ( 'NONE', #130, 10.45000000000001705, 0.7853981633974511656 ) ;
#52 = LINE ( 'NONE', #149, #39 ) ;
#53 = DIRECTION ( 'NONE',  ( -0.000000000000000000, -0.000000000000000000, -1.000000000000000000 ) ) ;
#54 = DIRECTION ( 'NONE',  ( -0.000000000000000000, -0.000000000000000000, -1.000000000000000000 ) ) ;
#55 = DIRECTION ( 'NONE',  ( 0.000000000000000000, 0.000000000000000000, 1.000000000000000000 ) ) ;
#56 = LINE ( 'NONE', #197, #243 ) ;
#57 = CARTESIAN_POINT ( 'NONE',  ( -4.040000000000000036, 0.000000000000000000, 3.850000000000000089 ) ) ;
#58 = EDGE_CURVE ( 'NONE', #17, #210, #270, .T. ) ;
#59 = DIRECTION ( 'NONE',  ( 0.000000000000000000, 0.000000000000000000, 1.000000000000000000 ) ) ;
#60 = ORIENTED_EDGE ( 'NONE', *, *, #30, .F. ) ;
#61 = AXIS2_PLACEMENT_3D ( 'NONE', #202, #148, #36 ) ;
#62 = ORIENTED_EDGE ( 'NONE', *, *, #136, .T. ) ;
#63 = VERTEX_POINT ( 'NONE', #248 ) ;
#64 = ORIENTED_EDGE ( 'NONE', *, *, #126, .T. ) ;
#65 = AXIS2_PLACEMENT_3D ( 'NONE', #7, #96, #191 ) ;
#66 = DIRECTION ( 'NONE',  ( -1.000000000000000000, 0.000000000000000000, 0.000000000000000000 ) ) ;
#67 = EDGE_LOOP ( 'NONE', ( #62, #235 ) ) ;
#68 = FACE_BOUND ( 'NONE', #263, .T. ) ;
#69 = CARTESIAN_POINT ( 'NONE',  ( 4.339999999999989200, 5.314967108299498685E-16, 0.000000000000000000 ) ) ;
#70 = ADVANCED_FACE ( 'NONE', ( #127 ), #225, .F. ) ;
#71 = CARTESIAN_POINT ( 'NONE',  ( 0.000000000000000000, 0.000000000000000000, 3.850000000000000089 ) ) ;
#72 = AXIS2_PLACEMENT_3D ( 'NONE', #102, #34, #123 ) ;
#73 = PLANE ( 'NONE',  #16 ) ;
#74 = DIRECTION ( 'NONE',  ( 0.000000000000000000, 0.000000000000000000, 1.000000000000000000 ) ) ;
#75 = AXIS2_PLACEMENT_3D ( 'NONE', #221, #74, #278 ) ;
#76 = COLOUR_RGB ( '',1.000000000000000000, 1.000000000000000000, 1.000000000000000000 ) ;
#77 = CIRCLE ( 'NONE', #258, 10.75000000000000000 ) ;
#78 = SURFACE_SIDE_STYLE ('',( #302 ) ) ;
#79 = ORIENTED_EDGE ( 'NONE', *, *, #249, .F. ) ;
#80 = CLOSED_SHELL ( 'NONE', ( #173, #196, #70, #86, #185, #151, #1, #140, #276, #28 ) ) ;
#81 = APPLICATION_PROTOCOL_DEFINITION ( 'draft international standard', 'automotive_design', 1998, #180 ) ;
#82 = CARTESIAN_POINT ( 'NONE',  ( 0.000000000000000000, 0.000000000000000000, 3.850000000000000089 ) ) ;
#83 = EDGE_CURVE ( 'NONE', #63, #210, #242, .T. ) ;
#84 = UNCERTAINTY_MEASURE_WITH_UNIT (LENGTH_MEASURE( 1.000000000000000082E-05 ), #277, 'distance_accuracy_value', 'NONE');
#85 = SURFACE_STYLE_USAGE ( .BOTH. , #78 ) ;
#86 = ADVANCED_FACE ( 'NONE', ( #27 ), #291, .T. ) ;
#87 = PRESENTATION_STYLE_ASSIGNMENT (( #85 ) ) ;
#88 = ORIENTED_EDGE ( 'NONE', *, *, #241, .T. ) ;
#89 = PRESENTATION_LAYER_ASSIGNMENT (  '', '', ( #215 ) ) ;
#90 = VECTOR ( 'NONE', #254, 1000.000000000000000 ) ;
#91 = VERTEX_POINT ( 'NONE', #296 ) ;
#92 = ORIENTED_EDGE ( 'NONE', *, *, #194, .T. ) ;
#93 = CARTESIAN_POINT ( 'NONE',  ( 0.000000000000000000, 0.000000000000000000, 0.000000000000000000 ) ) ;
#94 = ORIENTED_EDGE ( 'NONE', *, *, #194, .F. ) ;
#95 = CIRCLE ( 'NONE', #231, 4.040000000000000036 ) ;
#96 = DIRECTION ( 'NONE',  ( -0.000000000000000000, -0.000000000000000000, -1.000000000000000000 ) ) ;
#97 = PRODUCT ( '电池架正极垫圈', '电池架正极垫圈', '', ( #131 ) ) ;
#98 = CARTESIAN_POINT ( 'NONE',  ( 0.000000000000000000, 0.000000000000000000, 3.850000000000000089 ) ) ;
#99 = EDGE_CURVE ( 'NONE', #111, #259, #198, .T. ) ;
#100 = DIRECTION ( 'NONE',  ( -0.000000000000000000, -0.000000000000000000, -1.000000000000000000 ) ) ;
#101 = CARTESIAN_POINT ( 'NONE',  ( 0.000000000000000000, 0.000000000000000000, 3.850000000000000089 ) ) ;
#102 = CARTESIAN_POINT ( 'NONE',  ( 0.000000000000000000, 0.000000000000000000, 0.000000000000000000 ) ) ;
#103 = CARTESIAN_POINT ( 'NONE',  ( -4.339999999999989200, 0.000000000000000000, 0.000000000000000000 ) ) ;
#104 = DIRECTION ( 'NONE',  ( 1.000000000000000000, 0.000000000000000000, 0.000000000000000000 ) ) ;
#105 = EDGE_CURVE ( 'NONE', #186, #134, #8, .T. ) ;
#106 =( NAMED_UNIT ( * ) SI_UNIT ( $, .STERADIAN. ) SOLID_ANGLE_UNIT ( ) );
#107 = VECTOR ( 'NONE', #227, 1000.000000000000000 ) ;
#108 = ORIENTED_EDGE ( 'NONE', *, *, #99, .T. ) ;
#109 = ORIENTED_EDGE ( 'NONE', *, *, #136, .F. ) ;
#110 = ORIENTED_EDGE ( 'NONE', *, *, #313, .F. ) ;
#111 = VERTEX_POINT ( 'NONE', #69 ) ;
#112 = ORIENTED_EDGE ( 'NONE', *, *, #99, .F. ) ;
#113 = PRODUCT_RELATED_PRODUCT_CATEGORY ( 'part', '', ( #97 ) ) ;
#114 = CARTESIAN_POINT ( 'NONE',  ( 10.75000000000000000, 1.316495309083404223E-15, 3.850000000000000089 ) ) ;
#115 = AXIS2_PLACEMENT_3D ( 'NONE', #82, #307, #205 ) ;
#116 = MECHANICAL_DESIGN_GEOMETRIC_PRESENTATION_REPRESENTATION (  '', ( #215 ), #269 ) ;
#117 = DIRECTION ( 'NONE',  ( 0.000000000000000000, 0.000000000000000000, 1.000000000000000000 ) ) ;
#118 = AXIS2_PLACEMENT_3D ( 'NONE', #228, #33, #247 ) ;
#119 = DIRECTION ( 'NONE',  ( -0.000000000000000000, -0.000000000000000000, -1.000000000000000000 ) ) ;
#120 = DIRECTION ( 'NONE',  ( 1.000000000000000000, 0.000000000000000000, 0.000000000000000000 ) ) ;
#121 = CIRCLE ( 'NONE', #138, 10.45000000000001705 ) ;
#122 =( LENGTH_UNIT ( ) NAMED_UNIT ( * ) SI_UNIT ( .MILLI., .METRE. ) );
#123 = DIRECTION ( 'NONE',  ( 1.000000000000000000, 0.000000000000000000, 0.000000000000000000 ) ) ;
#124 = CARTESIAN_POINT ( 'NONE',  ( 0.000000000000000000, 0.000000000000000000, 3.850000000000000089 ) ) ;
#125 = FILL_AREA_STYLE_COLOUR ( '', #201 ) ;
#126 = EDGE_CURVE ( 'NONE', #186, #91, #158, .T. ) ;
#127 = FACE_OUTER_BOUND ( 'NONE', #280, .T. ) ;
#128 = DIRECTION ( 'NONE',  ( 0.000000000000000000, 0.000000000000000000, 1.000000000000000000 ) ) ;
#129 = ORIENTED_EDGE ( 'NONE', *, *, #253, .T. ) ;
#130 = AXIS2_PLACEMENT_3D ( 'NONE', #124, #152, #154 ) ;
#131 = PRODUCT_CONTEXT ( 'NONE', #308, 'mechanical' ) ;
#132 = STYLED_ITEM ( 'NONE', ( #255 ), #23 ) ;
#133 = CYLINDRICAL_SURFACE ( 'NONE', #118, 10.75000000000000000 ) ;
#134 = VERTEX_POINT ( 'NONE', #271 ) ;
#135 = ORIENTED_EDGE ( 'NONE', *, *, #226, .F. ) ;
#136 = EDGE_CURVE ( 'NONE', #294, #166, #121, .T. ) ;
#137 = ORIENTED_EDGE ( 'NONE', *, *, #313, .T. ) ;
#138 = AXIS2_PLACEMENT_3D ( 'NONE', #101, #167, #264 ) ;
#139 = ORIENTED_EDGE ( 'NONE', *, *, #218, .T. ) ;
#140 = ADVANCED_FACE ( 'NONE', ( #195 ), #213, .F. ) ;
#141 = CARTESIAN_POINT ( 'NONE',  ( 0.000000000000000000, 0.000000000000000000, 3.550000000000019362 ) ) ;
#142 = DIRECTION ( 'NONE',  ( 1.000000000000000000, 0.000000000000000000, 0.000000000000000000 ) ) ;
#143 = AXIS2_PLACEMENT_3D ( 'NONE', #192, #171, #66 ) ;
#144 = DIRECTION ( 'NONE',  ( 0.000000000000000000, 0.000000000000000000, -1.000000000000000000 ) ) ;
#145 = DIRECTION ( 'NONE',  ( -0.000000000000000000, -0.000000000000000000, -1.000000000000000000 ) ) ;
#146 = AXIS2_PLACEMENT_3D ( 'NONE', #169, #117, #120 ) ;
#147 = VECTOR ( 'NONE', #119, 1000.000000000000000 ) ;
#148 = DIRECTION ( 'NONE',  ( 0.000000000000000000, 0.000000000000000000, 1.000000000000000000 ) ) ;
#149 = CARTESIAN_POINT ( 'NONE',  ( 10.45000000000001705, 1.279755905108986124E-15, 3.850000000000000089 ) ) ;
#150 =( NAMED_UNIT ( * ) PLANE_ANGLE_UNIT ( ) SI_UNIT ( $, .RADIAN. ) );
#151 = ADVANCED_FACE ( 'NONE', ( #25, #46 ), #73, .F. ) ;
#152 = DIRECTION ( 'NONE',  ( 0.000000000000000000, 0.000000000000000000, -1.000000000000000000 ) ) ;
#153 = DIRECTION ( 'NONE',  ( -0.000000000000000000, -0.000000000000000000, -1.000000000000000000 ) ) ;
#154 = DIRECTION ( 'NONE',  ( -1.000000000000000000, 0.000000000000000000, 0.000000000000000000 ) ) ;
#155 = CARTESIAN_POINT ( 'NONE',  ( 0.000000000000000000, 0.000000000000000000, 0.000000000000000000 ) ) ;
#156 = CARTESIAN_POINT ( 'NONE',  ( -10.45000000000001705, 0.000000000000000000, 3.850000000000000089 ) ) ;
#157 = DIRECTION ( 'NONE',  ( 1.000000000000000000, 0.000000000000000000, 0.000000000000000000 ) ) ;
#158 = CIRCLE ( 'NONE', #172, 10.75000000000000000 ) ;
#159 = FACE_OUTER_BOUND ( 'NONE', #187, .T. ) ;
#160 = CONICAL_SURFACE ( 'NONE', #65, 4.339999999999989200, 0.7853981633974453924 ) ;
#161 = ORIENTED_EDGE ( 'NONE', *, *, #105, .T. ) ;
#162 = CIRCLE ( 'NONE', #238, 4.040000000000000036 ) ;
#163 = ORIENTED_EDGE ( 'NONE', *, *, #126, .F. ) ;
#164 = EDGE_CURVE ( 'NONE', #91, #283, #24, .T. ) ;
#165 = ORIENTED_EDGE ( 'NONE', *, *, #249, .T. ) ;
#166 = VERTEX_POINT ( 'NONE', #217 ) ;
#167 = DIRECTION ( 'NONE',  ( 0.000000000000000000, 0.000000000000000000, 1.000000000000000000 ) ) ;
#168 = EDGE_LOOP ( 'NONE', ( #45, #209, #94, #288 ) ) ;
#169 = CARTESIAN_POINT ( 'NONE',  ( 0.000000000000000000, 0.000000000000000000, 0.000000000000000000 ) ) ;
#170 = FACE_OUTER_BOUND ( 'NONE', #42, .T. ) ;
#171 = DIRECTION ( 'NONE',  ( -0.000000000000000000, -0.000000000000000000, -1.000000000000000000 ) ) ;
#172 = AXIS2_PLACEMENT_3D ( 'NONE', #141, #216, #219 ) ;
#173 = ADVANCED_FACE ( 'NONE', ( #170 ), #160, .F. ) ;
#174 = DIRECTION ( 'NONE',  ( 0.000000000000000000, 0.000000000000000000, 1.000000000000000000 ) ) ;
#175 = CARTESIAN_POINT ( 'NONE',  ( 4.040000000000000036, 4.947573068555306849E-16, 0.2999999999999903855 ) ) ;
#176 = FACE_OUTER_BOUND ( 'NONE', #312, .T. ) ;
#177 = DIRECTION ( 'NONE',  ( 1.000000000000000000, 0.000000000000000000, 0.000000000000000000 ) ) ;
#178 = UNCERTAINTY_MEASURE_WITH_UNIT (LENGTH_MEASURE( 1.000000000000000082E-05 ), #40, 'distance_accuracy_value', 'NONE');
#179 = LINE ( 'NONE', #156, #90 ) ;
#180 = APPLICATION_CONTEXT ( 'automotive_design' ) ;
#181 = CARTESIAN_POINT ( 'NONE',  ( 0.000000000000000000, 0.000000000000000000, 0.000000000000000000 ) ) ;
#182 = EDGE_LOOP ( 'NONE', ( #233, #60 ) ) ;
#183 = PRODUCT_DEFINITION_FORMATION_WITH_SPECIFIED_SOURCE ( '任何', '', #97, .NOT_KNOWN. ) ;
#184 = AXIS2_PLACEMENT_3D ( 'NONE', #305, #128, #275 ) ;
#185 = ADVANCED_FACE ( 'NONE', ( #295, #68 ), #193, .T. ) ;
#186 = VERTEX_POINT ( 'NONE', #297 ) ;
#187 = EDGE_LOOP ( 'NONE', ( #261, #64, #18, #41 ) ) ;
#188 = DIRECTION ( 'NONE',  ( 1.000000000000000000, 0.000000000000000000, -0.000000000000000000 ) ) ;
#189 = VECTOR ( 'NONE', #54, 1000.000000000000000 ) ;
#190 = ORIENTED_EDGE ( 'NONE', *, *, #83, .T. ) ;
#191 = DIRECTION ( 'NONE',  ( -1.000000000000000000, 0.000000000000000000, 0.000000000000000000 ) ) ;
#192 = CARTESIAN_POINT ( 'NONE',  ( 0.000000000000000000, 0.000000000000000000, 3.850000000000000089 ) ) ;
#193 = PLANE ( 'NONE',  #200 ) ;
#194 = EDGE_CURVE ( 'NONE', #91, #186, #29, .T. ) ;
#195 = FACE_OUTER_BOUND ( 'NONE', #208, .T. ) ;
#196 = ADVANCED_FACE ( 'NONE', ( #237 ), #4, .T. ) ;
#197 = CARTESIAN_POINT ( 'NONE',  ( 4.339999999999989200, 5.314967108299498685E-16, 0.000000000000000000 ) ) ;
#198 = CIRCLE ( 'NONE', #146, 4.339999999999989200 ) ;
#199 = FILL_AREA_STYLE ('',( #245 ) ) ;
#200 = AXIS2_PLACEMENT_3D ( 'NONE', #268, #48, #6 ) ;
#201 = COLOUR_RGB ( '',1.000000000000000000, 1.000000000000000000, 1.000000000000000000 ) ;
#202 = CARTESIAN_POINT ( 'NONE',  ( 0.000000000000000000, 0.000000000000000000, 3.850000000000000089 ) ) ;
#203 =( NAMED_UNIT ( * ) SI_UNIT ( $, .STERADIAN. ) SOLID_ANGLE_UNIT ( ) );
#204 = CARTESIAN_POINT ( 'NONE',  ( -4.040000000000000036, 0.000000000000000000, 3.850000000000000089 ) ) ;
#205 = DIRECTION ( 'NONE',  ( -1.000000000000000000, 0.000000000000000000, 0.000000000000000000 ) ) ;
#206 = CARTESIAN_POINT ( 'NONE',  ( 0.000000000000000000, 0.000000000000000000, 0.2999999999999903855 ) ) ;
#207 = AXIS2_PLACEMENT_3D ( 'NONE', #266, #47, #142 ) ;
#208 = EDGE_LOOP ( 'NONE', ( #309, #212, #165, #14 ) ) ;
#209 = ORIENTED_EDGE ( 'NONE', *, *, #226, .T. ) ;
#210 = VERTEX_POINT ( 'NONE', #175 ) ;
#211 = ORIENTED_EDGE ( 'NONE', *, *, #293, .T. ) ;
#212 = ORIENTED_EDGE ( 'NONE', *, *, #303, .T. ) ;
#213 = CYLINDRICAL_SURFACE ( 'NONE', #300, 4.040000000000000036 ) ;
#214 = CIRCLE ( 'NONE', #75, 10.45000000000001705 ) ;
#215 = STYLED_ITEM ( 'NONE', ( #87 ), #43 ) ;
#216 = DIRECTION ( 'NONE',  ( 0.000000000000000000, 0.000000000000000000, -1.000000000000000000 ) ) ;
#217 = CARTESIAN_POINT ( 'NONE',  ( 10.45000000000001705, 1.298125607096195568E-15, 3.850000000000000089 ) ) ;
#218 = EDGE_CURVE ( 'NONE', #210, #111, #56, .T. ) ;
#219 = DIRECTION ( 'NONE',  ( 1.000000000000000000, 0.000000000000000000, 0.000000000000000000 ) ) ;
#220 = DIRECTION ( 'NONE',  ( 1.000000000000000000, 0.000000000000000000, 0.000000000000000000 ) ) ;
#221 = CARTESIAN_POINT ( 'NONE',  ( 0.000000000000000000, 0.000000000000000000, 3.850000000000000089 ) ) ;
#222 = DIRECTION ( 'NONE',  ( -0.000000000000000000, -0.000000000000000000, -1.000000000000000000 ) ) ;
#223 = AXIS2_PLACEMENT_3D ( 'NONE', #155, #222, #11 ) ;
#224 = CARTESIAN_POINT ( 'NONE',  ( -10.45000000000001705, 0.000000000000000000, 3.850000000000000089 ) ) ;
#225 = CYLINDRICAL_SURFACE ( 'NONE', #115, 4.040000000000000036 ) ;
#226 = EDGE_CURVE ( 'NONE', #166, #186, #52, .T. ) ;
#227 = DIRECTION ( 'NONE',  ( -0.7071067811865454633, 0.000000000000000000, -0.7071067811865495711 ) ) ;
#228 = CARTESIAN_POINT ( 'NONE',  ( 0.000000000000000000, 0.000000000000000000, 3.850000000000000089 ) ) ;
#229 = PRODUCT_DEFINITION ( '未知', '', #183, #13 ) ;
#230 = SURFACE_STYLE_USAGE ( .BOTH. , #35 ) ;
#231 = AXIS2_PLACEMENT_3D ( 'NONE', #299, #53, #177 ) ;
#232 = ORIENTED_EDGE ( 'NONE', *, *, #30, .T. ) ;
#233 = ORIENTED_EDGE ( 'NONE', *, *, #19, .F. ) ;
#234 = EDGE_LOOP ( 'NONE', ( #92, #161, #232, #311 ) ) ;
#235 = ORIENTED_EDGE ( 'NONE', *, *, #289, .T. ) ;
#236 = DIRECTION ( 'NONE',  ( 0.000000000000000000, 0.000000000000000000, 1.000000000000000000 ) ) ;
#237 = FACE_OUTER_BOUND ( 'NONE', #168, .T. ) ;
#238 = AXIS2_PLACEMENT_3D ( 'NONE', #251, #174, #220 ) ;
#239 = PRESENTATION_LAYER_ASSIGNMENT (  '', '', ( #132 ) ) ;
#240 = DIRECTION ( 'NONE',  ( -1.000000000000000000, 0.000000000000000000, 0.000000000000000000 ) ) ;
#241 = EDGE_CURVE ( 'NONE', #17, #259, #246, .T. ) ;
#242 = LINE ( 'NONE', #49, #282 ) ;
#243 = VECTOR ( 'NONE', #274, 1000.000000000000000 ) ;
#244 = FACE_OUTER_BOUND ( 'NONE', #2, .T. ) ;
#245 = FILL_AREA_STYLE_COLOUR ( '', #76 ) ;
#246 = LINE ( 'NONE', #306, #107 ) ;
#247 = DIRECTION ( 'NONE',  ( -1.000000000000000000, 0.000000000000000000, 0.000000000000000000 ) ) ;
#248 = CARTESIAN_POINT ( 'NONE',  ( 4.040000000000000036, 4.947573068555306849E-16, 3.850000000000000089 ) ) ;
#249 = EDGE_CURVE ( 'NONE', #44, #17, #31, .T. ) ;
#250 =( NAMED_UNIT ( * ) PLANE_ANGLE_UNIT ( ) SI_UNIT ( $, .RADIAN. ) );
#251 = CARTESIAN_POINT ( 'NONE',  ( 0.000000000000000000, 0.000000000000000000, 3.850000000000000089 ) ) ;
#252 = SURFACE_STYLE_FILL_AREA ( #281 ) ;
#253 = EDGE_CURVE ( 'NONE', #210, #17, #95, .T. ) ;
#254 = DIRECTION ( 'NONE',  ( -0.7071067811865495711, 0.000000000000000000, -0.7071067811865454633 ) ) ;
#255 = PRESENTATION_STYLE_ASSIGNMENT (( #230 ) ) ;
#256 = CIRCLE ( 'NONE', #72, 4.339999999999989200 ) ;
#257 = CIRCLE ( 'NONE', #61, 4.040000000000000036 ) ;
#258 = AXIS2_PLACEMENT_3D ( 'NONE', #181, #59, #104 ) ;
#259 = VERTEX_POINT ( 'NONE', #103 ) ;
#260 = CARTESIAN_POINT ( 'NONE',  ( 0.000000000000000000, 0.000000000000000000, 0.000000000000000000 ) ) ;
#261 = ORIENTED_EDGE ( 'NONE', *, *, #105, .F. ) ;
#262 = ORIENTED_EDGE ( 'NONE', *, *, #303, .F. ) ;
#263 = EDGE_LOOP ( 'NONE', ( #110, #262 ) ) ;
#264 = DIRECTION ( 'NONE',  ( 1.000000000000000000, 0.000000000000000000, 0.000000000000000000 ) ) ;
#265 = ORIENTED_EDGE ( 'NONE', *, *, #241, .F. ) ;
#266 = CARTESIAN_POINT ( 'NONE',  ( 0.000000000000000000, 0.000000000000000000, 3.550000000000019362 ) ) ;
#267 = PRODUCT_DEFINITION_SHAPE ( 'NONE', 'NONE',  #229 ) ;
#268 = CARTESIAN_POINT ( 'NONE',  ( 0.000000000000000000, 0.000000000000000000, 3.850000000000000089 ) ) ;
#269 =( GEOMETRIC_REPRESENTATION_CONTEXT ( 3 ) GLOBAL_UNCERTAINTY_ASSIGNED_CONTEXT ( ( #84 ) ) GLOBAL_UNIT_ASSIGNED_CONTEXT ( ( #277, #250, #203 ) ) REPRESENTATION_CONTEXT ( 'NONE', 'WORKASPACE' ) );
#270 = CIRCLE ( 'NONE', #38, 4.040000000000000036 ) ;
#271 = CARTESIAN_POINT ( 'NONE',  ( 10.75000000000000000, 1.316495309083404223E-15, 0.000000000000000000 ) ) ;
#272 = MECHANICAL_DESIGN_GEOMETRIC_PRESENTATION_REPRESENTATION (  '', ( #132 ), #286 ) ;
#273 = DIRECTION ( 'NONE',  ( 0.7071067811865495711, 8.659560562354957510E-17, -0.7071067811865454633 ) ) ;
#274 = DIRECTION ( 'NONE',  ( 0.7071067811865454633, 8.659560562354908206E-17, -0.7071067811865495711 ) ) ;
#275 = DIRECTION ( 'NONE',  ( 1.000000000000000000, 0.000000000000000000, 0.000000000000000000 ) ) ;
#276 = ADVANCED_FACE ( 'NONE', ( #244 ), #51, .T. ) ;
#277 =( LENGTH_UNIT ( ) NAMED_UNIT ( * ) SI_UNIT ( .MILLI., .METRE. ) );
#278 = DIRECTION ( 'NONE',  ( 1.000000000000000000, 0.000000000000000000, 0.000000000000000000 ) ) ;
#279 = CARTESIAN_POINT ( 'NONE',  ( -4.040000000000000036, 0.000000000000000000, 0.2999999999999903855 ) ) ;
#280 = EDGE_LOOP ( 'NONE', ( #137, #190, #129, #79 ) ) ;
#281 = FILL_AREA_STYLE ('',( #125 ) ) ;
#282 = VECTOR ( 'NONE', #145, 1000.000000000000000 ) ;
#283 = VERTEX_POINT ( 'NONE', #32 ) ;
#284 = APPLICATION_PROTOCOL_DEFINITION ( 'draft international standard', 'automotive_design', 1998, #308 ) ;
#285 = AXIS2_PLACEMENT_3D ( 'NONE', #260, #55, #157 ) ;
#286 =( GEOMETRIC_REPRESENTATION_CONTEXT ( 3 ) GLOBAL_UNCERTAINTY_ASSIGNED_CONTEXT ( ( #178 ) ) GLOBAL_UNIT_ASSIGNED_CONTEXT ( ( #40, #150, #106 ) ) REPRESENTATION_CONTEXT ( 'NONE', 'WORKASPACE' ) );
#287 = EDGE_LOOP ( 'NONE', ( #211, #108 ) ) ;
#288 = ORIENTED_EDGE ( 'NONE', *, *, #50, .F. ) ;
#289 = EDGE_CURVE ( 'NONE', #166, #294, #214, .T. ) ;
#290 = ORIENTED_EDGE ( 'NONE', *, *, #50, .T. ) ;
#291 = CYLINDRICAL_SURFACE ( 'NONE', #143, 10.75000000000000000 ) ;
#292 = AXIS2_PLACEMENT_3D ( 'NONE', #98, #144, #240 ) ;
#293 = EDGE_CURVE ( 'NONE', #259, #111, #256, .T. ) ;
#294 = VERTEX_POINT ( 'NONE', #224 ) ;
#295 = FACE_OUTER_BOUND ( 'NONE', #67, .T. ) ;
#296 = CARTESIAN_POINT ( 'NONE',  ( -10.75000000000000000, 0.000000000000000000, 3.550000000000019362 ) ) ;
#297 = CARTESIAN_POINT ( 'NONE',  ( 10.75000000000000000, 1.316495309083404223E-15, 3.550000000000019362 ) ) ;
#298 = DIRECTION ( 'NONE',  ( -1.000000000000000000, 0.000000000000000000, 0.000000000000000000 ) ) ;
#299 = CARTESIAN_POINT ( 'NONE',  ( 0.000000000000000000, 0.000000000000000000, 0.2999999999999903855 ) ) ;
#300 = AXIS2_PLACEMENT_3D ( 'NONE', #71, #26, #298 ) ;
#301 =( GEOMETRIC_REPRESENTATION_CONTEXT ( 3 ) GLOBAL_UNCERTAINTY_ASSIGNED_CONTEXT ( ( #10 ) ) GLOBAL_UNIT_ASSIGNED_CONTEXT ( ( #122, #9, #304 ) ) REPRESENTATION_CONTEXT ( 'NONE', 'WORKASPACE' ) );
#302 = SURFACE_STYLE_FILL_AREA ( #199 ) ;
#303 = EDGE_CURVE ( 'NONE', #63, #44, #257, .T. ) ;
#304 =( NAMED_UNIT ( * ) SI_UNIT ( $, .STERADIAN. ) SOLID_ANGLE_UNIT ( ) );
#305 = CARTESIAN_POINT ( 'NONE',  ( 0.000000000000000000, 0.000000000000000000, 0.000000000000000000 ) ) ;
#306 = CARTESIAN_POINT ( 'NONE',  ( -4.339999999999989200, 0.000000000000000000, 0.000000000000000000 ) ) ;
#307 = DIRECTION ( 'NONE',  ( -0.000000000000000000, -0.000000000000000000, -1.000000000000000000 ) ) ;
#308 = APPLICATION_CONTEXT ( 'automotive_design' ) ;
#309 = ORIENTED_EDGE ( 'NONE', *, *, #83, .F. ) ;
#310 = SHAPE_DEFINITION_REPRESENTATION ( #267, #43 ) ;
#311 = ORIENTED_EDGE ( 'NONE', *, *, #164, .F. ) ;
#312 = EDGE_LOOP ( 'NONE', ( #20, #22, #88, #112 ) ) ;
#313 = EDGE_CURVE ( 'NONE', #44, #63, #162, .T. ) ;
#314 = ORIENTED_EDGE ( 'NONE', *, *, #293, .F. ) ;
ENDSEC;
END-ISO-10303-21;
