ISO-10303-21;
HEADER;
FILE_DESCRIPTION (( 'STEP AP214' ),
    '1' );
FILE_NAME ('专用定位片-FL7018I-ES-PA6GF.STEP',
    '2025-07-30T08:13:51',
    ( '' ),
    ( '' ),
    'SwSTEP 2.0',
    'SolidWorks 2021',
    '' );
FILE_SCHEMA (( 'AUTOMOTIVE_DESIGN' ));
ENDSEC;

DATA;
#1 = VECTOR ( 'NONE', #476, 1000.000000000000000 ) ;
#2 = ORIENTED_EDGE ( 'NONE', *, *, #57, .F. ) ;
#3 = AXIS2_PLACEMENT_3D ( 'NONE', #545, #178, #320 ) ;
#4 = AXIS2_PLACEMENT_3D ( 'NONE', #595, #885, #601 ) ;
#5 = CARTESIAN_POINT ( 'NONE',  ( 3.303371831276084247, 3.596628168723911667, 0.6399999999999999023 ) ) ;
#6 = EDGE_CURVE ( 'NONE', #594, #589, #578, .T. ) ;
#7 = DIRECTION ( 'NONE',  ( 1.000000000000000000, 0.000000000000000000, 0.000000000000000000 ) ) ;
#8 = ORIENTED_EDGE ( 'NONE', *, *, #314, .F. ) ;
#9 = EDGE_CURVE ( 'NONE', #59, #927, #932, .T. ) ;
#10 = CARTESIAN_POINT ( 'NONE',  ( 3.490000000000000657, 3.196743662552154142, 0.000000000000000000 ) ) ;
#11 = VERTEX_POINT ( 'NONE', #872 ) ;
#12 = VECTOR ( 'NONE', #277, 1000.000000000000000 ) ;
#13 = DIRECTION ( 'NONE',  ( -0.000000000000000000, -0.000000000000000000, -1.000000000000000000 ) ) ;
#14 = AXIS2_PLACEMENT_3D ( 'NONE', #525, #910, #467 ) ;
#15 = VERTEX_POINT ( 'NONE', #935 ) ;
#16 = VECTOR ( 'NONE', #773, 1000.000000000000000 ) ;
#17 = CARTESIAN_POINT ( 'NONE',  ( 5.099999999999999645, 6.245698675651500839E-16, 0.6399999999999999023 ) ) ;
#18 = CARTESIAN_POINT ( 'NONE',  ( -3.657363544835296576, 3.449999999999999734, 0.000000000000000000 ) ) ;
#19 = CARTESIAN_POINT ( 'NONE',  ( 0.1466281687238970843, -0.1466281687238953635, 0.000000000000000000 ) ) ;
#20 = CARTESIAN_POINT ( 'NONE',  ( 3.196743662552172793, 3.489999999999999769, 10.51121066536420479 ) ) ;
#21 = DIRECTION ( 'NONE',  ( 1.000000000000000000, 0.000000000000000000, 0.000000000000000000 ) ) ;
#22 = ORIENTED_EDGE ( 'NONE', *, *, #700, .F. ) ;
#23 = CARTESIAN_POINT ( 'NONE',  ( 0.1466281687238970843, -0.1466281687238953635, 0.6399999999999999023 ) ) ;
#24 = CARTESIAN_POINT ( 'NONE',  ( 3.596628168723918328, -3.303371831276079362, 1.719700436986667524 ) ) ;
#25 = CIRCLE ( 'NONE', #395, 5.400000000000005684 ) ;
#26 = CARTESIAN_POINT ( 'NONE',  ( 0.000000000000000000, 0.000000000000000000, 0.6500000000000000222 ) ) ;
#27 = VERTEX_POINT ( 'NONE', #128 ) ;
#28 = AXIS2_PLACEMENT_3D ( 'NONE', #378, #311, #623 ) ;
#29 = DIRECTION ( 'NONE',  ( -0.000000000000000000, -0.000000000000000000, -1.000000000000000000 ) ) ;
#30 = PRODUCT_CONTEXT ( 'NONE', #193, 'mechanical' ) ;
#31 = VERTEX_POINT ( 'NONE', #264 ) ;
#32 = EDGE_CURVE ( 'NONE', #228, #484, #418, .T. ) ;
#33 = ORIENTED_EDGE ( 'NONE', *, *, #740, .T. ) ;
#34 = LINE ( 'NONE', #796, #241 ) ;
#35 = SURFACE_SIDE_STYLE ('',( #947 ) ) ;
#36 = ORIENTED_EDGE ( 'NONE', *, *, #166, .T. ) ;
#37 = EDGE_CURVE ( 'NONE', #11, #727, #34, .T. ) ;
#38 = ORIENTED_EDGE ( 'NONE', *, *, #765, .T. ) ;
#39 = VERTEX_POINT ( 'NONE', #501 ) ;
#40 = ADVANCED_FACE ( 'NONE', ( #417 ), #946, .F. ) ;
#41 = ORIENTED_EDGE ( 'NONE', *, *, #250, .T. ) ;
#42 = VERTEX_POINT ( 'NONE', #722 ) ;
#43 = CARTESIAN_POINT ( 'NONE',  ( -3.657363544835296576, 3.449999999999999734, 0.6399999999999999023 ) ) ;
#44 = ORIENTED_EDGE ( 'NONE', *, *, #797, .F. ) ;
#45 = CIRCLE ( 'NONE', #185, 0.2073635448352961486 ) ;
#46 = CARTESIAN_POINT ( 'NONE',  ( 0.000000000000000000, 0.000000000000000000, 1.500000000000000000 ) ) ;
#47 = AXIS2_PLACEMENT_3D ( 'NONE', #464, #156, #902 ) ;
#48 = ORIENTED_EDGE ( 'NONE', *, *, #508, .T. ) ;
#49 = VECTOR ( 'NONE', #633, 1000.000000000000000 ) ;
#50 = PRESENTATION_STYLE_ASSIGNMENT (( #211 ) ) ;
#51 = SURFACE_STYLE_USAGE ( .BOTH. , #35 ) ;
#52 = ORIENTED_EDGE ( 'NONE', *, *, #700, .T. ) ;
#53 = ORIENTED_EDGE ( 'NONE', *, *, #316, .F. ) ;
#54 = ORIENTED_EDGE ( 'NONE', *, *, #454, .F. ) ;
#55 = CARTESIAN_POINT ( 'NONE',  ( 3.596628168723917884, -3.303371831276079362, 0.6399999999999999023 ) ) ;
#56 = DIRECTION ( 'NONE',  ( 0.7071067811865516806, 0.7071067811865434649, 0.000000000000000000 ) ) ;
#57 = EDGE_CURVE ( 'NONE', #561, #589, #45, .T. ) ;
#58 = DIRECTION ( 'NONE',  ( 0.000000000000000000, 0.000000000000000000, -1.000000000000000000 ) ) ;
#59 = VERTEX_POINT ( 'NONE', #650 ) ;
#60 = CARTESIAN_POINT ( 'NONE',  ( -0.1466281687239265330, 0.1466281687239259779, 0.6399999999999999023 ) ) ;
#61 = CARTESIAN_POINT ( 'NONE',  ( -3.596628168723919661, 3.303371831276082471, 1.719700436986667524 ) ) ;
#62 = DIRECTION ( 'NONE',  ( 1.000000000000000000, 0.000000000000000000, 0.000000000000000000 ) ) ;
#63 = ORIENTED_EDGE ( 'NONE', *, *, #768, .T. ) ;
#64 = ORIENTED_EDGE ( 'NONE', *, *, #182, .T. ) ;
#65 = VECTOR ( 'NONE', #541, 1000.000000000000000 ) ;
#66 = CIRCLE ( 'NONE', #667, 8.000000000000000000 ) ;
#67 = EDGE_LOOP ( 'NONE', ( #441, #798 ) ) ;
#68 = ADVANCED_FACE ( 'NONE', ( #799 ), #492, .F. ) ;
#69 = CARTESIAN_POINT ( 'NONE',  ( -3.450000000000001954, -3.449999999999999289, 1.226512674895674504 ) ) ;
#70 = EDGE_LOOP ( 'NONE', ( #198, #190 ) ) ;
#71 = LINE ( 'NONE', #822, #585 ) ;
#72 = ORIENTED_EDGE ( 'NONE', *, *, #528, .F. ) ;
#73 = CARTESIAN_POINT ( 'NONE',  ( 3.196743662552173237, 3.490000000000000213, 0.6399999999999999023 ) ) ;
#74 = EDGE_CURVE ( 'NONE', #389, #739, #728, .T. ) ;
#75 = LINE ( 'NONE', #774, #692 ) ;
#76 = ORIENTED_EDGE ( 'NONE', *, *, #548, .F. ) ;
#77 = CARTESIAN_POINT ( 'NONE',  ( 0.000000000000000000, 0.000000000000000000, 1.500000000000000000 ) ) ;
#78 = CARTESIAN_POINT ( 'NONE',  ( 3.490000000000001101, -3.490000000000000657, 0.000000000000000000 ) ) ;
#79 = LINE ( 'NONE', #658, #771 ) ;
#80 = ADVANCED_FACE ( 'NONE', ( #863 ), #113, .T. ) ;
#81 = MECHANICAL_DESIGN_GEOMETRIC_PRESENTATION_REPRESENTATION (  '', ( #321 ), #614 ) ;
#82 = VECTOR ( 'NONE', #289, 1000.000000000000000 ) ;
#83 = CYLINDRICAL_SURFACE ( 'NONE', #770, 0.2073635448352961486 ) ;
#84 = CARTESIAN_POINT ( 'NONE',  ( -3.596628168723921881, -3.303371831276081139, 0.6399999999999999023 ) ) ;
#85 = EDGE_CURVE ( 'NONE', #15, #118, #888, .T. ) ;
#86 = FACE_OUTER_BOUND ( 'NONE', #376, .T. ) ;
#87 = DIRECTION ( 'NONE',  ( 0.000000000000000000, 0.000000000000000000, -1.000000000000000000 ) ) ;
#88 = CYLINDRICAL_SURFACE ( 'NONE', #367, 0.2073635448352961486 ) ;
#89 = ORIENTED_EDGE ( 'NONE', *, *, #900, .F. ) ;
#90 = DIRECTION ( 'NONE',  ( 0.000000000000000000, 0.000000000000000000, -1.000000000000000000 ) ) ;
#91 = DIRECTION ( 'NONE',  ( 0.000000000000000000, 0.000000000000000000, 1.000000000000000000 ) ) ;
#92 = DIRECTION ( 'NONE',  ( 0.000000000000000000, 0.000000000000000000, -1.000000000000000000 ) ) ;
#93 = VECTOR ( 'NONE', #685, 1000.000000000000000 ) ;
#94 = CARTESIAN_POINT ( 'NONE',  ( -3.596628168723920105, 3.303371831276082915, 0.6399999999999999023 ) ) ;
#95 = VECTOR ( 'NONE', #628, 1000.000000000000000 ) ;
#96 = CARTESIAN_POINT ( 'NONE',  ( -0.1466281687239253118, -0.1466281687239247844, 0.6399999999999999023 ) ) ;
#97 = CARTESIAN_POINT ( 'NONE',  ( -0.1466281687239265330, 0.1466281687239259779, 0.000000000000000000 ) ) ;
#98 = ORIENTED_EDGE ( 'NONE', *, *, #599, .F. ) ;
#99 = ADVANCED_FACE ( 'NONE', ( #510 ), #791, .F. ) ;
#100 = PLANE ( 'NONE',  #351 ) ;
#101 = DIRECTION ( 'NONE',  ( 0.000000000000000000, 0.000000000000000000, -1.000000000000000000 ) ) ;
#102 = EDGE_LOOP ( 'NONE', ( #267, #186 ) ) ;
#103 = EDGE_CURVE ( 'NONE', #583, #727, #681, .T. ) ;
#104 = CARTESIAN_POINT ( 'NONE',  ( -3.450000000000001954, -3.449999999999999289, 0.6399999999999999023 ) ) ;
#105 = AXIS2_PLACEMENT_3D ( 'NONE', #557, #238, #396 ) ;
#106 = VERTEX_POINT ( 'NONE', #455 ) ;
#107 = VECTOR ( 'NONE', #114, 1000.000000000000000 ) ;
#108 = DIRECTION ( 'NONE',  ( -1.000000000000000000, 0.000000000000000000, 0.000000000000000000 ) ) ;
#109 = PLANE ( 'NONE',  #243 ) ;
#110 = EDGE_CURVE ( 'NONE', #484, #228, #294, .T. ) ;
#111 = VERTEX_POINT ( 'NONE', #17 ) ;
#112 = VERTEX_POINT ( 'NONE', #788 ) ;
#113 = PLANE ( 'NONE',  #524 ) ;
#114 = DIRECTION ( 'NONE',  ( -1.000000000000000000, -0.000000000000000000, -0.000000000000000000 ) ) ;
#115 = ORIENTED_EDGE ( 'NONE', *, *, #949, .F. ) ;
#116 = FACE_OUTER_BOUND ( 'NONE', #654, .T. ) ;
#117 = DIRECTION ( 'NONE',  ( 0.000000000000000000, 0.000000000000000000, 1.000000000000000000 ) ) ;
#118 = VERTEX_POINT ( 'NONE', #914 ) ;
#119 = DIRECTION ( 'NONE',  ( -0.000000000000000000, -0.000000000000000000, -1.000000000000000000 ) ) ;
#120 = EDGE_CURVE ( 'NONE', #834, #660, #180, .T. ) ;
#121 = VECTOR ( 'NONE', #767, 1000.000000000000000 ) ;
#122 = DIRECTION ( 'NONE',  ( 1.000000000000000000, 0.000000000000000000, 0.000000000000000000 ) ) ;
#123 = VECTOR ( 'NONE', #827, 1000.000000000000000 ) ;
#124 = CARTESIAN_POINT ( 'NONE',  ( 3.450000000000001954, 3.449999999999996181, 0.000000000000000000 ) ) ;
#125 = SHAPE_DEFINITION_REPRESENTATION ( #918, #652 ) ;
#126 = CARTESIAN_POINT ( 'NONE',  ( -3.490000000000000213, 3.489999999999999769, 0.6399999999999999023 ) ) ;
#127 = LINE ( 'NONE', #429, #438 ) ;
#128 = CARTESIAN_POINT ( 'NONE',  ( -3.490000000000000657, -3.196743662552160359, 0.6399999999999999023 ) ) ;
#129 = EDGE_LOOP ( 'NONE', ( #192, #653, #292, #804 ) ) ;
#130 = CARTESIAN_POINT ( 'NONE',  ( -3.450000000000000178, 3.449999999999999734, 1.226512674895674504 ) ) ;
#131 = DIRECTION ( 'NONE',  ( 0.000000000000000000, 1.000000000000000000, 0.000000000000000000 ) ) ;
#132 = EDGE_LOOP ( 'NONE', ( #208, #202, #832, #363 ) ) ;
#133 = FACE_OUTER_BOUND ( 'NONE', #129, .T. ) ;
#134 = DIRECTION ( 'NONE',  ( -0.000000000000000000, -0.000000000000000000, -1.000000000000000000 ) ) ;
#135 = DIRECTION ( 'NONE',  ( 0.000000000000000000, 0.000000000000000000, 1.000000000000000000 ) ) ;
#136 = VECTOR ( 'NONE', #761, 1000.000000000000000 ) ;
#137 = LINE ( 'NONE', #657, #82 ) ;
#138 =( GEOMETRIC_REPRESENTATION_CONTEXT ( 3 ) GLOBAL_UNCERTAINTY_ASSIGNED_CONTEXT ( ( #661 ) ) GLOBAL_UNIT_ASSIGNED_CONTEXT ( ( #265, #340, #568 ) ) REPRESENTATION_CONTEXT ( 'NONE', 'WORKASPACE' ) );
#139 = ORIENTED_EDGE ( 'NONE', *, *, #166, .F. ) ;
#140 = EDGE_CURVE ( 'NONE', #443, #546, #559, .T. ) ;
#141 = LINE ( 'NONE', #590, #354 ) ;
#142 = DIRECTION ( 'NONE',  ( 0.000000000000000000, 0.000000000000000000, 1.000000000000000000 ) ) ;
#143 = CARTESIAN_POINT ( 'NONE',  ( -3.490000000000000213, 3.489999999999999769, 10.51121066536420479 ) ) ;
#144 = VERTEX_POINT ( 'NONE', #168 ) ;
#145 = DIRECTION ( 'NONE',  ( 0.7071067811865445751, 0.7071067811865504593, -0.000000000000000000 ) ) ;
#146 = ORIENTED_EDGE ( 'NONE', *, *, #37, .T. ) ;
#147 = DIRECTION ( 'NONE',  ( 0.000000000000000000, 0.000000000000000000, -1.000000000000000000 ) ) ;
#148 = EDGE_CURVE ( 'NONE', #498, #660, #551, .T. ) ;
#149 = CARTESIAN_POINT ( 'NONE',  ( -0.1466281687239015252, -0.1466281687239000264, 0.000000000000000000 ) ) ;
#150 = ADVANCED_FACE ( 'NONE', ( #404 ), #310, .F. ) ;
#151 = VERTEX_POINT ( 'NONE', #772 ) ;
#152 = AXIS2_PLACEMENT_3D ( 'NONE', #756, #610, #856 ) ;
#153 = VECTOR ( 'NONE', #490, 1000.000000000000114 ) ;
#154 = STYLED_ITEM ( 'NONE', ( #410 ), #652 ) ;
#155 = DIRECTION ( 'NONE',  ( 0.000000000000000000, 0.000000000000000000, 1.000000000000000000 ) ) ;
#156 = DIRECTION ( 'NONE',  ( -0.000000000000000000, -0.000000000000000000, -1.000000000000000000 ) ) ;
#157 = ORIENTED_EDGE ( 'NONE', *, *, #148, .F. ) ;
#158 = ORIENTED_EDGE ( 'NONE', *, *, #949, .T. ) ;
#159 = DIRECTION ( 'NONE',  ( 1.000000000000000000, 0.000000000000000000, 0.000000000000000000 ) ) ;
#160 = LINE ( 'NONE', #318, #136 ) ;
#161 =( NAMED_UNIT ( * ) PLANE_ANGLE_UNIT ( ) SI_UNIT ( $, .RADIAN. ) );
#162 = CARTESIAN_POINT ( 'NONE',  ( -3.490000000000001101, 3.196743662552163467, 0.000000000000000000 ) ) ;
#163 = ORIENTED_EDGE ( 'NONE', *, *, #74, .T. ) ;
#164 = EDGE_LOOP ( 'NONE', ( #640, #673, #789, #895 ) ) ;
#165 = PLANE ( 'NONE',  #503 ) ;
#166 = EDGE_CURVE ( 'NONE', #959, #512, #315, .T. ) ;
#167 = CYLINDRICAL_SURFACE ( 'NONE', #865, 8.000000000000000000 ) ;
#168 = CARTESIAN_POINT ( 'NONE',  ( -8.000000000000000000, 0.000000000000000000, 0.000000000000000000 ) ) ;
#169 = DIRECTION ( 'NONE',  ( 0.000000000000000000, 0.000000000000000000, 1.000000000000000000 ) ) ;
#170 = AXIS2_PLACEMENT_3D ( 'NONE', #564, #563, #572 ) ;
#171 = DIRECTION ( 'NONE',  ( -0.7071067811865441310, 0.7071067811865510144, 0.000000000000000000 ) ) ;
#172 = ADVANCED_FACE ( 'NONE', ( #553 ), #109, .F. ) ;
#173 = AXIS2_PLACEMENT_3D ( 'NONE', #644, #268, #263 ) ;
#174 = VERTEX_POINT ( 'NONE', #470 ) ;
#175 = CIRCLE ( 'NONE', #540, 6.070000000000000284 ) ;
#176 = DIRECTION ( 'NONE',  ( 1.000000000000000000, 0.000000000000000000, 0.000000000000000000 ) ) ;
#177 = DIRECTION ( 'NONE',  ( 0.000000000000000000, 0.000000000000000000, 1.000000000000000000 ) ) ;
#178 = DIRECTION ( 'NONE',  ( 0.000000000000000000, 0.000000000000000000, 1.000000000000000000 ) ) ;
#179 = LINE ( 'NONE', #533, #203 ) ;
#180 = LINE ( 'NONE', #23, #848 ) ;
#181 = EDGE_LOOP ( 'NONE', ( #743, #38, #853, #251 ) ) ;
#182 = EDGE_CURVE ( 'NONE', #512, #39, #841, .T. ) ;
#183 = DIRECTION ( 'NONE',  ( 0.7071067811865434649, 0.7071067811865516806, 0.000000000000000000 ) ) ;
#184 = EDGE_LOOP ( 'NONE', ( #817, #782, #866, #930 ) ) ;
#185 = AXIS2_PLACEMENT_3D ( 'NONE', #588, #349, #189 ) ;
#186 = ORIENTED_EDGE ( 'NONE', *, *, #745, .F. ) ;
#187 = AXIS2_PLACEMENT_3D ( 'NONE', #348, #593, #519 ) ;
#188 = VECTOR ( 'NONE', #412, 1000.000000000000114 ) ;
#189 = DIRECTION ( 'NONE',  ( 1.000000000000000000, 0.000000000000000000, 0.000000000000000000 ) ) ;
#190 = ORIENTED_EDGE ( 'NONE', *, *, #459, .T. ) ;
#191 = DIRECTION ( 'NONE',  ( -0.7071067811865479058, -0.7071067811865472397, 0.000000000000000000 ) ) ;
#192 = ORIENTED_EDGE ( 'NONE', *, *, #611, .F. ) ;
#193 = APPLICATION_CONTEXT ( 'automotive_design' ) ;
#194 = CARTESIAN_POINT ( 'NONE',  ( 3.596628168723920549, 3.303371831276077142, 0.6399999999999999023 ) ) ;
#195 = CARTESIAN_POINT ( 'NONE',  ( 0.000000000000000000, 0.000000000000000000, 0.6399999999999999023 ) ) ;
#196 = ORIENTED_EDGE ( 'NONE', *, *, #797, .T. ) ;
#197 = EDGE_CURVE ( 'NONE', #274, #517, #917, .T. ) ;
#198 = ORIENTED_EDGE ( 'NONE', *, *, #493, .T. ) ;
#199 = CYLINDRICAL_SURFACE ( 'NONE', #615, 8.000000000000000000 ) ;
#200 = DIRECTION ( 'NONE',  ( -0.000000000000000000, -0.000000000000000000, -1.000000000000000000 ) ) ;
#201 = ORIENTED_EDGE ( 'NONE', *, *, #140, .T. ) ;
#202 = ORIENTED_EDGE ( 'NONE', *, *, #933, .T. ) ;
#203 = VECTOR ( 'NONE', #828, 1000.000000000000000 ) ;
#204 = CYLINDRICAL_SURFACE ( 'NONE', #187, 6.070000000000000284 ) ;
#205 = DIRECTION ( 'NONE',  ( 1.000000000000000000, 0.000000000000000000, 0.000000000000000000 ) ) ;
#206 = DIRECTION ( 'NONE',  ( 0.000000000000000000, 0.000000000000000000, 1.000000000000000000 ) ) ;
#207 = ORIENTED_EDGE ( 'NONE', *, *, #915, .F. ) ;
#208 = ORIENTED_EDGE ( 'NONE', *, *, #462, .F. ) ;
#209 = DIRECTION ( 'NONE',  ( 0.000000000000000000, 0.000000000000000000, -1.000000000000000000 ) ) ;
#210 = ADVANCED_FACE ( 'NONE', ( #627 ), #480, .F. ) ;
#211 = SURFACE_STYLE_USAGE ( .BOTH. , #937 ) ;
#212 = VERTEX_POINT ( 'NONE', #776 ) ;
#213 = DIRECTION ( 'NONE',  ( 0.000000000000000000, 0.000000000000000000, -1.000000000000000000 ) ) ;
#214 = EDGE_CURVE ( 'NONE', #42, #403, #693, .T. ) ;
#215 = DIRECTION ( 'NONE',  ( -0.7071067811865489050, 0.7071067811865462405, 0.000000000000000000 ) ) ;
#216 = EDGE_CURVE ( 'NONE', #42, #594, #908, .T. ) ;
#217 = ORIENTED_EDGE ( 'NONE', *, *, #626, .T. ) ;
#218 = CARTESIAN_POINT ( 'NONE',  ( 0.000000000000000000, 0.000000000000000000, 0.6500000000000000222 ) ) ;
#219 = DIRECTION ( 'NONE',  ( 0.000000000000000000, 0.000000000000000000, -1.000000000000000000 ) ) ;
#220 = CYLINDRICAL_SURFACE ( 'NONE', #47, 5.099999999999999645 ) ;
#221 = ORIENTED_EDGE ( 'NONE', *, *, #444, .F. ) ;
#222 = CYLINDRICAL_SURFACE ( 'NONE', #707, 0.2073635448352961486 ) ;
#223 = DIRECTION ( 'NONE',  ( -0.000000000000000000, -0.000000000000000000, -1.000000000000000000 ) ) ;
#224 = DIRECTION ( 'NONE',  ( -1.000000000000000000, 0.000000000000000000, 0.000000000000000000 ) ) ;
#225 = ADVANCED_FACE ( 'NONE', ( #242 ), #100, .F. ) ;
#226 = DIRECTION ( 'NONE',  ( 1.000000000000000000, 0.000000000000000000, 0.000000000000000000 ) ) ;
#227 = CARTESIAN_POINT ( 'NONE',  ( -3.490000000000000213, -4.274017329024262843E-16, 0.000000000000000000 ) ) ;
#228 = VERTEX_POINT ( 'NONE', #632 ) ;
#229 = PLANE ( 'NONE',  #890 ) ;
#230 = EDGE_CURVE ( 'NONE', #659, #282, #25, .T. ) ;
#231 = DIRECTION ( 'NONE',  ( 1.000000000000000000, 0.000000000000000000, 0.000000000000000000 ) ) ;
#232 = LINE ( 'NONE', #244, #16 ) ;
#233 = PLANE ( 'NONE',  #760 ) ;
#234 = ORIENTED_EDGE ( 'NONE', *, *, #382, .F. ) ;
#235 = APPLICATION_CONTEXT ( 'automotive_design' ) ;
#236 = ORIENTED_EDGE ( 'NONE', *, *, #431, .F. ) ;
#237 = ADVANCED_FACE ( 'NONE', ( #487, #712 ), #165, .T. ) ;
#238 = DIRECTION ( 'NONE',  ( -0.7071067811865510144, -0.7071067811865441310, 0.000000000000000000 ) ) ;
#239 = DIRECTION ( 'NONE',  ( 1.000000000000000000, 0.000000000000000000, 0.000000000000000000 ) ) ;
#240 = DIRECTION ( 'NONE',  ( -0.7071067811865434649, -0.7071067811865516806, 0.000000000000000000 ) ) ;
#241 = VECTOR ( 'NONE', #941, 1000.000000000000000 ) ;
#242 = FACE_OUTER_BOUND ( 'NONE', #600, .T. ) ;
#243 = AXIS2_PLACEMENT_3D ( 'NONE', #252, #911, #317 ) ;
#244 = CARTESIAN_POINT ( 'NONE',  ( -3.490000000000000213, -3.196743662552160359, 10.51121066536420479 ) ) ;
#245 = MANIFOLD_SOLID_BREP ( '切除-拉伸4', #468 ) ;
#246 = EDGE_CURVE ( 'NONE', #11, #336, #662, .T. ) ;
#247 = AXIS2_PLACEMENT_3D ( 'NONE', #358, #215, #433 ) ;
#248 = CARTESIAN_POINT ( 'NONE',  ( 3.450000000000000178, -3.449999999999998845, 0.6399999999999999023 ) ) ;
#249 = LINE ( 'NONE', #916, #726 ) ;
#250 = EDGE_CURVE ( 'NONE', #42, #27, #179, .T. ) ;
#251 = ORIENTED_EDGE ( 'NONE', *, *, #216, .F. ) ;
#252 = CARTESIAN_POINT ( 'NONE',  ( 0.1466281687239211762, 0.1466281687239210096, 1.719700436986667524 ) ) ;
#253 = FILL_AREA_STYLE ('',( #481 ) ) ;
#254 = EDGE_LOOP ( 'NONE', ( #491, #878, #677, #308 ) ) ;
#255 = DIRECTION ( 'NONE',  ( 0.000000000000000000, 0.000000000000000000, 1.000000000000000000 ) ) ;
#256 = ORIENTED_EDGE ( 'NONE', *, *, #462, .T. ) ;
#257 = DIRECTION ( 'NONE',  ( -0.7071067811865434649, 0.7071067811865516806, 0.000000000000000000 ) ) ;
#258 = VERTEX_POINT ( 'NONE', #630 ) ;
#259 = DIRECTION ( 'NONE',  ( 1.000000000000000000, 0.000000000000000000, 0.000000000000000000 ) ) ;
#260 = VERTEX_POINT ( 'NONE', #84 ) ;
#261 = AXIS2_PLACEMENT_3D ( 'NONE', #69, #729, #520 ) ;
#262 = CARTESIAN_POINT ( 'NONE',  ( -6.070000000000000284, 0.000000000000000000, 1.500000000000000000 ) ) ;
#263 = DIRECTION ( 'NONE',  ( 1.000000000000000000, 0.000000000000000000, 0.000000000000000000 ) ) ;
#264 = CARTESIAN_POINT ( 'NONE',  ( -3.196743662552164800, 3.489999999999999769, 0.6399999999999999023 ) ) ;
#265 =( LENGTH_UNIT ( ) NAMED_UNIT ( * ) SI_UNIT ( .MILLI., .METRE. ) );
#266 = LINE ( 'NONE', #575, #952 ) ;
#267 = ORIENTED_EDGE ( 'NONE', *, *, #671, .F. ) ;
#268 = DIRECTION ( 'NONE',  ( 0.000000000000000000, 0.000000000000000000, 1.000000000000000000 ) ) ;
#269 = EDGE_LOOP ( 'NONE', ( #272, #405, #394, #730 ) ) ;
#270 = CYLINDRICAL_SURFACE ( 'NONE', #261, 0.2073635448352961486 ) ;
#271 = EDGE_CURVE ( 'NONE', #482, #174, #783, .T. ) ;
#272 = ORIENTED_EDGE ( 'NONE', *, *, #709, .F. ) ;
#273 = ORIENTED_EDGE ( 'NONE', *, *, #823, .T. ) ;
#274 = VERTEX_POINT ( 'NONE', #807 ) ;
#275 = ORIENTED_EDGE ( 'NONE', *, *, #197, .F. ) ;
#276 = ORIENTED_EDGE ( 'NONE', *, *, #634, .T. ) ;
#277 = DIRECTION ( 'NONE',  ( 0.7071067811865462405, 0.7071067811865489050, -0.000000000000000000 ) ) ;
#278 = AXIS2_PLACEMENT_3D ( 'NONE', #430, #869, #108 ) ;
#279 = VECTOR ( 'NONE', #913, 1000.000000000000000 ) ;
#280 = AXIS2_PLACEMENT_3D ( 'NONE', #130, #219, #748 ) ;
#281 = EDGE_LOOP ( 'NONE', ( #207, #648, #158, #76 ) ) ;
#282 = VERTEX_POINT ( 'NONE', #283 ) ;
#283 = CARTESIAN_POINT ( 'NONE',  ( -5.400000000000005684, 6.613092715395713383E-16, 1.500000000000000000 ) ) ;
#284 = EDGE_CURVE ( 'NONE', #212, #106, #127, .T. ) ;
#285 = FACE_OUTER_BOUND ( 'NONE', #450, .T. ) ;
#286 = ORIENTED_EDGE ( 'NONE', *, *, #182, .F. ) ;
#287 = DIRECTION ( 'NONE',  ( -1.242638593106595599E-16, 1.000000000000000000, 0.000000000000000000 ) ) ;
#288 = DIRECTION ( 'NONE',  ( 0.000000000000000000, 0.000000000000000000, -1.000000000000000000 ) ) ;
#289 = DIRECTION ( 'NONE',  ( 0.000000000000000000, 0.000000000000000000, -1.000000000000000000 ) ) ;
#290 = VERTEX_POINT ( 'NONE', #733 ) ;
#291 = FACE_BOUND ( 'NONE', #576, .T. ) ;
#292 = ORIENTED_EDGE ( 'NONE', *, *, #230, .F. ) ;
#293 = FACE_OUTER_BOUND ( 'NONE', #795, .T. ) ;
#294 = CIRCLE ( 'NONE', #152, 8.000000000000000000 ) ;
#295 = VECTOR ( 'NONE', #825, 1000.000000000000000 ) ;
#296 = EDGE_CURVE ( 'NONE', #260, #27, #591, .T. ) ;
#297 = CIRCLE ( 'NONE', #744, 5.099999999999999645 ) ;
#298 = ORIENTED_EDGE ( 'NONE', *, *, #271, .F. ) ;
#299 = DIRECTION ( 'NONE',  ( 1.000000000000000000, 0.000000000000000000, 0.000000000000000000 ) ) ;
#300 = LINE ( 'NONE', #361, #604 ) ;
#301 = CARTESIAN_POINT ( 'NONE',  ( 5.099999999999999645, 0.000000000000000000, 1.199999999999999289 ) ) ;
#302 = DIRECTION ( 'NONE',  ( 1.000000000000000000, 0.000000000000000000, 0.000000000000000000 ) ) ;
#303 = LINE ( 'NONE', #676, #93 ) ;
#304 = ORIENTED_EDGE ( 'NONE', *, *, #216, .T. ) ;
#305 = DIRECTION ( 'NONE',  ( 0.000000000000000000, 0.000000000000000000, 1.000000000000000000 ) ) ;
#306 = LINE ( 'NONE', #227, #123 ) ;
#307 = DIRECTION ( 'NONE',  ( -0.000000000000000000, -0.000000000000000000, -1.000000000000000000 ) ) ;
#308 = ORIENTED_EDGE ( 'NONE', *, *, #85, .F. ) ;
#309 = VECTOR ( 'NONE', #240, 999.9999999999998863 ) ;
#310 = PLANE ( 'NONE',  #705 ) ;
#311 = DIRECTION ( 'NONE',  ( 0.000000000000000000, 0.000000000000000000, 1.000000000000000000 ) ) ;
#312 = LINE ( 'NONE', #325, #95 ) ;
#313 = EDGE_LOOP ( 'NONE', ( #346, #48 ) ) ;
#314 = EDGE_CURVE ( 'NONE', #228, #871, #356, .T. ) ;
#315 = LINE ( 'NONE', #543, #121 ) ;
#316 = EDGE_CURVE ( 'NONE', #260, #290, #437, .T. ) ;
#317 = DIRECTION ( 'NONE',  ( -0.7071067811865471286, 0.7071067811865479058, 0.000000000000000000 ) ) ;
#318 = CARTESIAN_POINT ( 'NONE',  ( 3.490000000000001101, -3.196743662552163023, 10.51121066536420479 ) ) ;
#319 = CYLINDRICAL_SURFACE ( 'NONE', #471, 6.070000000000000284 ) ;
#320 = DIRECTION ( 'NONE',  ( 1.000000000000000000, 0.000000000000000000, 0.000000000000000000 ) ) ;
#321 = STYLED_ITEM ( 'NONE', ( #50 ), #245 ) ;
#322 = CARTESIAN_POINT ( 'NONE',  ( 0.1466281687238986386, 0.1466281687238969178, 0.000000000000000000 ) ) ;
#323 = EDGE_CURVE ( 'NONE', #834, #482, #515, .T. ) ;
#324 = VECTOR ( 'NONE', #924, 1000.000000000000000 ) ;
#325 = CARTESIAN_POINT ( 'NONE',  ( 0.1466281687239215925, -0.1466281687239217313, 0.000000000000000000 ) ) ;
#326 = EDGE_LOOP ( 'NONE', ( #904, #448, #332, #669, #298, #550, #328, #873, #355, #775, #931, #606, #44, #52, #286, #732, #711, #901 ) ) ;
#327 = DIRECTION ( 'NONE',  ( -0.7071067811865489050, -0.7071067811865462405, 0.000000000000000000 ) ) ;
#328 = ORIENTED_EDGE ( 'NONE', *, *, #565, .F. ) ;
#329 = FACE_OUTER_BOUND ( 'NONE', #67, .T. ) ;
#330 = ORIENTED_EDGE ( 'NONE', *, *, #755, .T. ) ;
#331 = DIRECTION ( 'NONE',  ( -1.000000000000000000, -1.242638593106595599E-16, 0.000000000000000000 ) ) ;
#332 = ORIENTED_EDGE ( 'NONE', *, *, #621, .T. ) ;
#333 = ADVANCED_FACE ( 'NONE', ( #746 ), #649, .T. ) ;
#334 = EDGE_LOOP ( 'NONE', ( #645, #146, #527, #98 ) ) ;
#335 = AXIS2_PLACEMENT_3D ( 'NONE', #574, #339, #951 ) ;
#336 = VERTEX_POINT ( 'NONE', #262 ) ;
#337 = AXIS2_PLACEMENT_3D ( 'NONE', #343, #940, #721 ) ;
#338 = EDGE_CURVE ( 'NONE', #814, #517, #571, .T. ) ;
#339 = DIRECTION ( 'NONE',  ( 0.000000000000000000, 0.000000000000000000, 1.000000000000000000 ) ) ;
#340 =( NAMED_UNIT ( * ) PLANE_ANGLE_UNIT ( ) SI_UNIT ( $, .RADIAN. ) );
#341 = ORIENTED_EDGE ( 'NONE', *, *, #140, .F. ) ;
#342 = VERTEX_POINT ( 'NONE', #194 ) ;
#343 = CARTESIAN_POINT ( 'NONE',  ( 0.1466281687239215925, -0.1466281687239217313, 1.719700436986667524 ) ) ;
#344 = CARTESIAN_POINT ( 'NONE',  ( 3.450000000000000178, -3.449999999999998845, 0.000000000000000000 ) ) ;
#345 = ADVANCED_FACE ( 'NONE', ( #415 ), #199, .T. ) ;
#346 = ORIENTED_EDGE ( 'NONE', *, *, #230, .T. ) ;
#347 = PLANE ( 'NONE',  #4 ) ;
#348 = CARTESIAN_POINT ( 'NONE',  ( 0.000000000000000000, 0.000000000000000000, 1.500000000000000000 ) ) ;
#349 = DIRECTION ( 'NONE',  ( 0.000000000000000000, 0.000000000000000000, 1.000000000000000000 ) ) ;
#350 = ORIENTED_EDGE ( 'NONE', *, *, #907, .T. ) ;
#351 = AXIS2_PLACEMENT_3D ( 'NONE', #701, #708, #183 ) ;
#352 = CIRCLE ( 'NONE', #724, 5.400000000000005684 ) ;
#353 = CARTESIAN_POINT ( 'NONE',  ( 5.099999999999999645, 6.245698675651500839E-16, 1.500000000000000000 ) ) ;
#354 = VECTOR ( 'NONE', #213, 1000.000000000000000 ) ;
#355 = ORIENTED_EDGE ( 'NONE', *, *, #538, .F. ) ;
#356 = LINE ( 'NONE', #815, #566 ) ;
#357 = CARTESIAN_POINT ( 'NONE',  ( -3.596628168723920549, 3.303371831276082471, 0.000000000000000000 ) ) ;
#358 = CARTESIAN_POINT ( 'NONE',  ( -0.1466281687239265330, 0.1466281687239259779, 1.719700436986667524 ) ) ;
#359 = ORIENTED_EDGE ( 'NONE', *, *, #852, .T. ) ;
#360 = CARTESIAN_POINT ( 'NONE',  ( 3.303371831276079362, -3.596628168723915664, 1.719700436986667524 ) ) ;
#361 = CARTESIAN_POINT ( 'NONE',  ( 0.1466281687238986386, 0.1466281687238969178, 0.6399999999999999023 ) ) ;
#362 = ADVANCED_FACE ( 'NONE', ( #535 ), #88, .F. ) ;
#363 = ORIENTED_EDGE ( 'NONE', *, *, #459, .F. ) ;
#364 = DIRECTION ( 'NONE',  ( -0.7071067811865462405, 0.7071067811865489050, 0.000000000000000000 ) ) ;
#365 = ORIENTED_EDGE ( 'NONE', *, *, #296, .T. ) ;
#366 = AXIS2_PLACEMENT_3D ( 'NONE', #104, #850, #231 ) ;
#367 = AXIS2_PLACEMENT_3D ( 'NONE', #766, #90, #957 ) ;
#368 = VECTOR ( 'NONE', #364, 1000.000000000000000 ) ;
#369 = ADVANCED_FACE ( 'NONE', ( #293 ), #229, .T. ) ;
#370 = DIRECTION ( 'NONE',  ( -1.000000000000000000, 0.000000000000000000, 0.000000000000000000 ) ) ;
#371 = ORIENTED_EDGE ( 'NONE', *, *, #887, .T. ) ;
#372 = PLANE ( 'NONE',  #247 ) ;
#373 = EDGE_CURVE ( 'NONE', #402, #927, #303, .T. ) ;
#374 = DIRECTION ( 'NONE',  ( -1.000000000000000000, 0.000000000000000000, 0.000000000000000000 ) ) ;
#375 = FACE_OUTER_BOUND ( 'NONE', #132, .T. ) ;
#376 = EDGE_LOOP ( 'NONE', ( #764, #938, #790, #716 ) ) ;
#377 = DIRECTION ( 'NONE',  ( 0.000000000000000000, 0.000000000000000000, 1.000000000000000000 ) ) ;
#378 = CARTESIAN_POINT ( 'NONE',  ( 0.000000000000000000, 0.000000000000000000, 1.199999999999999289 ) ) ;
#379 = CARTESIAN_POINT ( 'NONE',  ( 0.000000000000000000, 0.000000000000000000, 0.6500000000000000222 ) ) ;
#380 = EDGE_CURVE ( 'NONE', #482, #212, #461, .T. ) ;
#381 = CARTESIAN_POINT ( 'NONE',  ( -3.490000000000000213, -4.274017329024262843E-16, 10.51121066536420479 ) ) ;
#382 = EDGE_CURVE ( 'NONE', #512, #561, #665, .T. ) ;
#383 = CIRCLE ( 'NONE', #741, 5.099999999999999645 ) ;
#384 = DIRECTION ( 'NONE',  ( 1.000000000000000000, 0.000000000000000000, -0.000000000000000000 ) ) ;
#385 = AXIS2_PLACEMENT_3D ( 'NONE', #77, #307, #837 ) ;
#386 =( NAMED_UNIT ( * ) SI_UNIT ( $, .STERADIAN. ) SOLID_ANGLE_UNIT ( ) );
#387 = CARTESIAN_POINT ( 'NONE',  ( -6.070000000000000284, 0.000000000000000000, 1.500000000000000000 ) ) ;
#388 = VERTEX_POINT ( 'NONE', #758 ) ;
#389 = VERTEX_POINT ( 'NONE', #10 ) ;
#390 = CARTESIAN_POINT ( 'NONE',  ( 0.000000000000000000, 0.000000000000000000, 1.500000000000000000 ) ) ;
#391 = CARTESIAN_POINT ( 'NONE',  ( -3.450000000000001954, -3.449999999999999289, 0.6399999999999999023 ) ) ;
#392 = DIRECTION ( 'NONE',  ( 0.7071067811865434649, -0.7071067811865516806, 0.000000000000000000 ) ) ;
#393 = DIRECTION ( 'NONE',  ( 0.7071067811865462405, 0.7071067811865489050, -0.000000000000000000 ) ) ;
#394 = ORIENTED_EDGE ( 'NONE', *, *, #607, .T. ) ;
#395 = AXIS2_PLACEMENT_3D ( 'NONE', #922, #29, #926 ) ;
#396 = DIRECTION ( 'NONE',  ( 0.7071067811865441310, -0.7071067811865510144, 0.000000000000000000 ) ) ;
#397 = PRODUCT_DEFINITION ( '未知', '', #507, #516 ) ;
#398 = CIRCLE ( 'NONE', #631, 8.000000000000000000 ) ;
#399 = APPLICATION_PROTOCOL_DEFINITION ( 'draft international standard', 'automotive_design', 1998, #235 ) ;
#400 = ORIENTED_EDGE ( 'NONE', *, *, #740, .F. ) ;
#401 = VECTOR ( 'NONE', #393, 1000.000000000000000 ) ;
#402 = VERTEX_POINT ( 'NONE', #5 ) ;
#403 = VERTEX_POINT ( 'NONE', #162 ) ;
#404 = FACE_OUTER_BOUND ( 'NONE', #181, .T. ) ;
#405 = ORIENTED_EDGE ( 'NONE', *, *, #933, .F. ) ;
#406 = ADVANCED_FACE ( 'NONE', ( #375 ), #220, .F. ) ;
#407 = ORIENTED_EDGE ( 'NONE', *, *, #870, .F. ) ;
#408 = ORIENTED_EDGE ( 'NONE', *, *, #666, .T. ) ;
#409 = SURFACE_STYLE_FILL_AREA ( #735 ) ;
#410 = PRESENTATION_STYLE_ASSIGNMENT (( #51 ) ) ;
#411 = ORIENTED_EDGE ( 'NONE', *, *, #879, .F. ) ;
#412 = DIRECTION ( 'NONE',  ( -0.7071067811865536790, 8.659560562355009279E-17, 0.7071067811865413555 ) ) ;
#413 = ADVANCED_FACE ( 'NONE', ( #688, #763 ), #597, .F. ) ;
#414 = ORIENTED_EDGE ( 'NONE', *, *, #691, .T. ) ;
#415 = FACE_OUTER_BOUND ( 'NONE', #184, .T. ) ;
#416 = PLANE ( 'NONE',  #337 ) ;
#417 = FACE_OUTER_BOUND ( 'NONE', #859, .T. ) ;
#418 = CIRCLE ( 'NONE', #335, 8.000000000000000000 ) ;
#419 = ORIENTED_EDGE ( 'NONE', *, *, #915, .T. ) ;
#420 = CIRCLE ( 'NONE', #173, 0.2073635448352961486 ) ;
#421 = VECTOR ( 'NONE', #287, 1000.000000000000000 ) ;
#422 = ADVANCED_FACE ( 'NONE', ( #819 ), #785, .F. ) ;
#423 = CARTESIAN_POINT ( 'NONE',  ( -3.303371831276080695, 3.596628168723916996, 0.000000000000000000 ) ) ;
#424 = ORIENTED_EDGE ( 'NONE', *, *, #37, .F. ) ;
#425 = CARTESIAN_POINT ( 'NONE',  ( 0.000000000000000000, 0.000000000000000000, 0.000000000000000000 ) ) ;
#426 = DIRECTION ( 'NONE',  ( 0.000000000000000000, 0.000000000000000000, 1.000000000000000000 ) ) ;
#427 = CARTESIAN_POINT ( 'NONE',  ( 3.450000000000001954, 3.449999999999996181, 1.226512674895674504 ) ) ;
#428 = EDGE_LOOP ( 'NONE', ( #556, #33, #234, #139 ) ) ;
#429 = CARTESIAN_POINT ( 'NONE',  ( 3.196743662552165688, -3.490000000000000657, 10.51121066536420479 ) ) ;
#430 = CARTESIAN_POINT ( 'NONE',  ( -3.450000000000000178, 3.449999999999999734, 1.226512674895674504 ) ) ;
#431 = EDGE_CURVE ( 'NONE', #403, #883, #306, .T. ) ;
#432 = EDGE_LOOP ( 'NONE', ( #341, #954, #889, #22 ) ) ;
#433 = DIRECTION ( 'NONE',  ( -0.7071067811865462405, -0.7071067811865489050, 0.000000000000000000 ) ) ;
#434 = ORIENTED_EDGE ( 'NONE', *, *, #538, .T. ) ;
#435 = CARTESIAN_POINT ( 'NONE',  ( 0.000000000000000000, 0.000000000000000000, 0.000000000000000000 ) ) ;
#436 = ORIENTED_EDGE ( 'NONE', *, *, #120, .T. ) ;
#437 = LINE ( 'NONE', #586, #488 ) ;
#438 = VECTOR ( 'NONE', #668, 1000.000000000000000 ) ;
#439 = CIRCLE ( 'NONE', #14, 0.2073635448352961486 ) ;
#440 = AXIS2_PLACEMENT_3D ( 'NONE', #851, #177, #472 ) ;
#441 = ORIENTED_EDGE ( 'NONE', *, *, #110, .T. ) ;
#442 = LINE ( 'NONE', #731, #368 ) ;
#443 = VERTEX_POINT ( 'NONE', #73 ) ;
#444 = EDGE_CURVE ( 'NONE', #959, #31, #300, .T. ) ;
#445 = CARTESIAN_POINT ( 'NONE',  ( 0.000000000000000000, 0.000000000000000000, 1.199999999999999289 ) ) ;
#446 = DIRECTION ( 'NONE',  ( 0.000000000000000000, -1.000000000000000000, 0.000000000000000000 ) ) ;
#447 = CARTESIAN_POINT ( 'NONE',  ( 3.196743662552173237, 3.490000000000000213, 0.000000000000000000 ) ) ;
#448 = ORIENTED_EDGE ( 'NONE', *, *, #864, .F. ) ;
#449 = FACE_OUTER_BOUND ( 'NONE', #839, .T. ) ;
#450 = EDGE_LOOP ( 'NONE', ( #424, #514, #928, #686 ) ) ;
#451 = CARTESIAN_POINT ( 'NONE',  ( 3.450000000000001954, 3.449999999999996181, 0.6399999999999999023 ) ) ;
#452 = ADVANCED_FACE ( 'NONE', ( #898 ), #83, .F. ) ;
#453 = DIRECTION ( 'NONE',  ( 0.000000000000000000, -0.000000000000000000, -1.000000000000000000 ) ) ;
#454 = EDGE_CURVE ( 'NONE', #342, #402, #469, .T. ) ;
#455 = CARTESIAN_POINT ( 'NONE',  ( 3.196743662552165688, -3.490000000000000657, 0.6399999999999999023 ) ) ;
#456 = DIRECTION ( 'NONE',  ( -1.000000000000000000, 0.000000000000000000, 0.000000000000000000 ) ) ;
#457 = FACE_OUTER_BOUND ( 'NONE', #432, .T. ) ;
#458 = AXIS2_PLACEMENT_3D ( 'NONE', #893, #886, #7 ) ;
#459 = EDGE_CURVE ( 'NONE', #111, #388, #383, .T. ) ;
#460 = LINE ( 'NONE', #694, #936 ) ;
#461 = LINE ( 'NONE', #78, #65 ) ;
#462 = EDGE_CURVE ( 'NONE', #151, #111, #655, .T. ) ;
#463 = CARTESIAN_POINT ( 'NONE',  ( 0.000000000000000000, 0.000000000000000000, 1.500000000000000000 ) ) ;
#464 = CARTESIAN_POINT ( 'NONE',  ( 0.000000000000000000, 0.000000000000000000, 1.500000000000000000 ) ) ;
#465 = CARTESIAN_POINT ( 'NONE',  ( 0.000000000000000000, 0.000000000000000000, 1.500000000000000000 ) ) ;
#466 = FACE_OUTER_BOUND ( 'NONE', #334, .T. ) ;
#467 = DIRECTION ( 'NONE',  ( 1.000000000000000000, 0.000000000000000000, 0.000000000000000000 ) ) ;
#468 = CLOSED_SHELL ( 'NONE', ( #651, #793, #736, #808, #943, #345, #333, #80, #813, #369, #413, #833, #695, #237, #485, #406, #780, #422, #40, #362, #720, #452, #172, #210, #99, #499, #225, #639, #150, #68 ) ) ;
#469 = CIRCLE ( 'NONE', #849, 0.2073635448352961486 ) ;
#470 = CARTESIAN_POINT ( 'NONE',  ( -3.303371831276082471, -3.596628168723916996, 0.000000000000000000 ) ) ;
#471 = AXIS2_PLACEMENT_3D ( 'NONE', #463, #13, #619 ) ;
#472 = DIRECTION ( 'NONE',  ( 1.000000000000000000, 0.000000000000000000, 0.000000000000000000 ) ) ;
#473 = EDGE_CURVE ( 'NONE', #704, #594, #420, .T. ) ;
#474 = VERTEX_POINT ( 'NONE', #573 ) ;
#475 = UNCERTAINTY_MEASURE_WITH_UNIT (LENGTH_MEASURE( 1.000000000000000082E-05 ), #842, 'distance_accuracy_value', 'NONE');
#476 = DIRECTION ( 'NONE',  ( 0.000000000000000000, 0.000000000000000000, -1.000000000000000000 ) ) ;
#477 = CARTESIAN_POINT ( 'NONE',  ( 8.000000000000000000, 9.797174393178825657E-16, 0.000000000000000000 ) ) ;
#478 = LINE ( 'NONE', #598, #567 ) ;
#479 = EDGE_LOOP ( 'NONE', ( #276, #434, #411, #636 ) ) ;
#480 = PLANE ( 'NONE',  #105 ) ;
#481 = FILL_AREA_STYLE_COLOUR ( '', #905 ) ;
#482 = VERTEX_POINT ( 'NONE', #880 ) ;
#483 = UNCERTAINTY_MEASURE_WITH_UNIT (LENGTH_MEASURE( 1.000000000000000082E-05 ), #942, 'distance_accuracy_value', 'NONE');
#484 = VERTEX_POINT ( 'NONE', #812 ) ;
#485 = ADVANCED_FACE ( 'NONE', ( #285 ), #204, .T. ) ;
#486 = COLOUR_RGB ( '',1.000000000000000000, 1.000000000000000000, 1.000000000000000000 ) ;
#487 = FACE_BOUND ( 'NONE', #313, .T. ) ;
#488 = VECTOR ( 'NONE', #209, 1000.000000000000000 ) ;
#489 = ORIENTED_EDGE ( 'NONE', *, *, #120, .F. ) ;
#490 = DIRECTION ( 'NONE',  ( 0.7071067811865536790, 0.000000000000000000, 0.7071067811865413555 ) ) ;
#491 = ORIENTED_EDGE ( 'NONE', *, *, #768, .F. ) ;
#492 = PLANE ( 'NONE',  #784 ) ;
#493 = EDGE_CURVE ( 'NONE', #388, #111, #803, .T. ) ;
#494 = DIRECTION ( 'NONE',  ( 1.000000000000000000, 0.000000000000000000, -0.000000000000000000 ) ) ;
#495 = ORIENTED_EDGE ( 'NONE', *, *, #110, .F. ) ;
#496 = CARTESIAN_POINT ( 'NONE',  ( -3.657363544835298352, -3.449999999999999289, 0.6399999999999999023 ) ) ;
#497 = DIRECTION ( 'NONE',  ( 1.000000000000000000, 0.000000000000000000, 0.000000000000000000 ) ) ;
#498 = VERTEX_POINT ( 'NONE', #496 ) ;
#499 = ADVANCED_FACE ( 'NONE', ( #116 ), #416, .F. ) ;
#500 = CARTESIAN_POINT ( 'NONE',  ( 0.000000000000000000, 0.000000000000000000, 0.6500000000000000222 ) ) ;
#501 = CARTESIAN_POINT ( 'NONE',  ( -3.196743662552164800, 3.489999999999999769, 0.000000000000000000 ) ) ;
#502 =( NAMED_UNIT ( * ) PLANE_ANGLE_UNIT ( ) SI_UNIT ( $, .RADIAN. ) );
#503 = AXIS2_PLACEMENT_3D ( 'NONE', #465, #91, #384 ) ;
#504 = CARTESIAN_POINT ( 'NONE',  ( 0.000000000000000000, 0.000000000000000000, 0.000000000000000000 ) ) ;
#505 = VECTOR ( 'NONE', #544, 1000.000000000000000 ) ;
#506 = EDGE_LOOP ( 'NONE', ( #350, #521 ) ) ;
#507 = PRODUCT_DEFINITION_FORMATION_WITH_SPECIFIED_SOURCE ( '任何', '', #861, .NOT_KNOWN. ) ;
#508 = EDGE_CURVE ( 'NONE', #282, #659, #352, .T. ) ;
#509 = LINE ( 'NONE', #894, #295 ) ;
#510 = FACE_OUTER_BOUND ( 'NONE', #857, .T. ) ;
#511 = DIRECTION ( 'NONE',  ( 0.000000000000000000, 0.000000000000000000, 1.000000000000000000 ) ) ;
#512 = VERTEX_POINT ( 'NONE', #423 ) ;
#513 = LINE ( 'NONE', #896, #421 ) ;
#514 = ORIENTED_EDGE ( 'NONE', *, *, #907, .F. ) ;
#515 = LINE ( 'NONE', #670, #584 ) ;
#516 = PRODUCT_DEFINITION_CONTEXT ( 'detailed design', #235, 'design' ) ;
#517 = VERTEX_POINT ( 'NONE', #55 ) ;
#518 = ORIENTED_EDGE ( 'NONE', *, *, #565, .T. ) ;
#519 = DIRECTION ( 'NONE',  ( -1.000000000000000000, 0.000000000000000000, 0.000000000000000000 ) ) ;
#520 = DIRECTION ( 'NONE',  ( -1.000000000000000000, 0.000000000000000000, 0.000000000000000000 ) ) ;
#521 = ORIENTED_EDGE ( 'NONE', *, *, #246, .T. ) ;
#522 = FACE_OUTER_BOUND ( 'NONE', #70, .T. ) ;
#523 = DIRECTION ( 'NONE',  ( 1.000000000000000000, 0.000000000000000000, -0.000000000000000000 ) ) ;
#524 = AXIS2_PLACEMENT_3D ( 'NONE', #881, #331, #641 ) ;
#525 = CARTESIAN_POINT ( 'NONE',  ( -3.450000000000001954, -3.449999999999999289, 0.000000000000000000 ) ) ;
#526 = CIRCLE ( 'NONE', #953, 0.2073635448352961486 ) ;
#527 = ORIENTED_EDGE ( 'NONE', *, *, #532, .T. ) ;
#528 = EDGE_CURVE ( 'NONE', #474, #389, #509, .T. ) ;
#529 = DIRECTION ( 'NONE',  ( 0.000000000000000000, 0.000000000000000000, 1.000000000000000000 ) ) ;
#530 = LINE ( 'NONE', #672, #919 ) ;
#531 = DIRECTION ( 'NONE',  ( 0.000000000000000000, 0.000000000000000000, -1.000000000000000000 ) ) ;
#532 = EDGE_CURVE ( 'NONE', #727, #583, #903, .T. ) ;
#533 = CARTESIAN_POINT ( 'NONE',  ( -3.490000000000000213, -4.274017329024262843E-16, 0.6399999999999999023 ) ) ;
#534 = LINE ( 'NONE', #835, #505 ) ;
#535 = FACE_OUTER_BOUND ( 'NONE', #281, .T. ) ;
#536 = ORIENTED_EDGE ( 'NONE', *, *, #284, .T. ) ;
#537 = VECTOR ( 'NONE', #392, 999.9999999999998863 ) ;
#538 = EDGE_CURVE ( 'NONE', #474, #118, #75, .T. ) ;
#539 = AXIS2_PLACEMENT_3D ( 'NONE', #26, #255, #494 ) ;
#540 = AXIS2_PLACEMENT_3D ( 'NONE', #698, #305, #21 ) ;
#541 = DIRECTION ( 'NONE',  ( 1.000000000000000000, -0.000000000000000000, -0.000000000000000000 ) ) ;
#542 = ORIENTED_EDGE ( 'NONE', *, *, #840, .T. ) ;
#543 = CARTESIAN_POINT ( 'NONE',  ( -3.303371831276080695, 3.596628168723916996, 1.719700436986667524 ) ) ;
#544 = DIRECTION ( 'NONE',  ( -0.000000000000000000, -0.000000000000000000, -1.000000000000000000 ) ) ;
#545 = CARTESIAN_POINT ( 'NONE',  ( 0.000000000000000000, 0.000000000000000000, 0.6500000000000000222 ) ) ;
#546 = VERTEX_POINT ( 'NONE', #447 ) ;
#547 = DIRECTION ( 'NONE',  ( 0.000000000000000000, 0.000000000000000000, 1.000000000000000000 ) ) ;
#548 = EDGE_CURVE ( 'NONE', #258, #174, #439, .T. ) ;
#549 = CARTESIAN_POINT ( 'NONE',  ( -3.196743662552164800, 3.489999999999999769, 10.51121066536420479 ) ) ;
#550 = ORIENTED_EDGE ( 'NONE', *, *, #380, .T. ) ;
#551 = CIRCLE ( 'NONE', #366, 0.2073635448352961486 ) ;
#552 = VECTOR ( 'NONE', #778, 1000.000000000000000 ) ;
#553 = FACE_OUTER_BOUND ( 'NONE', #479, .T. ) ;
#554 = CIRCLE ( 'NONE', #440, 0.2073635448352961486 ) ;
#555 = LINE ( 'NONE', #836, #831 ) ;
#556 = ORIENTED_EDGE ( 'NONE', *, *, #900, .T. ) ;
#557 = CARTESIAN_POINT ( 'NONE',  ( -0.1466281687239015252, -0.1466281687239000264, 1.719700436986667524 ) ) ;
#558 = ORIENTED_EDGE ( 'NONE', *, *, #621, .F. ) ;
#559 = LINE ( 'NONE', #20, #1 ) ;
#560 = CARTESIAN_POINT ( 'NONE',  ( -3.490000000000000213, 3.489999999999999769, 0.000000000000000000 ) ) ;
#561 = VERTEX_POINT ( 'NONE', #18 ) ;
#562 = EDGE_CURVE ( 'NONE', #112, #388, #478, .T. ) ;
#563 = DIRECTION ( 'NONE',  ( -0.7071067811865504593, 0.7071067811865445751, 0.000000000000000000 ) ) ;
#564 = CARTESIAN_POINT ( 'NONE',  ( -0.1466281687238999154, 0.1466281687238986942, 1.719700436986667524 ) ) ;
#565 = EDGE_CURVE ( 'NONE', #15, #212, #843, .T. ) ;
#566 = VECTOR ( 'NONE', #134, 1000.000000000000000 ) ;
#567 = VECTOR ( 'NONE', #223, 1000.000000000000000 ) ;
#568 =( NAMED_UNIT ( * ) SI_UNIT ( $, .STERADIAN. ) SOLID_ANGLE_UNIT ( ) );
#569 = MECHANICAL_DESIGN_GEOMETRIC_PRESENTATION_REPRESENTATION (  '', ( #154 ), #138 ) ;
#570 = ORIENTED_EDGE ( 'NONE', *, *, #103, .F. ) ;
#571 = LINE ( 'NONE', #867, #934 ) ;
#572 = DIRECTION ( 'NONE',  ( -0.7071067811865445751, -0.7071067811865504593, 0.000000000000000000 ) ) ;
#573 = CARTESIAN_POINT ( 'NONE',  ( 3.490000000000001545, -3.196743662552162579, 0.000000000000000000 ) ) ;
#574 = CARTESIAN_POINT ( 'NONE',  ( 0.000000000000000000, 0.000000000000000000, 0.6500000000000000222 ) ) ;
#575 = CARTESIAN_POINT ( 'NONE',  ( 0.1466281687239215925, -0.1466281687239217313, 0.6399999999999999023 ) ) ;
#576 = EDGE_LOOP ( 'NONE', ( #365, #675, #304, #710, #89, #664, #844, #810, #54, #414, #786, #955, #275, #747, #699, #436, #157, #847 ) ) ;
#577 = CARTESIAN_POINT ( 'NONE',  ( 3.490000000000001101, -3.490000000000000657, 10.51121066536420479 ) ) ;
#578 = LINE ( 'NONE', #61, #816 ) ;
#579 = EDGE_LOOP ( 'NONE', ( #371, #419, #558, #53 ) ) ;
#580 = ORIENTED_EDGE ( 'NONE', *, *, #691, .F. ) ;
#581 = CARTESIAN_POINT ( 'NONE',  ( 0.1466281687238986386, 0.1466281687238969178, 1.719700436986667524 ) ) ;
#582 = FACE_OUTER_BOUND ( 'NONE', #579, .T. ) ;
#583 = VERTEX_POINT ( 'NONE', #625 ) ;
#584 = VECTOR ( 'NONE', #811, 1000.000000000000000 ) ;
#585 = VECTOR ( 'NONE', #145, 1000.000000000000000 ) ;
#586 = CARTESIAN_POINT ( 'NONE',  ( -3.596628168723922769, -3.303371831276082915, 1.719700436986667524 ) ) ;
#587 = DIRECTION ( 'NONE',  ( -0.000000000000000000, -0.000000000000000000, -1.000000000000000000 ) ) ;
#588 = CARTESIAN_POINT ( 'NONE',  ( -3.450000000000000178, 3.449999999999999734, 0.000000000000000000 ) ) ;
#589 = VERTEX_POINT ( 'NONE', #357 ) ;
#590 = CARTESIAN_POINT ( 'NONE',  ( -3.657363544835296576, 3.449999999999999734, 1.226512674895674504 ) ) ;
#591 = LINE ( 'NONE', #60, #12 ) ;
#592 = EDGE_CURVE ( 'NONE', #443, #402, #530, .T. ) ;
#593 = DIRECTION ( 'NONE',  ( -0.000000000000000000, -0.000000000000000000, -1.000000000000000000 ) ) ;
#594 = VERTEX_POINT ( 'NONE', #94 ) ;
#595 = CARTESIAN_POINT ( 'NONE',  ( 0.000000000000000000, 0.000000000000000000, 0.6399999999999999023 ) ) ;
#596 = ORIENTED_EDGE ( 'NONE', *, *, #562, .F. ) ;
#597 = PLANE ( 'NONE',  #646 ) ;
#598 = CARTESIAN_POINT ( 'NONE',  ( -5.099999999999999645, 0.000000000000000000, 1.500000000000000000 ) ) ;
#599 = EDGE_CURVE ( 'NONE', #336, #583, #609, .T. ) ;
#600 = EDGE_LOOP ( 'NONE', ( #620, #713, #115, #489 ) ) ;
#601 = DIRECTION ( 'NONE',  ( 1.000000000000000000, 0.000000000000000000, -0.000000000000000000 ) ) ;
#602 = DIRECTION ( 'NONE',  ( 1.000000000000000000, -0.000000000000000000, 0.000000000000000000 ) ) ;
#603 = AXIS2_PLACEMENT_3D ( 'NONE', #344, #809, #205 ) ;
#604 = VECTOR ( 'NONE', #612, 999.9999999999998863 ) ;
#605 = DIRECTION ( 'NONE',  ( 0.7071067811865471286, -0.7071067811865479058, 0.000000000000000000 ) ) ;
#606 = ORIENTED_EDGE ( 'NONE', *, *, #9, .T. ) ;
#607 = EDGE_CURVE ( 'NONE', #151, #659, #958, .T. ) ;
#608 = CARTESIAN_POINT ( 'NONE',  ( 3.490000000000000213, 3.196743662552154142, 0.6399999999999999023 ) ) ;
#609 = LINE ( 'NONE', #387, #279 ) ;
#610 = DIRECTION ( 'NONE',  ( 0.000000000000000000, 0.000000000000000000, 1.000000000000000000 ) ) ;
#611 = EDGE_CURVE ( 'NONE', #112, #151, #759, .T. ) ;
#612 = DIRECTION ( 'NONE',  ( 0.7071067811865434649, -0.7071067811865516806, 0.000000000000000000 ) ) ;
#613 = ORIENTED_EDGE ( 'NONE', *, *, #6, .T. ) ;
#614 =( GEOMETRIC_REPRESENTATION_CONTEXT ( 3 ) GLOBAL_UNCERTAINTY_ASSIGNED_CONTEXT ( ( #483 ) ) GLOBAL_UNIT_ASSIGNED_CONTEXT ( ( #942, #502, #801 ) ) REPRESENTATION_CONTEXT ( 'NONE', 'WORKASPACE' ) );
#615 = AXIS2_PLACEMENT_3D ( 'NONE', #500, #119, #456 ) ;
#616 = AXIS2_PLACEMENT_3D ( 'NONE', #742, #679, #299 ) ;
#617 = DIRECTION ( 'NONE',  ( 0.000000000000000000, 0.000000000000000000, 1.000000000000000000 ) ) ;
#618 = DIRECTION ( 'NONE',  ( 0.7071067811865462405, -0.7071067811865489050, 0.000000000000000000 ) ) ;
#619 = DIRECTION ( 'NONE',  ( -1.000000000000000000, 0.000000000000000000, 0.000000000000000000 ) ) ;
#620 = ORIENTED_EDGE ( 'NONE', *, *, #323, .T. ) ;
#621 = EDGE_CURVE ( 'NONE', #290, #258, #706, .T. ) ;
#622 = CARTESIAN_POINT ( 'NONE',  ( -0.1466281687239253118, -0.1466281687239247844, 1.719700436986667524 ) ) ;
#623 = DIRECTION ( 'NONE',  ( 1.000000000000000000, 0.000000000000000000, 0.000000000000000000 ) ) ;
#624 = LINE ( 'NONE', #97, #401 ) ;
#625 = CARTESIAN_POINT ( 'NONE',  ( -6.070000000000000284, 0.000000000000000000, 0.6500000000000000222 ) ) ;
#626 = EDGE_CURVE ( 'NONE', #484, #144, #534, .T. ) ;
#627 = FACE_OUTER_BOUND ( 'NONE', #737, .T. ) ;
#628 = DIRECTION ( 'NONE',  ( -0.7071067811865479058, -0.7071067811865472397, 0.000000000000000000 ) ) ;
#629 = EDGE_LOOP ( 'NONE', ( #570, #751 ) ) ;
#630 = CARTESIAN_POINT ( 'NONE',  ( -3.657363544835298352, -3.449999999999999289, 0.000000000000000000 ) ) ;
#631 = AXIS2_PLACEMENT_3D ( 'NONE', #425, #206, #259 ) ;
#632 = CARTESIAN_POINT ( 'NONE',  ( 8.000000000000000000, 9.797174393178825657E-16, 0.6500000000000000222 ) ) ;
#633 = DIRECTION ( 'NONE',  ( -0.000000000000000000, 0.000000000000000000, 1.000000000000000000 ) ) ;
#634 = EDGE_CURVE ( 'NONE', #814, #474, #160, .T. ) ;
#635 = LINE ( 'NONE', #560, #107 ) ;
#636 = ORIENTED_EDGE ( 'NONE', *, *, #338, .F. ) ;
#637 = DIRECTION ( 'NONE',  ( -0.7071067811865462405, 0.7071067811865489050, 0.000000000000000000 ) ) ;
#638 = DIRECTION ( 'NONE',  ( 1.000000000000000000, 0.000000000000000000, 0.000000000000000000 ) ) ;
#639 = ADVANCED_FACE ( 'NONE', ( #86 ), #372, .F. ) ;
#640 = ORIENTED_EDGE ( 'NONE', *, *, #666, .F. ) ;
#641 = DIRECTION ( 'NONE',  ( 1.242638593106595599E-16, -1.000000000000000000, 0.000000000000000000 ) ) ;
#642 = PLANE ( 'NONE',  #539 ) ;
#643 = EDGE_LOOP ( 'NONE', ( #8, #495, #217, #945 ) ) ;
#644 = CARTESIAN_POINT ( 'NONE',  ( -3.450000000000000178, 3.449999999999999734, 0.6399999999999999023 ) ) ;
#645 = ORIENTED_EDGE ( 'NONE', *, *, #246, .F. ) ;
#646 = AXIS2_PLACEMENT_3D ( 'NONE', #749, #680, #523 ) ;
#647 = VECTOR ( 'NONE', #92, 1000.000000000000000 ) ;
#648 = ORIENTED_EDGE ( 'NONE', *, *, #148, .T. ) ;
#649 = PLANE ( 'NONE',  #830 ) ;
#650 = CARTESIAN_POINT ( 'NONE',  ( 3.596628168723923658, 3.303371831276076254, 0.000000000000000000 ) ) ;
#651 = ADVANCED_FACE ( 'NONE', ( #582 ), #270, .F. ) ;
#652 = ADVANCED_BREP_SHAPE_REPRESENTATION ( '专用定位片-FL7018I-ES-PA6GF', ( #245, #921 ), #920 ) ;
#653 = ORIENTED_EDGE ( 'NONE', *, *, #709, .T. ) ;
#654 = EDGE_LOOP ( 'NONE', ( #163, #580, #408, #359 ) ) ;
#655 = LINE ( 'NONE', #353, #800 ) ;
#656 = CARTESIAN_POINT ( 'NONE',  ( 3.490000000000000213, 3.196743662552154142, 10.51121066536420479 ) ) ;
#657 = CARTESIAN_POINT ( 'NONE',  ( 3.596628168723923658, 3.303371831276076254, 1.719700436986667524 ) ) ;
#658 = CARTESIAN_POINT ( 'NONE',  ( 3.490000000000001101, -3.490000000000000657, 0.6399999999999999023 ) ) ;
#659 = VERTEX_POINT ( 'NONE', #802 ) ;
#660 = VERTEX_POINT ( 'NONE', #820 ) ;
#661 = UNCERTAINTY_MEASURE_WITH_UNIT (LENGTH_MEASURE( 1.000000000000000082E-05 ), #265, 'distance_accuracy_value', 'NONE');
#662 = CIRCLE ( 'NONE', #738, 6.070000000000000284 ) ;
#663 = DIRECTION ( 'NONE',  ( 1.000000000000000000, 0.000000000000000000, 0.000000000000000000 ) ) ;
#664 = ORIENTED_EDGE ( 'NONE', *, *, #444, .T. ) ;
#665 = CIRCLE ( 'NONE', #458, 0.2073635448352961486 ) ;
#666 = EDGE_CURVE ( 'NONE', #342, #59, #137, .T. ) ;
#667 = AXIS2_PLACEMENT_3D ( 'NONE', #435, #529, #960 ) ;
#668 = DIRECTION ( 'NONE',  ( 0.000000000000000000, 0.000000000000000000, 1.000000000000000000 ) ) ;
#669 = ORIENTED_EDGE ( 'NONE', *, *, #548, .T. ) ;
#670 = CARTESIAN_POINT ( 'NONE',  ( -3.196743662552169685, -3.490000000000000657, 10.51121066536420479 ) ) ;
#671 = EDGE_CURVE ( 'NONE', #144, #871, #398, .T. ) ;
#672 = CARTESIAN_POINT ( 'NONE',  ( -0.1466281687238999154, 0.1466281687238986942, 0.6399999999999999023 ) ) ;
#673 = ORIENTED_EDGE ( 'NONE', *, *, #454, .T. ) ;
#674 = LINE ( 'NONE', #360, #787 ) ;
#675 = ORIENTED_EDGE ( 'NONE', *, *, #250, .F. ) ;
#676 = CARTESIAN_POINT ( 'NONE',  ( 3.303371831276083803, 3.596628168723911223, 1.719700436986667524 ) ) ;
#677 = ORIENTED_EDGE ( 'NONE', *, *, #879, .T. ) ;
#678 = VECTOR ( 'NONE', #876, 1000.000000000000000 ) ;
#679 = DIRECTION ( 'NONE',  ( 0.000000000000000000, 0.000000000000000000, 1.000000000000000000 ) ) ;
#680 = DIRECTION ( 'NONE',  ( 0.000000000000000000, 0.000000000000000000, 1.000000000000000000 ) ) ;
#681 = CIRCLE ( 'NONE', #723, 6.070000000000000284 ) ;
#682 = AXIS2_PLACEMENT_3D ( 'NONE', #697, #169, #302 ) ;
#683 = DIRECTION ( 'NONE',  ( 0.7071067811865445751, 0.7071067811865504593, -0.000000000000000000 ) ) ;
#684 = EDGE_CURVE ( 'NONE', #443, #31, #806, .T. ) ;
#685 = DIRECTION ( 'NONE',  ( 0.000000000000000000, 0.000000000000000000, -1.000000000000000000 ) ) ;
#686 = ORIENTED_EDGE ( 'NONE', *, *, #103, .T. ) ;
#687 = CARTESIAN_POINT ( 'NONE',  ( -3.303371831276080250, 3.596628168723917440, 0.6399999999999999023 ) ) ;
#688 = FACE_BOUND ( 'NONE', #326, .T. ) ;
#689 = CARTESIAN_POINT ( 'NONE',  ( 0.000000000000000000, 0.000000000000000000, 0.6399999999999999023 ) ) ;
#690 = CARTESIAN_POINT ( 'NONE',  ( -3.196743662552168797, -3.490000000000000657, 0.6399999999999999023 ) ) ;
#691 = EDGE_CURVE ( 'NONE', #342, #739, #266, .T. ) ;
#692 = VECTOR ( 'NONE', #605, 1000.000000000000000 ) ;
#693 = LINE ( 'NONE', #845, #860 ) ;
#694 = CARTESIAN_POINT ( 'NONE',  ( -3.303371831276083359, -3.596628168723916108, 1.719700436986667524 ) ) ;
#695 = ADVANCED_FACE ( 'NONE', ( #703, #329 ), #642, .T. ) ;
#696 = FILL_AREA_STYLE_COLOUR ( '', #486 ) ;
#697 = CARTESIAN_POINT ( 'NONE',  ( -3.450000000000001954, -3.449999999999999289, 0.000000000000000000 ) ) ;
#698 = CARTESIAN_POINT ( 'NONE',  ( 0.000000000000000000, 0.000000000000000000, 1.500000000000000000 ) ) ;
#699 = ORIENTED_EDGE ( 'NONE', *, *, #823, .F. ) ;
#700 = EDGE_CURVE ( 'NONE', #546, #39, #635, .T. ) ;
#701 = CARTESIAN_POINT ( 'NONE',  ( 0.1466281687238970843, -0.1466281687238953635, 1.719700436986667524 ) ) ;
#702 = CARTESIAN_POINT ( 'NONE',  ( 3.303371831276082027, 3.596628168723912999, 0.000000000000000000 ) ) ;
#703 = FACE_BOUND ( 'NONE', #629, .T. ) ;
#704 = VERTEX_POINT ( 'NONE', #43 ) ;
#705 = AXIS2_PLACEMENT_3D ( 'NONE', #622, #327, #618 ) ;
#706 = CIRCLE ( 'NONE', #682, 0.2073635448352961486 ) ;
#707 = AXIS2_PLACEMENT_3D ( 'NONE', #427, #531, #224 ) ;
#708 = DIRECTION ( 'NONE',  ( 0.7071067811865516806, -0.7071067811865434649, 0.000000000000000000 ) ) ;
#709 = EDGE_CURVE ( 'NONE', #112, #282, #858, .T. ) ;
#710 = ORIENTED_EDGE ( 'NONE', *, *, #473, .F. ) ;
#711 = ORIENTED_EDGE ( 'NONE', *, *, #57, .T. ) ;
#712 = FACE_OUTER_BOUND ( 'NONE', #506, .T. ) ;
#713 = ORIENTED_EDGE ( 'NONE', *, *, #271, .T. ) ;
#714 = ORIENTED_EDGE ( 'NONE', *, *, #592, .F. ) ;
#715 = ORIENTED_EDGE ( 'NONE', *, *, #611, .T. ) ;
#716 = ORIENTED_EDGE ( 'NONE', *, *, #864, .T. ) ;
#717 = FACE_OUTER_BOUND ( 'NONE', #164, .T. ) ;
#718 = ORIENTED_EDGE ( 'NONE', *, *, #493, .F. ) ;
#719 = DIRECTION ( 'NONE',  ( 0.000000000000000000, -0.000000000000000000, 1.000000000000000000 ) ) ;
#720 = ADVANCED_FACE ( 'NONE', ( #717 ), #222, .F. ) ;
#721 = DIRECTION ( 'NONE',  ( 0.7071067811865479058, 0.7071067811865472397, 0.000000000000000000 ) ) ;
#722 = CARTESIAN_POINT ( 'NONE',  ( -3.490000000000001101, 3.196743662552163467, 0.6399999999999999023 ) ) ;
#723 = AXIS2_PLACEMENT_3D ( 'NONE', #218, #377, #159 ) ;
#724 = AXIS2_PLACEMENT_3D ( 'NONE', #46, #200, #122 ) ;
#725 = APPLICATION_PROTOCOL_DEFINITION ( 'draft international standard', 'automotive_design', 1998, #193 ) ;
#726 = VECTOR ( 'NONE', #101, 1000.000000000000000 ) ;
#727 = VERTEX_POINT ( 'NONE', #826 ) ;
#728 = LINE ( 'NONE', #656, #678 ) ;
#729 = DIRECTION ( 'NONE',  ( 0.000000000000000000, 0.000000000000000000, -1.000000000000000000 ) ) ;
#730 = ORIENTED_EDGE ( 'NONE', *, *, #508, .F. ) ;
#731 = CARTESIAN_POINT ( 'NONE',  ( -0.1466281687239253118, -0.1466281687239247844, 0.000000000000000000 ) ) ;
#732 = ORIENTED_EDGE ( 'NONE', *, *, #382, .T. ) ;
#733 = CARTESIAN_POINT ( 'NONE',  ( -3.596628168723922769, -3.303371831276082915, 0.000000000000000000 ) ) ;
#734 = DIRECTION ( 'NONE',  ( 0.000000000000000000, 0.000000000000000000, -1.000000000000000000 ) ) ;
#735 = FILL_AREA_STYLE ('',( #696 ) ) ;
#736 = ADVANCED_FACE ( 'NONE', ( #133 ), #892, .F. ) ;
#737 = EDGE_LOOP ( 'NONE', ( #536, #407, #63, #518 ) ) ;
#738 = AXIS2_PLACEMENT_3D ( 'NONE', #390, #511, #62 ) ;
#739 = VERTEX_POINT ( 'NONE', #608 ) ;
#740 = EDGE_CURVE ( 'NONE', #704, #561, #141, .T. ) ;
#741 = AXIS2_PLACEMENT_3D ( 'NONE', #689, #617, #868 ) ;
#742 = CARTESIAN_POINT ( 'NONE',  ( 0.000000000000000000, 0.000000000000000000, 1.199999999999999289 ) ) ;
#743 = ORIENTED_EDGE ( 'NONE', *, *, #214, .T. ) ;
#744 = AXIS2_PLACEMENT_3D ( 'NONE', #829, #155, #239 ) ;
#745 = EDGE_CURVE ( 'NONE', #871, #144, #66, .T. ) ;
#746 = FACE_OUTER_BOUND ( 'NONE', #855, .T. ) ;
#747 = ORIENTED_EDGE ( 'NONE', *, *, #870, .T. ) ;
#748 = DIRECTION ( 'NONE',  ( -1.000000000000000000, 0.000000000000000000, 0.000000000000000000 ) ) ;
#749 = CARTESIAN_POINT ( 'NONE',  ( 0.000000000000000000, 0.000000000000000000, 0.000000000000000000 ) ) ;
#750 = PRODUCT_RELATED_PRODUCT_CATEGORY ( 'part', '', ( #861 ) ) ;
#751 = ORIENTED_EDGE ( 'NONE', *, *, #532, .F. ) ;
#752 = CYLINDRICAL_SURFACE ( 'NONE', #385, 5.099999999999999645 ) ;
#753 = DIRECTION ( 'NONE',  ( 0.000000000000000000, 0.000000000000000000, 1.000000000000000000 ) ) ;
#754 = CARTESIAN_POINT ( 'NONE',  ( 3.490000000000001545, -3.196743662552162579, 0.6399999999999999023 ) ) ;
#755 = EDGE_CURVE ( 'NONE', #814, #739, #513, .T. ) ;
#756 = CARTESIAN_POINT ( 'NONE',  ( 0.000000000000000000, 0.000000000000000000, 0.6500000000000000222 ) ) ;
#757 = AXIS2_PLACEMENT_3D ( 'NONE', #248, #547, #176 ) ;
#758 = CARTESIAN_POINT ( 'NONE',  ( -5.099999999999999645, 0.000000000000000000, 0.6399999999999999023 ) ) ;
#759 = CIRCLE ( 'NONE', #28, 5.099999999999999645 ) ;
#760 = AXIS2_PLACEMENT_3D ( 'NONE', #143, #446, #453 ) ;
#761 = DIRECTION ( 'NONE',  ( 0.000000000000000000, 0.000000000000000000, -1.000000000000000000 ) ) ;
#762 = LINE ( 'NONE', #549, #49 ) ;
#763 = FACE_OUTER_BOUND ( 'NONE', #102, .T. ) ;
#764 = ORIENTED_EDGE ( 'NONE', *, *, #906, .T. ) ;
#765 = EDGE_CURVE ( 'NONE', #403, #589, #442, .T. ) ;
#766 = CARTESIAN_POINT ( 'NONE',  ( -3.450000000000001954, -3.449999999999999289, 1.226512674895674504 ) ) ;
#767 = DIRECTION ( 'NONE',  ( 0.000000000000000000, 0.000000000000000000, -1.000000000000000000 ) ) ;
#768 = EDGE_CURVE ( 'NONE', #274, #15, #674, .T. ) ;
#769 = AXIS2_PLACEMENT_3D ( 'NONE', #124, #117, #497 ) ;
#770 = AXIS2_PLACEMENT_3D ( 'NONE', #824, #147, #370 ) ;
#771 = VECTOR ( 'NONE', #663, 1000.000000000000000 ) ;
#772 = CARTESIAN_POINT ( 'NONE',  ( 5.099999999999999645, 6.245698675651500839E-16, 1.199999999999999289 ) ) ;
#773 = DIRECTION ( 'NONE',  ( 0.000000000000000000, 0.000000000000000000, 1.000000000000000000 ) ) ;
#774 = CARTESIAN_POINT ( 'NONE',  ( 0.1466281687239211762, 0.1466281687239210096, 0.000000000000000000 ) ) ;
#775 = ORIENTED_EDGE ( 'NONE', *, *, #528, .T. ) ;
#776 = CARTESIAN_POINT ( 'NONE',  ( 3.196743662552166576, -3.490000000000001545, 0.000000000000000000 ) ) ;
#777 = LINE ( 'NONE', #24, #647 ) ;
#778 = DIRECTION ( 'NONE',  ( -0.7071067811865440200, 0.7071067811865511255, 0.000000000000000000 ) ) ;
#779 = ORIENTED_EDGE ( 'NONE', *, *, #380, .F. ) ;
#780 = ADVANCED_FACE ( 'NONE', ( #291, #522 ), #347, .T. ) ;
#781 = DIRECTION ( 'NONE',  ( -0.7071067811865434649, -0.7071067811865516806, 0.000000000000000000 ) ) ;
#782 = ORIENTED_EDGE ( 'NONE', *, *, #314, .T. ) ;
#783 = LINE ( 'NONE', #19, #309 ) ;
#784 = AXIS2_PLACEMENT_3D ( 'NONE', #581, #56, #257 ) ;
#785 = CONICAL_SURFACE ( 'NONE', #877, 5.099999999999999645, 0.7853981633974570498 ) ;
#786 = ORIENTED_EDGE ( 'NONE', *, *, #755, .F. ) ;
#787 = VECTOR ( 'NONE', #58, 1000.000000000000000 ) ;
#788 = CARTESIAN_POINT ( 'NONE',  ( -5.099999999999999645, 0.000000000000000000, 1.199999999999999289 ) ) ;
#789 = ORIENTED_EDGE ( 'NONE', *, *, #373, .T. ) ;
#790 = ORIENTED_EDGE ( 'NONE', *, *, #316, .T. ) ;
#791 = PLANE ( 'NONE',  #170 ) ;
#792 = ORIENTED_EDGE ( 'NONE', *, *, #634, .F. ) ;
#793 = ADVANCED_FACE ( 'NONE', ( #891 ), #818, .F. ) ;
#794 = CARTESIAN_POINT ( 'NONE',  ( -5.099999999999999645, 6.245698675651499853E-16, 1.199999999999999289 ) ) ;
#795 = EDGE_LOOP ( 'NONE', ( #956, #236, #884, #41 ) ) ;
#796 = CARTESIAN_POINT ( 'NONE',  ( 6.070000000000000284, 7.433606070824434024E-16, 1.500000000000000000 ) ) ;
#797 = EDGE_CURVE ( 'NONE', #546, #927, #71, .T. ) ;
#798 = ORIENTED_EDGE ( 'NONE', *, *, #32, .T. ) ;
#799 = FACE_OUTER_BOUND ( 'NONE', #821, .T. ) ;
#800 = VECTOR ( 'NONE', #587, 1000.000000000000000 ) ;
#801 =( NAMED_UNIT ( * ) SI_UNIT ( $, .STERADIAN. ) SOLID_ANGLE_UNIT ( ) );
#802 = CARTESIAN_POINT ( 'NONE',  ( 5.400000000000005684, 0.000000000000000000, 1.500000000000000000 ) ) ;
#803 = CIRCLE ( 'NONE', #862, 5.099999999999999645 ) ;
#804 = ORIENTED_EDGE ( 'NONE', *, *, #607, .F. ) ;
#805 = PRESENTATION_LAYER_ASSIGNMENT (  '', '', ( #154 ) ) ;
#806 = LINE ( 'NONE', #126, #324 ) ;
#807 = CARTESIAN_POINT ( 'NONE',  ( 3.303371831276078474, -3.596628168723914332, 0.6399999999999999023 ) ) ;
#808 = ADVANCED_FACE ( 'NONE', ( #449 ), #752, .F. ) ;
#809 = DIRECTION ( 'NONE',  ( 0.000000000000000000, 0.000000000000000000, 1.000000000000000000 ) ) ;
#810 = ORIENTED_EDGE ( 'NONE', *, *, #592, .T. ) ;
#811 = DIRECTION ( 'NONE',  ( 0.000000000000000000, 0.000000000000000000, -1.000000000000000000 ) ) ;
#812 = CARTESIAN_POINT ( 'NONE',  ( -8.000000000000000000, 0.000000000000000000, 0.6500000000000000222 ) ) ;
#813 = ADVANCED_FACE ( 'NONE', ( #457 ), #233, .T. ) ;
#814 = VERTEX_POINT ( 'NONE', #754 ) ;
#815 = CARTESIAN_POINT ( 'NONE',  ( 8.000000000000000000, 9.797174393178825657E-16, 0.6500000000000000222 ) ) ;
#816 = VECTOR ( 'NONE', #734, 1000.000000000000000 ) ;
#817 = ORIENTED_EDGE ( 'NONE', *, *, #32, .F. ) ;
#818 = CYLINDRICAL_SURFACE ( 'NONE', #280, 0.2073635448352961486 ) ;
#819 = FACE_OUTER_BOUND ( 'NONE', #269, .T. ) ;
#820 = CARTESIAN_POINT ( 'NONE',  ( -3.303371831276083803, -3.596628168723916552, 0.6399999999999999023 ) ) ;
#821 = EDGE_LOOP ( 'NONE', ( #542, #221, #36, #64 ) ) ;
#822 = CARTESIAN_POINT ( 'NONE',  ( -0.1466281687238999154, 0.1466281687238986942, 0.000000000000000000 ) ) ;
#823 = EDGE_CURVE ( 'NONE', #834, #106, #79, .T. ) ;
#824 = CARTESIAN_POINT ( 'NONE',  ( 3.450000000000000178, -3.449999999999998845, 1.226512674895674504 ) ) ;
#825 = DIRECTION ( 'NONE',  ( -1.242638593106595353E-16, 1.000000000000000000, -0.000000000000000000 ) ) ;
#826 = CARTESIAN_POINT ( 'NONE',  ( 6.070000000000000284, 7.433606070824434024E-16, 0.6500000000000000222 ) ) ;
#827 = DIRECTION ( 'NONE',  ( -0.000000000000000000, -1.000000000000000000, -0.000000000000000000 ) ) ;
#828 = DIRECTION ( 'NONE',  ( -0.000000000000000000, -1.000000000000000000, 0.000000000000000000 ) ) ;
#829 = CARTESIAN_POINT ( 'NONE',  ( 0.000000000000000000, 0.000000000000000000, 1.199999999999999289 ) ) ;
#830 = AXIS2_PLACEMENT_3D ( 'NONE', #577, #131, #719 ) ;
#831 = VECTOR ( 'NONE', #171, 999.9999999999998863 ) ;
#832 = ORIENTED_EDGE ( 'NONE', *, *, #562, .T. ) ;
#833 = ADVANCED_FACE ( 'NONE', ( #929 ), #167, .T. ) ;
#834 = VERTEX_POINT ( 'NONE', #690 ) ;
#835 = CARTESIAN_POINT ( 'NONE',  ( -8.000000000000000000, 0.000000000000000000, 0.6500000000000000222 ) ) ;
#836 = CARTESIAN_POINT ( 'NONE',  ( -0.1466281687239015252, -0.1466281687239000264, 0.6399999999999999023 ) ) ;
#837 = DIRECTION ( 'NONE',  ( -1.000000000000000000, 0.000000000000000000, 0.000000000000000000 ) ) ;
#838 = ORIENTED_EDGE ( 'NONE', *, *, #323, .F. ) ;
#839 = EDGE_LOOP ( 'NONE', ( #715, #256, #718, #596 ) ) ;
#840 = EDGE_CURVE ( 'NONE', #39, #31, #762, .T. ) ;
#841 = LINE ( 'NONE', #322, #537 ) ;
#842 =( LENGTH_UNIT ( ) NAMED_UNIT ( * ) SI_UNIT ( .MILLI., .METRE. ) );
#843 = LINE ( 'NONE', #149, #552 ) ;
#844 = ORIENTED_EDGE ( 'NONE', *, *, #684, .F. ) ;
#845 = CARTESIAN_POINT ( 'NONE',  ( -3.490000000000000213, 3.196743662552162579, 10.51121066536420479 ) ) ;
#846 = DIRECTION ( 'NONE',  ( 0.000000000000000000, 0.000000000000000000, 1.000000000000000000 ) ) ;
#847 = ORIENTED_EDGE ( 'NONE', *, *, #887, .F. ) ;
#848 = VECTOR ( 'NONE', #781, 999.9999999999998863 ) ;
#849 = AXIS2_PLACEMENT_3D ( 'NONE', #451, #753, #226 ) ;
#850 = DIRECTION ( 'NONE',  ( 0.000000000000000000, 0.000000000000000000, 1.000000000000000000 ) ) ;
#851 = CARTESIAN_POINT ( 'NONE',  ( -3.450000000000000178, 3.449999999999999734, 0.6399999999999999023 ) ) ;
#852 = EDGE_CURVE ( 'NONE', #59, #389, #312, .T. ) ;
#853 = ORIENTED_EDGE ( 'NONE', *, *, #6, .F. ) ;
#854 = DIRECTION ( 'NONE',  ( 0.000000000000000000, 0.000000000000000000, -1.000000000000000000 ) ) ;
#855 = EDGE_LOOP ( 'NONE', ( #838, #273, #882, #779 ) ) ;
#856 = DIRECTION ( 'NONE',  ( 1.000000000000000000, 0.000000000000000000, 0.000000000000000000 ) ) ;
#857 = EDGE_LOOP ( 'NONE', ( #201, #196, #925, #714 ) ) ;
#858 = LINE ( 'NONE', #794, #188 ) ;
#859 = EDGE_LOOP ( 'NONE', ( #400, #948, #613, #2 ) ) ;
#860 = VECTOR ( 'NONE', #854, 1000.000000000000000 ) ;
#861 = PRODUCT ( '专用定位片-FL7018I-ES-PA6GF', '专用定位片-FL7018I-ES-PA6GF', '', ( #30 ) ) ;
#862 = AXIS2_PLACEMENT_3D ( 'NONE', #195, #135, #874 ) ;
#863 = FACE_OUTER_BOUND ( 'NONE', #944, .T. ) ;
#864 = EDGE_CURVE ( 'NONE', #290, #883, #624, .T. ) ;
#865 = AXIS2_PLACEMENT_3D ( 'NONE', #379, #912, #374 ) ;
#866 = ORIENTED_EDGE ( 'NONE', *, *, #745, .T. ) ;
#867 = CARTESIAN_POINT ( 'NONE',  ( 0.1466281687239211762, 0.1466281687239210096, 0.6399999999999999023 ) ) ;
#868 = DIRECTION ( 'NONE',  ( 1.000000000000000000, 0.000000000000000000, 0.000000000000000000 ) ) ;
#869 = DIRECTION ( 'NONE',  ( 0.000000000000000000, 0.000000000000000000, -1.000000000000000000 ) ) ;
#870 = EDGE_CURVE ( 'NONE', #274, #106, #555, .T. ) ;
#871 = VERTEX_POINT ( 'NONE', #477 ) ;
#872 = CARTESIAN_POINT ( 'NONE',  ( 6.070000000000000284, 7.433606070824434024E-16, 1.500000000000000000 ) ) ;
#873 = ORIENTED_EDGE ( 'NONE', *, *, #85, .T. ) ;
#874 = DIRECTION ( 'NONE',  ( 1.000000000000000000, 0.000000000000000000, 0.000000000000000000 ) ) ;
#875 = VECTOR ( 'NONE', #637, 1000.000000000000000 ) ;
#876 = DIRECTION ( 'NONE',  ( 0.000000000000000000, 0.000000000000000000, 1.000000000000000000 ) ) ;
#877 = AXIS2_PLACEMENT_3D ( 'NONE', #445, #142, #899 ) ;
#878 = ORIENTED_EDGE ( 'NONE', *, *, #197, .T. ) ;
#879 = EDGE_CURVE ( 'NONE', #517, #118, #777, .T. ) ;
#880 = CARTESIAN_POINT ( 'NONE',  ( -3.196743662552168797, -3.490000000000000657, 0.000000000000000000 ) ) ;
#881 = CARTESIAN_POINT ( 'NONE',  ( 3.490000000000000213, 3.489999999999999769, 10.51121066536420479 ) ) ;
#882 = ORIENTED_EDGE ( 'NONE', *, *, #284, .F. ) ;
#883 = VERTEX_POINT ( 'NONE', #909 ) ;
#884 = ORIENTED_EDGE ( 'NONE', *, *, #214, .F. ) ;
#885 = DIRECTION ( 'NONE',  ( 0.000000000000000000, 0.000000000000000000, 1.000000000000000000 ) ) ;
#886 = DIRECTION ( 'NONE',  ( 0.000000000000000000, 0.000000000000000000, 1.000000000000000000 ) ) ;
#887 = EDGE_CURVE ( 'NONE', #260, #498, #526, .T. ) ;
#888 = CIRCLE ( 'NONE', #603, 0.2073635448352961486 ) ;
#889 = ORIENTED_EDGE ( 'NONE', *, *, #840, .F. ) ;
#890 = AXIS2_PLACEMENT_3D ( 'NONE', #381, #602, #288 ) ;
#891 = FACE_OUTER_BOUND ( 'NONE', #428, .T. ) ;
#892 = CONICAL_SURFACE ( 'NONE', #616, 5.099999999999999645, 0.7853981633974570498 ) ;
#893 = CARTESIAN_POINT ( 'NONE',  ( -3.450000000000000178, 3.449999999999999734, 0.000000000000000000 ) ) ;
#894 = CARTESIAN_POINT ( 'NONE',  ( 3.490000000000000213, 3.489999999999999769, 0.000000000000000000 ) ) ;
#895 = ORIENTED_EDGE ( 'NONE', *, *, #9, .F. ) ;
#896 = CARTESIAN_POINT ( 'NONE',  ( 3.490000000000000213, 3.489999999999999769, 0.6399999999999999023 ) ) ;
#897 = ORIENTED_EDGE ( 'NONE', *, *, #74, .F. ) ;
#898 = FACE_OUTER_BOUND ( 'NONE', #254, .T. ) ;
#899 = DIRECTION ( 'NONE',  ( 1.000000000000000000, 0.000000000000000000, 0.000000000000000000 ) ) ;
#900 = EDGE_CURVE ( 'NONE', #959, #704, #554, .T. ) ;
#901 = ORIENTED_EDGE ( 'NONE', *, *, #765, .F. ) ;
#902 = DIRECTION ( 'NONE',  ( -1.000000000000000000, 0.000000000000000000, 0.000000000000000000 ) ) ;
#903 = CIRCLE ( 'NONE', #3, 6.070000000000000284 ) ;
#904 = ORIENTED_EDGE ( 'NONE', *, *, #431, .T. ) ;
#905 = COLOUR_RGB ( '',1.000000000000000000, 1.000000000000000000, 1.000000000000000000 ) ;
#906 = EDGE_CURVE ( 'NONE', #883, #27, #232, .T. ) ;
#907 = EDGE_CURVE ( 'NONE', #336, #11, #175, .T. ) ;
#908 = LINE ( 'NONE', #96, #875 ) ;
#909 = CARTESIAN_POINT ( 'NONE',  ( -3.490000000000000657, -3.196743662552160359, 0.000000000000000000 ) ) ;
#910 = DIRECTION ( 'NONE',  ( 0.000000000000000000, 0.000000000000000000, 1.000000000000000000 ) ) ;
#911 = DIRECTION ( 'NONE',  ( 0.7071067811865479058, 0.7071067811865471286, 0.000000000000000000 ) ) ;
#912 = DIRECTION ( 'NONE',  ( -0.000000000000000000, -0.000000000000000000, -1.000000000000000000 ) ) ;
#913 = DIRECTION ( 'NONE',  ( -0.000000000000000000, -0.000000000000000000, -1.000000000000000000 ) ) ;
#914 = CARTESIAN_POINT ( 'NONE',  ( 3.596628168723918773, -3.303371831276079362, 0.000000000000000000 ) ) ;
#915 = EDGE_CURVE ( 'NONE', #498, #258, #249, .T. ) ;
#916 = CARTESIAN_POINT ( 'NONE',  ( -3.657363544835298352, -3.449999999999999289, 1.226512674895674504 ) ) ;
#917 = CIRCLE ( 'NONE', #757, 0.2073635448352961486 ) ;
#918 = PRODUCT_DEFINITION_SHAPE ( 'NONE', 'NONE',  #397 ) ;
#919 = VECTOR ( 'NONE', #683, 1000.000000000000000 ) ;
#920 =( GEOMETRIC_REPRESENTATION_CONTEXT ( 3 ) GLOBAL_UNCERTAINTY_ASSIGNED_CONTEXT ( ( #475 ) ) GLOBAL_UNIT_ASSIGNED_CONTEXT ( ( #842, #161, #386 ) ) REPRESENTATION_CONTEXT ( 'NONE', 'WORKASPACE' ) );
#921 = AXIS2_PLACEMENT_3D ( 'NONE', #504, #426, #638 ) ;
#922 = CARTESIAN_POINT ( 'NONE',  ( 0.000000000000000000, 0.000000000000000000, 1.500000000000000000 ) ) ;
#923 = DIRECTION ( 'NONE',  ( 1.000000000000000000, 0.000000000000000000, 0.000000000000000000 ) ) ;
#924 = DIRECTION ( 'NONE',  ( -1.000000000000000000, 0.000000000000000000, 0.000000000000000000 ) ) ;
#925 = ORIENTED_EDGE ( 'NONE', *, *, #373, .F. ) ;
#926 = DIRECTION ( 'NONE',  ( 1.000000000000000000, 0.000000000000000000, 0.000000000000000000 ) ) ;
#927 = VERTEX_POINT ( 'NONE', #702 ) ;
#928 = ORIENTED_EDGE ( 'NONE', *, *, #599, .T. ) ;
#929 = FACE_OUTER_BOUND ( 'NONE', #643, .T. ) ;
#930 = ORIENTED_EDGE ( 'NONE', *, *, #626, .F. ) ;
#931 = ORIENTED_EDGE ( 'NONE', *, *, #852, .F. ) ;
#932 = CIRCLE ( 'NONE', #769, 0.2073635448352961486 ) ;
#933 = EDGE_CURVE ( 'NONE', #151, #112, #297, .T. ) ;
#934 = VECTOR ( 'NONE', #939, 1000.000000000000000 ) ;
#935 = CARTESIAN_POINT ( 'NONE',  ( 3.303371831276079362, -3.596628168723915664, 0.000000000000000000 ) ) ;
#936 = VECTOR ( 'NONE', #87, 1000.000000000000000 ) ;
#937 = SURFACE_SIDE_STYLE ('',( #409 ) ) ;
#938 = ORIENTED_EDGE ( 'NONE', *, *, #296, .F. ) ;
#939 = DIRECTION ( 'NONE',  ( 0.7071067811865471286, -0.7071067811865479058, 0.000000000000000000 ) ) ;
#940 = DIRECTION ( 'NONE',  ( 0.7071067811865472397, -0.7071067811865479058, 0.000000000000000000 ) ) ;
#941 = DIRECTION ( 'NONE',  ( -0.000000000000000000, -0.000000000000000000, -1.000000000000000000 ) ) ;
#942 =( LENGTH_UNIT ( ) NAMED_UNIT ( * ) SI_UNIT ( .MILLI., .METRE. ) );
#943 = ADVANCED_FACE ( 'NONE', ( #466 ), #319, .T. ) ;
#944 = EDGE_LOOP ( 'NONE', ( #792, #330, #897, #72 ) ) ;
#945 = ORIENTED_EDGE ( 'NONE', *, *, #671, .T. ) ;
#946 = CYLINDRICAL_SURFACE ( 'NONE', #278, 0.2073635448352961486 ) ;
#947 = SURFACE_STYLE_FILL_AREA ( #253 ) ;
#948 = ORIENTED_EDGE ( 'NONE', *, *, #473, .T. ) ;
#949 = EDGE_CURVE ( 'NONE', #660, #174, #460, .T. ) ;
#950 = PRESENTATION_LAYER_ASSIGNMENT (  '', '', ( #321 ) ) ;
#951 = DIRECTION ( 'NONE',  ( 1.000000000000000000, 0.000000000000000000, 0.000000000000000000 ) ) ;
#952 = VECTOR ( 'NONE', #191, 999.9999999999998863 ) ;
#953 = AXIS2_PLACEMENT_3D ( 'NONE', #391, #846, #923 ) ;
#954 = ORIENTED_EDGE ( 'NONE', *, *, #684, .T. ) ;
#955 = ORIENTED_EDGE ( 'NONE', *, *, #338, .T. ) ;
#956 = ORIENTED_EDGE ( 'NONE', *, *, #906, .F. ) ;
#957 = DIRECTION ( 'NONE',  ( -1.000000000000000000, 0.000000000000000000, 0.000000000000000000 ) ) ;
#958 = LINE ( 'NONE', #301, #153 ) ;
#959 = VERTEX_POINT ( 'NONE', #687 ) ;
#960 = DIRECTION ( 'NONE',  ( 1.000000000000000000, 0.000000000000000000, 0.000000000000000000 ) ) ;
ENDSEC;
END-ISO-10303-21;
