ISO-10303-21;
HEADER;
FILE_DESCRIPTION (( 'STEP AP214' ),
    '1' );
FILE_NAME ('专用定位片-FL7018I-ES.STEP',
    '2025-07-26T05:38:32',
    ( '' ),
    ( '' ),
    'SwSTEP 2.0',
    'SolidWorks 2021',
    '' );
FILE_SCHEMA (( 'AUTOMOTIVE_DESIGN' ));
ENDSEC;

DATA;
#1 = DIRECTION ( 'NONE',  ( 1.000000000000000000, 0.000000000000000000, 0.000000000000000000 ) ) ;
#2 = ORIENTED_EDGE ( 'NONE', *, *, #412, .T. ) ;
#3 = AXIS2_PLACEMENT_3D ( 'NONE', #421, #97, #159 ) ;
#4 =( NAMED_UNIT ( * ) SI_UNIT ( $, .STERADIAN. ) SOLID_ANGLE_UNIT ( ) );
#5 = ORIENTED_EDGE ( 'NONE', *, *, #316, .F. ) ;
#6 = DIRECTION ( 'NONE',  ( -0.000000000000000000, -0.000000000000000000, -1.000000000000000000 ) ) ;
#7 = EDGE_LOOP ( 'NONE', ( #190, #226, #279, #376 ) ) ;
#8 = FACE_OUTER_BOUND ( 'NONE', #160, .T. ) ;
#9 = ORIENTED_EDGE ( 'NONE', *, *, #255, .T. ) ;
#10 = AXIS2_PLACEMENT_3D ( 'NONE', #441, #486, #406 ) ;
#11 = FACE_OUTER_BOUND ( 'NONE', #113, .T. ) ;
#12 = EDGE_LOOP ( 'NONE', ( #414, #320, #80, #259 ) ) ;
#13 = DIRECTION ( 'NONE',  ( 0.000000000000000000, 0.000000000000000000, 1.000000000000000000 ) ) ;
#14 = ORIENTED_EDGE ( 'NONE', *, *, #149, .F. ) ;
#15 = CARTESIAN_POINT ( 'NONE',  ( 0.000000000000000000, 0.000000000000000000, 0.6500000000000000222 ) ) ;
#16 = ORIENTED_EDGE ( 'NONE', *, *, #309, .F. ) ;
#17 = CARTESIAN_POINT ( 'NONE',  ( 6.035000000000000142, 7.390743432854276880E-16, 1.500000000000000000 ) ) ;
#18 = ORIENTED_EDGE ( 'NONE', *, *, #447, .T. ) ;
#19 = DIRECTION ( 'NONE',  ( -1.000000000000000000, 0.000000000000000000, 0.000000000000000000 ) ) ;
#20 = CARTESIAN_POINT ( 'NONE',  ( 0.000000000000000000, 0.000000000000000000, 0.6500000000000000222 ) ) ;
#21 = DIRECTION ( 'NONE',  ( 0.000000000000000000, 1.000000000000000000, 0.000000000000000000 ) ) ;
#22 = EDGE_LOOP ( 'NONE', ( #115, #261, #308, #213 ) ) ;
#23 = EDGE_CURVE ( 'NONE', #193, #420, #449, .T. ) ;
#24 = LINE ( 'NONE', #27, #219 ) ;
#25 = AXIS2_PLACEMENT_3D ( 'NONE', #329, #139, #289 ) ;
#26 = DIRECTION ( 'NONE',  ( -0.000000000000000000, 1.000000000000000000, -0.000000000000000000 ) ) ;
#27 = CARTESIAN_POINT ( 'NONE',  ( 3.475000000000000089, -3.475000000000000533, 10.46878425849301131 ) ) ;
#28 = LINE ( 'NONE', #479, #327 ) ;
#29 = CARTESIAN_POINT ( 'NONE',  ( 0.000000000000000000, 0.000000000000000000, 0.000000000000000000 ) ) ;
#30 = PLANE ( 'NONE',  #266 ) ;
#31 = APPLICATION_PROTOCOL_DEFINITION ( 'draft international standard', 'automotive_design', 1998, #182 ) ;
#32 = VECTOR ( 'NONE', #58, 1000.000000000000000 ) ;
#33 = LINE ( 'NONE', #183, #151 ) ;
#34 = AXIS2_PLACEMENT_3D ( 'NONE', #66, #250, #145 ) ;
#35 = ADVANCED_FACE ( 'NONE', ( #94 ), #167, .T. ) ;
#36 = LINE ( 'NONE', #295, #236 ) ;
#37 = DIRECTION ( 'NONE',  ( 0.000000000000000000, 0.000000000000000000, 1.000000000000000000 ) ) ;
#38 = ORIENTED_EDGE ( 'NONE', *, *, #255, .F. ) ;
#39 = CARTESIAN_POINT ( 'NONE',  ( 0.000000000000000000, 0.000000000000000000, 0.6399999999999999023 ) ) ;
#40 = ORIENTED_EDGE ( 'NONE', *, *, #100, .F. ) ;
#41 = CIRCLE ( 'NONE', #366, 8.000000000000000000 ) ;
#42 = ORIENTED_EDGE ( 'NONE', *, *, #23, .F. ) ;
#43 = LINE ( 'NONE', #411, #403 ) ;
#44 = EDGE_CURVE ( 'NONE', #193, #389, #125, .T. ) ;
#45 = ORIENTED_EDGE ( 'NONE', *, *, #485, .F. ) ;
#46 = CARTESIAN_POINT ( 'NONE',  ( 0.000000000000000000, 0.000000000000000000, 0.6500000000000000222 ) ) ;
#47 = VERTEX_POINT ( 'NONE', #432 ) ;
#48 = ADVANCED_FACE ( 'NONE', ( #243, #396 ), #322, .F. ) ;
#49 = CIRCLE ( 'NONE', #257, 6.035000000000000142 ) ;
#50 = AXIS2_PLACEMENT_3D ( 'NONE', #29, #478, #176 ) ;
#51 = DIRECTION ( 'NONE',  ( 1.000000000000000000, 0.000000000000000000, 0.000000000000000000 ) ) ;
#52 = VERTEX_POINT ( 'NONE', #247 ) ;
#53 = LINE ( 'NONE', #281, #165 ) ;
#54 = ORIENTED_EDGE ( 'NONE', *, *, #209, .T. ) ;
#55 = CYLINDRICAL_SURFACE ( 'NONE', #104, 8.000000000000000000 ) ;
#56 = ORIENTED_EDGE ( 'NONE', *, *, #184, .F. ) ;
#57 =( GEOMETRIC_REPRESENTATION_CONTEXT ( 3 ) GLOBAL_UNCERTAINTY_ASSIGNED_CONTEXT ( ( #148 ) ) GLOBAL_UNIT_ASSIGNED_CONTEXT ( ( #114, #451, #4 ) ) REPRESENTATION_CONTEXT ( 'NONE', 'WORKASPACE' ) );
#58 = DIRECTION ( 'NONE',  ( 1.248002500702738800E-16, -1.000000000000000000, 0.000000000000000000 ) ) ;
#59 = ORIENTED_EDGE ( 'NONE', *, *, #309, .T. ) ;
#60 = CARTESIAN_POINT ( 'NONE',  ( 3.475000000000000089, -3.475000000000000533, 0.6399999999999999023 ) ) ;
#61 = ORIENTED_EDGE ( 'NONE', *, *, #323, .F. ) ;
#62 = CARTESIAN_POINT ( 'NONE',  ( 0.000000000000000000, 0.000000000000000000, 0.000000000000000000 ) ) ;
#63 = ADVANCED_FACE ( 'NONE', ( #365 ), #180, .F. ) ;
#64 = VECTOR ( 'NONE', #343, 1000.000000000000000 ) ;
#65 = CARTESIAN_POINT ( 'NONE',  ( 5.099999999999999645, 6.245698675651500839E-16, 1.500000000000000000 ) ) ;
#66 = CARTESIAN_POINT ( 'NONE',  ( 0.000000000000000000, 0.000000000000000000, 1.500000000000000000 ) ) ;
#67 = FILL_AREA_STYLE ('',( #254 ) ) ;
#68 = LINE ( 'NONE', #65, #350 ) ;
#69 = LINE ( 'NONE', #214, #435 ) ;
#70 = FACE_OUTER_BOUND ( 'NONE', #195, .T. ) ;
#71 = VECTOR ( 'NONE', #427, 1000.000000000000000 ) ;
#72 = PLANE ( 'NONE',  #95 ) ;
#73 = VERTEX_POINT ( 'NONE', #249 ) ;
#74 = LINE ( 'NONE', #303, #64 ) ;
#75 = ORIENTED_EDGE ( 'NONE', *, *, #316, .T. ) ;
#76 = CARTESIAN_POINT ( 'NONE',  ( -3.474999999999999645, -3.475000000000000533, 0.000000000000000000 ) ) ;
#77 = ORIENTED_EDGE ( 'NONE', *, *, #361, .F. ) ;
#78 = AXIS2_PLACEMENT_3D ( 'NONE', #346, #194, #1 ) ;
#79 = DIRECTION ( 'NONE',  ( 1.000000000000000000, 0.000000000000000000, 0.000000000000000000 ) ) ;
#80 = ORIENTED_EDGE ( 'NONE', *, *, #272, .F. ) ;
#81 = ADVANCED_FACE ( 'NONE', ( #331 ), #371, .T. ) ;
#82 = FACE_BOUND ( 'NONE', #385, .T. ) ;
#83 = ORIENTED_EDGE ( 'NONE', *, *, #142, .T. ) ;
#84 = DIRECTION ( 'NONE',  ( 0.000000000000000000, -0.000000000000000000, -1.000000000000000000 ) ) ;
#85 = ORIENTED_EDGE ( 'NONE', *, *, #136, .F. ) ;
#86 = VECTOR ( 'NONE', #231, 1000.000000000000000 ) ;
#87 = CIRCLE ( 'NONE', #258, 8.000000000000000000 ) ;
#88 = CARTESIAN_POINT ( 'NONE',  ( -5.400000000000005684, 6.613092715395713383E-16, 1.500000000000000000 ) ) ;
#89 = EDGE_LOOP ( 'NONE', ( #164, #38, #232, #56 ) ) ;
#90 = DIRECTION ( 'NONE',  ( -0.000000000000000000, -0.000000000000000000, -1.000000000000000000 ) ) ;
#91 = APPLICATION_CONTEXT ( 'automotive_design' ) ;
#92 = ORIENTED_EDGE ( 'NONE', *, *, #23, .T. ) ;
#93 = DIRECTION ( 'NONE',  ( -0.000000000000000000, -0.000000000000000000, -1.000000000000000000 ) ) ;
#94 = FACE_OUTER_BOUND ( 'NONE', #230, .T. ) ;
#95 = AXIS2_PLACEMENT_3D ( 'NONE', #189, #223, #455 ) ;
#96 = AXIS2_PLACEMENT_3D ( 'NONE', #173, #206, #325 ) ;
#97 = DIRECTION ( 'NONE',  ( 0.000000000000000000, 0.000000000000000000, 1.000000000000000000 ) ) ;
#98 = DIRECTION ( 'NONE',  ( 1.000000000000000000, 0.000000000000000000, -0.000000000000000000 ) ) ;
#99 = DIRECTION ( 'NONE',  ( 0.000000000000000000, 0.000000000000000000, -1.000000000000000000 ) ) ;
#100 = EDGE_CURVE ( 'NONE', #156, #391, #33, .T. ) ;
#101 = CARTESIAN_POINT ( 'NONE',  ( 0.000000000000000000, 0.000000000000000000, 0.6399999999999999023 ) ) ;
#102 = SHAPE_DEFINITION_REPRESENTATION ( #211, #318 ) ;
#103 = CARTESIAN_POINT ( 'NONE',  ( 3.475000000000000089, -3.475000000000000533, 0.000000000000000000 ) ) ;
#104 = AXIS2_PLACEMENT_3D ( 'NONE', #15, #204, #19 ) ;
#105 = DIRECTION ( 'NONE',  ( 0.000000000000000000, 0.000000000000000000, 1.000000000000000000 ) ) ;
#106 = CARTESIAN_POINT ( 'NONE',  ( -3.475000000000000089, 3.474999999999999645, 0.6399999999999999023 ) ) ;
#107 = FACE_BOUND ( 'NONE', #197, .T. ) ;
#108 = CARTESIAN_POINT ( 'NONE',  ( 3.475000000000000089, 3.474999999999999645, 10.46878425849301131 ) ) ;
#109 = AXIS2_PLACEMENT_3D ( 'NONE', #392, #426, #352 ) ;
#110 = CARTESIAN_POINT ( 'NONE',  ( 0.000000000000000000, 0.000000000000000000, 0.000000000000000000 ) ) ;
#111 = CIRCLE ( 'NONE', #25, 5.099999999999999645 ) ;
#112 = CARTESIAN_POINT ( 'NONE',  ( -3.475000000000000089, 3.474999999999999645, 0.6399999999999999023 ) ) ;
#113 = EDGE_LOOP ( 'NONE', ( #313, #304, #119, #61 ) ) ;
#114 =( LENGTH_UNIT ( ) NAMED_UNIT ( * ) SI_UNIT ( .MILLI., .METRE. ) );
#115 = ORIENTED_EDGE ( 'NONE', *, *, #171, .T. ) ;
#116 = UNCERTAINTY_MEASURE_WITH_UNIT (LENGTH_MEASURE( 1.000000000000000082E-05 ), #294, 'distance_accuracy_value', 'NONE');
#117 = CARTESIAN_POINT ( 'NONE',  ( 6.035000000000000142, 7.390743432854276880E-16, 1.500000000000000000 ) ) ;
#118 = STYLED_ITEM ( 'NONE', ( #120 ), #265 ) ;
#119 = ORIENTED_EDGE ( 'NONE', *, *, #269, .T. ) ;
#120 = PRESENTATION_STYLE_ASSIGNMENT (( #225 ) ) ;
#121 = ORIENTED_EDGE ( 'NONE', *, *, #485, .T. ) ;
#122 = CARTESIAN_POINT ( 'NONE',  ( -3.475000000000000089, -4.255647627037052709E-16, 0.6399999999999999023 ) ) ;
#123 = ORIENTED_EDGE ( 'NONE', *, *, #430, .F. ) ;
#124 = DIRECTION ( 'NONE',  ( 0.000000000000000000, 0.000000000000000000, 1.000000000000000000 ) ) ;
#125 = LINE ( 'NONE', #277, #71 ) ;
#126 = CIRCLE ( 'NONE', #157, 5.099999999999999645 ) ;
#127 = LINE ( 'NONE', #132, #134 ) ;
#128 = VERTEX_POINT ( 'NONE', #103 ) ;
#129 = DIRECTION ( 'NONE',  ( 1.248002500702738800E-16, -1.000000000000000000, 0.000000000000000000 ) ) ;
#130 = DIRECTION ( 'NONE',  ( -1.000000000000000000, 0.000000000000000000, 0.000000000000000000 ) ) ;
#131 = ADVANCED_FACE ( 'NONE', ( #217 ), #30, .T. ) ;
#132 = CARTESIAN_POINT ( 'NONE',  ( -5.099999999999999645, 0.000000000000000000, 1.500000000000000000 ) ) ;
#133 = CARTESIAN_POINT ( 'NONE',  ( 0.000000000000000000, 0.000000000000000000, 0.000000000000000000 ) ) ;
#134 = VECTOR ( 'NONE', #168, 1000.000000000000000 ) ;
#135 = AXIS2_PLACEMENT_3D ( 'NONE', #20, #472, #130 ) ;
#136 = EDGE_CURVE ( 'NONE', #468, #389, #245, .T. ) ;
#137 = EDGE_LOOP ( 'NONE', ( #203, #121, #353, #465 ) ) ;
#138 =( NAMED_UNIT ( * ) PLANE_ANGLE_UNIT ( ) SI_UNIT ( $, .RADIAN. ) );
#139 = DIRECTION ( 'NONE',  ( 0.000000000000000000, 0.000000000000000000, 1.000000000000000000 ) ) ;
#140 = CARTESIAN_POINT ( 'NONE',  ( 8.000000000000000000, 9.797174393178825657E-16, 0.6500000000000000222 ) ) ;
#141 = CARTESIAN_POINT ( 'NONE',  ( 0.000000000000000000, 0.000000000000000000, 1.500000000000000000 ) ) ;
#142 = EDGE_CURVE ( 'NONE', #47, #429, #425, .T. ) ;
#143 = APPLICATION_PROTOCOL_DEFINITION ( 'draft international standard', 'automotive_design', 1998, #91 ) ;
#144 = COLOUR_RGB ( '',1.000000000000000000, 1.000000000000000000, 1.000000000000000000 ) ;
#145 = DIRECTION ( 'NONE',  ( 1.000000000000000000, 0.000000000000000000, 0.000000000000000000 ) ) ;
#146 = DIRECTION ( 'NONE',  ( 1.000000000000000000, 0.000000000000000000, 0.000000000000000000 ) ) ;
#147 = EDGE_CURVE ( 'NONE', #73, #47, #68, .T. ) ;
#148 = UNCERTAINTY_MEASURE_WITH_UNIT (LENGTH_MEASURE( 1.000000000000000082E-05 ), #114, 'distance_accuracy_value', 'NONE');
#149 = EDGE_CURVE ( 'NONE', #391, #342, #290, .T. ) ;
#150 = DIRECTION ( 'NONE',  ( 0.000000000000000000, 0.000000000000000000, 1.000000000000000000 ) ) ;
#151 = VECTOR ( 'NONE', #335, 1000.000000000000000 ) ;
#152 = ORIENTED_EDGE ( 'NONE', *, *, #186, .T. ) ;
#153 = DIRECTION ( 'NONE',  ( -0.7071067811865536790, 8.659560562355009279E-17, 0.7071067811865413555 ) ) ;
#154 = ORIENTED_EDGE ( 'NONE', *, *, #147, .F. ) ;
#155 = CARTESIAN_POINT ( 'NONE',  ( -3.475000000000000089, 3.474999999999999645, 0.000000000000000000 ) ) ;
#156 = VERTEX_POINT ( 'NONE', #438 ) ;
#157 = AXIS2_PLACEMENT_3D ( 'NONE', #39, #150, #229 ) ;
#158 = EDGE_LOOP ( 'NONE', ( #75, #300 ) ) ;
#159 = DIRECTION ( 'NONE',  ( 1.000000000000000000, 0.000000000000000000, 0.000000000000000000 ) ) ;
#160 = EDGE_LOOP ( 'NONE', ( #399, #188, #282, #45 ) ) ;
#161 = CARTESIAN_POINT ( 'NONE',  ( 0.000000000000000000, 0.000000000000000000, 0.6500000000000000222 ) ) ;
#162 = ORIENTED_EDGE ( 'NONE', *, *, #444, .T. ) ;
#163 = DIRECTION ( 'NONE',  ( 1.000000000000000000, 0.000000000000000000, -0.000000000000000000 ) ) ;
#164 = ORIENTED_EDGE ( 'NONE', *, *, #337, .F. ) ;
#165 = VECTOR ( 'NONE', #278, 1000.000000000000000 ) ;
#166 = CARTESIAN_POINT ( 'NONE',  ( 0.000000000000000000, 0.000000000000000000, 1.500000000000000000 ) ) ;
#167 = CYLINDRICAL_SURFACE ( 'NONE', #135, 8.000000000000000000 ) ;
#168 = DIRECTION ( 'NONE',  ( -0.000000000000000000, -0.000000000000000000, -1.000000000000000000 ) ) ;
#169 = PRODUCT_DEFINITION_CONTEXT ( 'detailed design', #182, 'design' ) ;
#170 = ORIENTED_EDGE ( 'NONE', *, *, #142, .F. ) ;
#171 = EDGE_CURVE ( 'NONE', #128, #342, #36, .T. ) ;
#172 = DIRECTION ( 'NONE',  ( 1.000000000000000000, -0.000000000000000000, -0.000000000000000000 ) ) ;
#173 = CARTESIAN_POINT ( 'NONE',  ( 0.000000000000000000, 0.000000000000000000, 1.500000000000000000 ) ) ;
#174 =( GEOMETRIC_REPRESENTATION_CONTEXT ( 3 ) GLOBAL_UNCERTAINTY_ASSIGNED_CONTEXT ( ( #116 ) ) GLOBAL_UNIT_ASSIGNED_CONTEXT ( ( #294, #138, #440 ) ) REPRESENTATION_CONTEXT ( 'NONE', 'WORKASPACE' ) );
#175 = AXIS2_PLACEMENT_3D ( 'NONE', #141, #221, #218 ) ;
#176 = DIRECTION ( 'NONE',  ( 1.000000000000000000, 0.000000000000000000, 0.000000000000000000 ) ) ;
#177 = CARTESIAN_POINT ( 'NONE',  ( -6.035000000000000142, 0.000000000000000000, 1.500000000000000000 ) ) ;
#178 = ADVANCED_FACE ( 'NONE', ( #482 ), #286, .F. ) ;
#179 = DIRECTION ( 'NONE',  ( 1.000000000000000000, 0.000000000000000000, 0.000000000000000000 ) ) ;
#180 = CYLINDRICAL_SURFACE ( 'NONE', #175, 5.099999999999999645 ) ;
#181 = CONICAL_SURFACE ( 'NONE', #78, 5.099999999999999645, 0.7853981633974570498 ) ;
#182 = APPLICATION_CONTEXT ( 'automotive_design' ) ;
#183 = CARTESIAN_POINT ( 'NONE',  ( 3.475000000000000089, 3.474999999999999645, 0.6399999999999999023 ) ) ;
#184 = EDGE_CURVE ( 'NONE', #416, #263, #395, .T. ) ;
#185 = PLANE ( 'NONE',  #298 ) ;
#186 = EDGE_CURVE ( 'NONE', #263, #416, #220, .T. ) ;
#187 = DIRECTION ( 'NONE',  ( 0.000000000000000000, 0.000000000000000000, 1.000000000000000000 ) ) ;
#188 = ORIENTED_EDGE ( 'NONE', *, *, #149, .T. ) ;
#189 = CARTESIAN_POINT ( 'NONE',  ( 3.475000000000000089, 3.474999999999999645, 10.46878425849301131 ) ) ;
#190 = ORIENTED_EDGE ( 'NONE', *, *, #447, .F. ) ;
#191 = ADVANCED_FACE ( 'NONE', ( #107, #70 ), #185, .T. ) ;
#192 = CARTESIAN_POINT ( 'NONE',  ( -5.099999999999999645, 6.245698675651499853E-16, 1.199999999999999289 ) ) ;
#193 = VERTEX_POINT ( 'NONE', #177 ) ;
#194 = DIRECTION ( 'NONE',  ( 0.000000000000000000, 0.000000000000000000, 1.000000000000000000 ) ) ;
#195 = EDGE_LOOP ( 'NONE', ( #459, #83 ) ) ;
#196 = DIRECTION ( 'NONE',  ( 0.000000000000000000, 0.000000000000000000, 1.000000000000000000 ) ) ;
#197 = EDGE_LOOP ( 'NONE', ( #77, #358, #16, #40 ) ) ;
#198 = AXIS2_PLACEMENT_3D ( 'NONE', #446, #408, #256 ) ;
#199 =( GEOMETRIC_REPRESENTATION_CONTEXT ( 3 ) GLOBAL_UNCERTAINTY_ASSIGNED_CONTEXT ( ( #205 ) ) GLOBAL_UNIT_ASSIGNED_CONTEXT ( ( #407, #287, #401 ) ) REPRESENTATION_CONTEXT ( 'NONE', 'WORKASPACE' ) );
#200 = PLANE ( 'NONE',  #306 ) ;
#201 = ORIENTED_EDGE ( 'NONE', *, *, #222, .T. ) ;
#202 = CARTESIAN_POINT ( 'NONE',  ( -5.099999999999999645, 0.000000000000000000, 0.6399999999999999023 ) ) ;
#203 = ORIENTED_EDGE ( 'NONE', *, *, #361, .T. ) ;
#204 = DIRECTION ( 'NONE',  ( -0.000000000000000000, -0.000000000000000000, -1.000000000000000000 ) ) ;
#205 = UNCERTAINTY_MEASURE_WITH_UNIT (LENGTH_MEASURE( 1.000000000000000082E-05 ), #407, 'distance_accuracy_value', 'NONE');
#206 = DIRECTION ( 'NONE',  ( 0.000000000000000000, 0.000000000000000000, 1.000000000000000000 ) ) ;
#207 = STYLED_ITEM ( 'NONE', ( #324 ), #318 ) ;
#208 = CARTESIAN_POINT ( 'NONE',  ( -3.475000000000000089, 3.474999999999999645, 10.46878425849301131 ) ) ;
#209 = EDGE_CURVE ( 'NONE', #52, #345, #87, .T. ) ;
#210 = ORIENTED_EDGE ( 'NONE', *, *, #369, .F. ) ;
#211 = PRODUCT_DEFINITION_SHAPE ( 'NONE', 'NONE',  #344 ) ;
#212 = PLANE ( 'NONE',  #244 ) ;
#213 = ORIENTED_EDGE ( 'NONE', *, *, #483, .T. ) ;
#214 = CARTESIAN_POINT ( 'NONE',  ( 3.475000000000000089, -3.475000000000000533, 0.000000000000000000 ) ) ;
#215 = DIRECTION ( 'NONE',  ( 0.000000000000000000, 0.000000000000000000, -1.000000000000000000 ) ) ;
#216 = DIRECTION ( 'NONE',  ( -1.248002500702738800E-16, 1.000000000000000000, 0.000000000000000000 ) ) ;
#217 = FACE_OUTER_BOUND ( 'NONE', #238, .T. ) ;
#218 = DIRECTION ( 'NONE',  ( -1.000000000000000000, 0.000000000000000000, 0.000000000000000000 ) ) ;
#219 = VECTOR ( 'NONE', #99, 1000.000000000000000 ) ;
#220 = CIRCLE ( 'NONE', #474, 5.400000000000005684 ) ;
#221 = DIRECTION ( 'NONE',  ( -0.000000000000000000, -0.000000000000000000, -1.000000000000000000 ) ) ;
#222 = EDGE_CURVE ( 'NONE', #360, #339, #28, .T. ) ;
#223 = DIRECTION ( 'NONE',  ( -1.000000000000000000, 0.000000000000000000, -0.000000000000000000 ) ) ;
#224 = ORIENTED_EDGE ( 'NONE', *, *, #363, .T. ) ;
#225 = SURFACE_STYLE_USAGE ( .BOTH. , #307 ) ;
#226 = ORIENTED_EDGE ( 'NONE', *, *, #348, .T. ) ;
#227 = FILL_AREA_STYLE ('',( #270 ) ) ;
#228 = ORIENTED_EDGE ( 'NONE', *, *, #323, .T. ) ;
#229 = DIRECTION ( 'NONE',  ( 1.000000000000000000, 0.000000000000000000, 0.000000000000000000 ) ) ;
#230 = EDGE_LOOP ( 'NONE', ( #210, #5, #228, #54 ) ) ;
#231 = DIRECTION ( 'NONE',  ( -1.000000000000000000, 0.000000000000000000, 0.000000000000000000 ) ) ;
#232 = ORIENTED_EDGE ( 'NONE', *, *, #280, .T. ) ;
#233 = FACE_OUTER_BOUND ( 'NONE', #89, .T. ) ;
#234 = CIRCLE ( 'NONE', #326, 5.099999999999999645 ) ;
#235 = ORIENTED_EDGE ( 'NONE', *, *, #44, .T. ) ;
#236 = VECTOR ( 'NONE', #26, 1000.000000000000000 ) ;
#237 = CYLINDRICAL_SURFACE ( 'NONE', #380, 6.035000000000000142 ) ;
#238 = EDGE_LOOP ( 'NONE', ( #162, #201, #454, #123 ) ) ;
#239 = CARTESIAN_POINT ( 'NONE',  ( -5.099999999999999645, 0.000000000000000000, 1.199999999999999289 ) ) ;
#240 = EDGE_LOOP ( 'NONE', ( #423, #42, #235, #2 ) ) ;
#241 = EDGE_CURVE ( 'NONE', #355, #73, #111, .T. ) ;
#242 = LINE ( 'NONE', #394, #32 ) ;
#243 = FACE_OUTER_BOUND ( 'NONE', #462, .T. ) ;
#244 = AXIS2_PLACEMENT_3D ( 'NONE', #461, #283, #84 ) ;
#245 = CIRCLE ( 'NONE', #367, 6.035000000000000142 ) ;
#246 = DIRECTION ( 'NONE',  ( 0.000000000000000000, 0.000000000000000000, -1.000000000000000000 ) ) ;
#247 = CARTESIAN_POINT ( 'NONE',  ( -8.000000000000000000, 0.000000000000000000, 0.000000000000000000 ) ) ;
#248 = SURFACE_STYLE_USAGE ( .BOTH. , #480 ) ;
#249 = CARTESIAN_POINT ( 'NONE',  ( 5.099999999999999645, 6.245698675651500839E-16, 1.199999999999999289 ) ) ;
#250 = DIRECTION ( 'NONE',  ( -0.000000000000000000, -0.000000000000000000, -1.000000000000000000 ) ) ;
#251 = CIRCLE ( 'NONE', #109, 8.000000000000000000 ) ;
#252 = CARTESIAN_POINT ( 'NONE',  ( 0.000000000000000000, 0.000000000000000000, 0.6500000000000000222 ) ) ;
#253 = CARTESIAN_POINT ( 'NONE',  ( 0.000000000000000000, 0.000000000000000000, 1.500000000000000000 ) ) ;
#254 = FILL_AREA_STYLE_COLOUR ( '', #144 ) ;
#255 = EDGE_CURVE ( 'NONE', #73, #355, #234, .T. ) ;
#256 = DIRECTION ( 'NONE',  ( -1.000000000000000000, 0.000000000000000000, 0.000000000000000000 ) ) ;
#257 = AXIS2_PLACEMENT_3D ( 'NONE', #161, #467, #51 ) ;
#258 = AXIS2_PLACEMENT_3D ( 'NONE', #62, #368, #179 ) ;
#259 = ORIENTED_EDGE ( 'NONE', *, *, #363, .F. ) ;
#260 = LINE ( 'NONE', #192, #473 ) ;
#261 = ORIENTED_EDGE ( 'NONE', *, *, #460, .T. ) ;
#262 = LINE ( 'NONE', #117, #315 ) ;
#263 = VERTEX_POINT ( 'NONE', #418 ) ;
#264 = PRESENTATION_LAYER_ASSIGNMENT (  '', '', ( #118 ) ) ;
#265 = MANIFOLD_SOLID_BREP ( '倒角1', #285 ) ;
#266 = AXIS2_PLACEMENT_3D ( 'NONE', #484, #333, #216 ) ;
#267 = CARTESIAN_POINT ( 'NONE',  ( 0.000000000000000000, 0.000000000000000000, 0.6500000000000000222 ) ) ;
#268 = ORIENTED_EDGE ( 'NONE', *, *, #241, .F. ) ;
#269 = EDGE_CURVE ( 'NONE', #345, #52, #340, .T. ) ;
#270 = FILL_AREA_STYLE_COLOUR ( '', #334 ) ;
#271 = EDGE_LOOP ( 'NONE', ( #154, #9, #224, #170 ) ) ;
#272 = EDGE_CURVE ( 'NONE', #429, #47, #126, .T. ) ;
#273 = FACE_BOUND ( 'NONE', #362, .T. ) ;
#274 = ORIENTED_EDGE ( 'NONE', *, *, #184, .T. ) ;
#275 = DIRECTION ( 'NONE',  ( 1.000000000000000000, 0.000000000000000000, 0.000000000000000000 ) ) ;
#276 = CIRCLE ( 'NONE', #349, 6.035000000000000142 ) ;
#277 = CARTESIAN_POINT ( 'NONE',  ( -6.035000000000000142, 0.000000000000000000, 1.500000000000000000 ) ) ;
#278 = DIRECTION ( 'NONE',  ( -1.000000000000000000, -0.000000000000000000, -0.000000000000000000 ) ) ;
#279 = ORIENTED_EDGE ( 'NONE', *, *, #136, .T. ) ;
#280 = EDGE_CURVE ( 'NONE', #73, #263, #43, .T. ) ;
#281 = CARTESIAN_POINT ( 'NONE',  ( -3.475000000000000089, 3.474999999999999645, 0.000000000000000000 ) ) ;
#282 = ORIENTED_EDGE ( 'NONE', *, *, #171, .F. ) ;
#283 = DIRECTION ( 'NONE',  ( 0.000000000000000000, -1.000000000000000000, 0.000000000000000000 ) ) ;
#284 = DIRECTION ( 'NONE',  ( 0.000000000000000000, 0.000000000000000000, 1.000000000000000000 ) ) ;
#285 = CLOSED_SHELL ( 'NONE', ( #328, #178, #81, #383, #48, #35, #293, #422, #433, #63, #191, #288, #377, #131, #463, #398 ) ) ;
#286 = CYLINDRICAL_SURFACE ( 'NONE', #198, 5.099999999999999645 ) ;
#287 =( NAMED_UNIT ( * ) PLANE_ANGLE_UNIT ( ) SI_UNIT ( $, .RADIAN. ) );
#288 = ADVANCED_FACE ( 'NONE', ( #8 ), #72, .T. ) ;
#289 = DIRECTION ( 'NONE',  ( 1.000000000000000000, 0.000000000000000000, 0.000000000000000000 ) ) ;
#290 = LINE ( 'NONE', #108, #410 ) ;
#291 = SURFACE_STYLE_FILL_AREA ( #67 ) ;
#292 = DIRECTION ( 'NONE',  ( -0.000000000000000000, -0.000000000000000000, -1.000000000000000000 ) ) ;
#293 = ADVANCED_FACE ( 'NONE', ( #82, #458 ), #375, .T. ) ;
#294 =( LENGTH_UNIT ( ) NAMED_UNIT ( * ) SI_UNIT ( .MILLI., .METRE. ) );
#295 = CARTESIAN_POINT ( 'NONE',  ( 3.475000000000000089, 3.474999999999999645, 0.000000000000000000 ) ) ;
#296 = ORIENTED_EDGE ( 'NONE', *, *, #337, .T. ) ;
#297 = AXIS2_PLACEMENT_3D ( 'NONE', #267, #37, #453 ) ;
#298 = AXIS2_PLACEMENT_3D ( 'NONE', #101, #402, #400 ) ;
#299 = DIRECTION ( 'NONE',  ( 0.000000000000000000, 0.000000000000000000, 1.000000000000000000 ) ) ;
#300 = ORIENTED_EDGE ( 'NONE', *, *, #374, .T. ) ;
#301 = FACE_OUTER_BOUND ( 'NONE', #456, .T. ) ;
#302 = ORIENTED_EDGE ( 'NONE', *, *, #460, .F. ) ;
#303 = CARTESIAN_POINT ( 'NONE',  ( -8.000000000000000000, 0.000000000000000000, 0.6500000000000000222 ) ) ;
#304 = ORIENTED_EDGE ( 'NONE', *, *, #369, .T. ) ;
#305 = PRODUCT_RELATED_PRODUCT_CATEGORY ( 'part', '', ( #364 ) ) ;
#306 = AXIS2_PLACEMENT_3D ( 'NONE', #166, #13, #163 ) ;
#307 = SURFACE_SIDE_STYLE ('',( #378 ) ) ;
#308 = ORIENTED_EDGE ( 'NONE', *, *, #404, .T. ) ;
#309 = EDGE_CURVE ( 'NONE', #391, #470, #437, .T. ) ;
#310 = FACE_OUTER_BOUND ( 'NONE', #379, .T. ) ;
#311 = EDGE_LOOP ( 'NONE', ( #92, #18 ) ) ;
#312 = CARTESIAN_POINT ( 'NONE',  ( 0.000000000000000000, 0.000000000000000000, 1.500000000000000000 ) ) ;
#313 = ORIENTED_EDGE ( 'NONE', *, *, #374, .F. ) ;
#314 = DIRECTION ( 'NONE',  ( -1.000000000000000000, 0.000000000000000000, 0.000000000000000000 ) ) ;
#315 = VECTOR ( 'NONE', #6, 1000.000000000000000 ) ;
#316 = EDGE_CURVE ( 'NONE', #317, #475, #41, .T. ) ;
#317 = VERTEX_POINT ( 'NONE', #341 ) ;
#318 = ADVANCED_BREP_SHAPE_REPRESENTATION ( '专用定位片-FL7018I-ES', ( #265, #50 ), #174 ) ;
#319 = LINE ( 'NONE', #208, #372 ) ;
#320 = ORIENTED_EDGE ( 'NONE', *, *, #147, .T. ) ;
#321 = CARTESIAN_POINT ( 'NONE',  ( 8.000000000000000000, 9.797174393178825657E-16, 0.6500000000000000222 ) ) ;
#322 = PLANE ( 'NONE',  #387 ) ;
#323 = EDGE_CURVE ( 'NONE', #317, #52, #74, .T. ) ;
#324 = PRESENTATION_STYLE_ASSIGNMENT (( #248 ) ) ;
#325 = DIRECTION ( 'NONE',  ( 1.000000000000000000, 0.000000000000000000, 0.000000000000000000 ) ) ;
#326 = AXIS2_PLACEMENT_3D ( 'NONE', #439, #196, #384 ) ;
#327 = VECTOR ( 'NONE', #215, 1000.000000000000000 ) ;
#328 = ADVANCED_FACE ( 'NONE', ( #301 ), #181, .F. ) ;
#329 = CARTESIAN_POINT ( 'NONE',  ( 0.000000000000000000, 0.000000000000000000, 1.199999999999999289 ) ) ;
#330 = CARTESIAN_POINT ( 'NONE',  ( 3.475000000000000089, -3.475000000000000533, 10.46878425849301131 ) ) ;
#331 = FACE_OUTER_BOUND ( 'NONE', #7, .T. ) ;
#332 = DIRECTION ( 'NONE',  ( 0.000000000000000000, -0.000000000000000000, 1.000000000000000000 ) ) ;
#333 = DIRECTION ( 'NONE',  ( 1.000000000000000000, 1.248002500702738800E-16, 0.000000000000000000 ) ) ;
#334 = COLOUR_RGB ( '',1.000000000000000000, 1.000000000000000000, 1.000000000000000000 ) ;
#335 = DIRECTION ( 'NONE',  ( 0.000000000000000000, 1.000000000000000000, 0.000000000000000000 ) ) ;
#336 = CARTESIAN_POINT ( 'NONE',  ( 0.000000000000000000, 0.000000000000000000, 0.6399999999999999023 ) ) ;
#337 = EDGE_CURVE ( 'NONE', #355, #416, #260, .T. ) ;
#338 = DIRECTION ( 'NONE',  ( 1.000000000000000000, 0.000000000000000000, 0.000000000000000000 ) ) ;
#339 = VERTEX_POINT ( 'NONE', #76 ) ;
#340 = CIRCLE ( 'NONE', #457, 8.000000000000000000 ) ;
#341 = CARTESIAN_POINT ( 'NONE',  ( -8.000000000000000000, 0.000000000000000000, 0.6500000000000000222 ) ) ;
#342 = VERTEX_POINT ( 'NONE', #413 ) ;
#343 = DIRECTION ( 'NONE',  ( -0.000000000000000000, -0.000000000000000000, -1.000000000000000000 ) ) ;
#344 = PRODUCT_DEFINITION ( '未知', '', #450, #169 ) ;
#345 = VERTEX_POINT ( 'NONE', #381 ) ;
#346 = CARTESIAN_POINT ( 'NONE',  ( 0.000000000000000000, 0.000000000000000000, 1.199999999999999289 ) ) ;
#347 = ORIENTED_EDGE ( 'NONE', *, *, #430, .T. ) ;
#348 = EDGE_CURVE ( 'NONE', #420, #468, #262, .T. ) ;
#349 = AXIS2_PLACEMENT_3D ( 'NONE', #464, #124, #390 ) ;
#350 = VECTOR ( 'NONE', #405, 1000.000000000000000 ) ;
#351 = VERTEX_POINT ( 'NONE', #155 ) ;
#352 = DIRECTION ( 'NONE',  ( 1.000000000000000000, 0.000000000000000000, 0.000000000000000000 ) ) ;
#353 = ORIENTED_EDGE ( 'NONE', *, *, #483, .F. ) ;
#354 = LINE ( 'NONE', #321, #409 ) ;
#355 = VERTEX_POINT ( 'NONE', #239 ) ;
#356 = CARTESIAN_POINT ( 'NONE',  ( 3.475000000000000089, 3.474999999999999645, 0.6399999999999999023 ) ) ;
#357 = VECTOR ( 'NONE', #129, 1000.000000000000000 ) ;
#358 = ORIENTED_EDGE ( 'NONE', *, *, #444, .F. ) ;
#359 = LINE ( 'NONE', #60, #466 ) ;
#360 = VERTEX_POINT ( 'NONE', #434 ) ;
#361 = EDGE_CURVE ( 'NONE', #360, #156, #359, .T. ) ;
#362 = EDGE_LOOP ( 'NONE', ( #152, #274 ) ) ;
#363 = EDGE_CURVE ( 'NONE', #355, #429, #127, .T. ) ;
#364 = PRODUCT ( '专用定位片-FL7018I-ES', '专用定位片-FL7018I-ES', '', ( #445 ) ) ;
#365 = FACE_OUTER_BOUND ( 'NONE', #271, .T. ) ;
#366 = AXIS2_PLACEMENT_3D ( 'NONE', #46, #187, #338 ) ;
#367 = AXIS2_PLACEMENT_3D ( 'NONE', #252, #477, #373 ) ;
#368 = DIRECTION ( 'NONE',  ( 0.000000000000000000, 0.000000000000000000, 1.000000000000000000 ) ) ;
#369 = EDGE_CURVE ( 'NONE', #475, #345, #354, .T. ) ;
#370 = DIRECTION ( 'NONE',  ( 0.000000000000000000, 0.000000000000000000, -1.000000000000000000 ) ) ;
#371 = CYLINDRICAL_SURFACE ( 'NONE', #10, 6.035000000000000142 ) ;
#372 = VECTOR ( 'NONE', #246, 1000.000000000000000 ) ;
#373 = DIRECTION ( 'NONE',  ( 1.000000000000000000, 0.000000000000000000, 0.000000000000000000 ) ) ;
#374 = EDGE_CURVE ( 'NONE', #475, #317, #251, .T. ) ;
#375 = PLANE ( 'NONE',  #297 ) ;
#376 = ORIENTED_EDGE ( 'NONE', *, *, #44, .F. ) ;
#377 = ADVANCED_FACE ( 'NONE', ( #310 ), #212, .T. ) ;
#378 = SURFACE_STYLE_FILL_AREA ( #227 ) ;
#379 = EDGE_LOOP ( 'NONE', ( #59, #347, #302, #14 ) ) ;
#380 = AXIS2_PLACEMENT_3D ( 'NONE', #312, #93, #314 ) ;
#381 = CARTESIAN_POINT ( 'NONE',  ( 8.000000000000000000, 9.797174393178825657E-16, 0.000000000000000000 ) ) ;
#382 = ORIENTED_EDGE ( 'NONE', *, *, #412, .F. ) ;
#383 = ADVANCED_FACE ( 'NONE', ( #11 ), #55, .T. ) ;
#384 = DIRECTION ( 'NONE',  ( 1.000000000000000000, 0.000000000000000000, 0.000000000000000000 ) ) ;
#385 = EDGE_LOOP ( 'NONE', ( #382, #85 ) ) ;
#386 = ORIENTED_EDGE ( 'NONE', *, *, #186, .F. ) ;
#387 = AXIS2_PLACEMENT_3D ( 'NONE', #133, #284, #98 ) ;
#388 = CARTESIAN_POINT ( 'NONE',  ( -6.035000000000000142, 0.000000000000000000, 0.6500000000000000222 ) ) ;
#389 = VERTEX_POINT ( 'NONE', #388 ) ;
#390 = DIRECTION ( 'NONE',  ( 1.000000000000000000, 0.000000000000000000, 0.000000000000000000 ) ) ;
#391 = VERTEX_POINT ( 'NONE', #356 ) ;
#392 = CARTESIAN_POINT ( 'NONE',  ( 0.000000000000000000, 0.000000000000000000, 0.6500000000000000222 ) ) ;
#393 = ORIENTED_EDGE ( 'NONE', *, *, #209, .F. ) ;
#394 = CARTESIAN_POINT ( 'NONE',  ( -3.475000000000000089, -4.255647627037052709E-16, 0.000000000000000000 ) ) ;
#395 = CIRCLE ( 'NONE', #34, 5.400000000000005684 ) ;
#396 = FACE_BOUND ( 'NONE', #22, .T. ) ;
#397 = LINE ( 'NONE', #122, #357 ) ;
#398 = ADVANCED_FACE ( 'NONE', ( #233 ), #481, .F. ) ;
#399 = ORIENTED_EDGE ( 'NONE', *, *, #100, .T. ) ;
#400 = DIRECTION ( 'NONE',  ( 1.000000000000000000, 0.000000000000000000, -0.000000000000000000 ) ) ;
#401 =( NAMED_UNIT ( * ) SI_UNIT ( $, .STERADIAN. ) SOLID_ANGLE_UNIT ( ) );
#402 = DIRECTION ( 'NONE',  ( 0.000000000000000000, 0.000000000000000000, 1.000000000000000000 ) ) ;
#403 = VECTOR ( 'NONE', #415, 1000.000000000000114 ) ;
#404 = EDGE_CURVE ( 'NONE', #351, #339, #242, .T. ) ;
#405 = DIRECTION ( 'NONE',  ( -0.000000000000000000, -0.000000000000000000, -1.000000000000000000 ) ) ;
#406 = DIRECTION ( 'NONE',  ( -1.000000000000000000, 0.000000000000000000, 0.000000000000000000 ) ) ;
#407 =( LENGTH_UNIT ( ) NAMED_UNIT ( * ) SI_UNIT ( .MILLI., .METRE. ) );
#408 = DIRECTION ( 'NONE',  ( -0.000000000000000000, -0.000000000000000000, -1.000000000000000000 ) ) ;
#409 = VECTOR ( 'NONE', #90, 1000.000000000000000 ) ;
#410 = VECTOR ( 'NONE', #370, 1000.000000000000000 ) ;
#411 = CARTESIAN_POINT ( 'NONE',  ( 5.099999999999999645, 0.000000000000000000, 1.199999999999999289 ) ) ;
#412 = EDGE_CURVE ( 'NONE', #389, #468, #49, .T. ) ;
#413 = CARTESIAN_POINT ( 'NONE',  ( 3.475000000000000089, 3.474999999999999645, 0.000000000000000000 ) ) ;
#414 = ORIENTED_EDGE ( 'NONE', *, *, #241, .T. ) ;
#415 = DIRECTION ( 'NONE',  ( 0.7071067811865536790, 0.000000000000000000, 0.7071067811865413555 ) ) ;
#416 = VERTEX_POINT ( 'NONE', #88 ) ;
#417 = MECHANICAL_DESIGN_GEOMETRIC_PRESENTATION_REPRESENTATION (  '', ( #207 ), #199 ) ;
#418 = CARTESIAN_POINT ( 'NONE',  ( 5.400000000000005684, 0.000000000000000000, 1.500000000000000000 ) ) ;
#419 = ORIENTED_EDGE ( 'NONE', *, *, #269, .F. ) ;
#420 = VERTEX_POINT ( 'NONE', #17 ) ;
#421 = CARTESIAN_POINT ( 'NONE',  ( 0.000000000000000000, 0.000000000000000000, 1.199999999999999289 ) ) ;
#422 = ADVANCED_FACE ( 'NONE', ( #273, #471 ), #200, .T. ) ;
#423 = ORIENTED_EDGE ( 'NONE', *, *, #348, .F. ) ;
#424 = MECHANICAL_DESIGN_GEOMETRIC_PRESENTATION_REPRESENTATION (  '', ( #118 ), #57 ) ;
#425 = CIRCLE ( 'NONE', #436, 5.099999999999999645 ) ;
#426 = DIRECTION ( 'NONE',  ( 0.000000000000000000, 0.000000000000000000, 1.000000000000000000 ) ) ;
#427 = DIRECTION ( 'NONE',  ( -0.000000000000000000, -0.000000000000000000, -1.000000000000000000 ) ) ;
#428 = FACE_OUTER_BOUND ( 'NONE', #137, .T. ) ;
#429 = VERTEX_POINT ( 'NONE', #202 ) ;
#430 = EDGE_CURVE ( 'NONE', #470, #351, #319, .T. ) ;
#431 = PLANE ( 'NONE',  #442 ) ;
#432 = CARTESIAN_POINT ( 'NONE',  ( 5.099999999999999645, 6.245698675651500839E-16, 0.6399999999999999023 ) ) ;
#433 = ADVANCED_FACE ( 'NONE', ( #469 ), #237, .T. ) ;
#434 = CARTESIAN_POINT ( 'NONE',  ( -3.474999999999999645, -3.475000000000000533, 0.6399999999999999023 ) ) ;
#435 = VECTOR ( 'NONE', #172, 1000.000000000000000 ) ;
#436 = AXIS2_PLACEMENT_3D ( 'NONE', #336, #105, #146 ) ;
#437 = LINE ( 'NONE', #112, #86 ) ;
#438 = CARTESIAN_POINT ( 'NONE',  ( 3.475000000000000089, -3.475000000000000533, 0.6399999999999999023 ) ) ;
#439 = CARTESIAN_POINT ( 'NONE',  ( 0.000000000000000000, 0.000000000000000000, 1.199999999999999289 ) ) ;
#440 =( NAMED_UNIT ( * ) SI_UNIT ( $, .STERADIAN. ) SOLID_ANGLE_UNIT ( ) );
#441 = CARTESIAN_POINT ( 'NONE',  ( 0.000000000000000000, 0.000000000000000000, 1.500000000000000000 ) ) ;
#442 = AXIS2_PLACEMENT_3D ( 'NONE', #330, #21, #332 ) ;
#443 = DIRECTION ( 'NONE',  ( 1.000000000000000000, 0.000000000000000000, 0.000000000000000000 ) ) ;
#444 = EDGE_CURVE ( 'NONE', #470, #360, #397, .T. ) ;
#445 = PRODUCT_CONTEXT ( 'NONE', #91, 'mechanical' ) ;
#446 = CARTESIAN_POINT ( 'NONE',  ( 0.000000000000000000, 0.000000000000000000, 1.500000000000000000 ) ) ;
#447 = EDGE_CURVE ( 'NONE', #420, #193, #276, .T. ) ;
#448 = PRESENTATION_LAYER_ASSIGNMENT (  '', '', ( #207 ) ) ;
#449 = CIRCLE ( 'NONE', #96, 6.035000000000000142 ) ;
#450 = PRODUCT_DEFINITION_FORMATION_WITH_SPECIFIED_SOURCE ( '任何', '', #364, .NOT_KNOWN. ) ;
#451 =( NAMED_UNIT ( * ) PLANE_ANGLE_UNIT ( ) SI_UNIT ( $, .RADIAN. ) );
#452 = ORIENTED_EDGE ( 'NONE', *, *, #280, .F. ) ;
#453 = DIRECTION ( 'NONE',  ( 1.000000000000000000, 0.000000000000000000, -0.000000000000000000 ) ) ;
#454 = ORIENTED_EDGE ( 'NONE', *, *, #404, .F. ) ;
#455 = DIRECTION ( 'NONE',  ( -0.000000000000000000, 0.000000000000000000, 1.000000000000000000 ) ) ;
#456 = EDGE_LOOP ( 'NONE', ( #268, #296, #386, #452 ) ) ;
#457 = AXIS2_PLACEMENT_3D ( 'NONE', #110, #299, #79 ) ;
#458 = FACE_OUTER_BOUND ( 'NONE', #158, .T. ) ;
#459 = ORIENTED_EDGE ( 'NONE', *, *, #272, .T. ) ;
#460 = EDGE_CURVE ( 'NONE', #342, #351, #53, .T. ) ;
#461 = CARTESIAN_POINT ( 'NONE',  ( -3.475000000000000089, 3.474999999999999645, 10.46878425849301131 ) ) ;
#462 = EDGE_LOOP ( 'NONE', ( #393, #419 ) ) ;
#463 = ADVANCED_FACE ( 'NONE', ( #428 ), #431, .T. ) ;
#464 = CARTESIAN_POINT ( 'NONE',  ( 0.000000000000000000, 0.000000000000000000, 1.500000000000000000 ) ) ;
#465 = ORIENTED_EDGE ( 'NONE', *, *, #222, .F. ) ;
#466 = VECTOR ( 'NONE', #275, 1000.000000000000000 ) ;
#467 = DIRECTION ( 'NONE',  ( 0.000000000000000000, 0.000000000000000000, 1.000000000000000000 ) ) ;
#468 = VERTEX_POINT ( 'NONE', #476 ) ;
#469 = FACE_OUTER_BOUND ( 'NONE', #240, .T. ) ;
#470 = VERTEX_POINT ( 'NONE', #106 ) ;
#471 = FACE_OUTER_BOUND ( 'NONE', #311, .T. ) ;
#472 = DIRECTION ( 'NONE',  ( -0.000000000000000000, -0.000000000000000000, -1.000000000000000000 ) ) ;
#473 = VECTOR ( 'NONE', #153, 1000.000000000000114 ) ;
#474 = AXIS2_PLACEMENT_3D ( 'NONE', #253, #292, #443 ) ;
#475 = VERTEX_POINT ( 'NONE', #140 ) ;
#476 = CARTESIAN_POINT ( 'NONE',  ( 6.035000000000000142, 7.390743432854276880E-16, 0.6500000000000000222 ) ) ;
#477 = DIRECTION ( 'NONE',  ( 0.000000000000000000, 0.000000000000000000, 1.000000000000000000 ) ) ;
#478 = DIRECTION ( 'NONE',  ( 0.000000000000000000, 0.000000000000000000, 1.000000000000000000 ) ) ;
#479 = CARTESIAN_POINT ( 'NONE',  ( -3.474999999999999645, -3.475000000000000533, 10.46878425849301131 ) ) ;
#480 = SURFACE_SIDE_STYLE ('',( #291 ) ) ;
#481 = CONICAL_SURFACE ( 'NONE', #3, 5.099999999999999645, 0.7853981633974570498 ) ;
#482 = FACE_OUTER_BOUND ( 'NONE', #12, .T. ) ;
#483 = EDGE_CURVE ( 'NONE', #339, #128, #69, .T. ) ;
#484 = CARTESIAN_POINT ( 'NONE',  ( -3.475000000000000089, -4.255647627037052709E-16, 10.46878425849301131 ) ) ;
#485 = EDGE_CURVE ( 'NONE', #156, #128, #24, .T. ) ;
#486 = DIRECTION ( 'NONE',  ( -0.000000000000000000, -0.000000000000000000, -1.000000000000000000 ) ) ;
ENDSEC;
END-ISO-10303-21;
